{"glyphs":{"0":{"ha":900,"x_min":0,"x_max":0,"o":"m 450 -14 b 850 358 649 -14 850 104 l 850 628 b 450 1000 850 882 649 1000 b 50 628 251 1000 50 882 l 50 358 b 450 -14 50 104 251 -14 z m 450 208 b 286 358 364 208 286 258 l 286 628 b 450 778 286 728 364 778 b 614 628 536 778 614 728 l 614 358 b 450 208 614 258 536 208 z "},"1":{"ha":686,"x_min":0,"x_max":0,"o":"m 668 0 l 668 208 l 474 208 l 474 986 l 46 903 l 46 690 l 238 728 l 238 208 l 43 208 l 43 0 z "},"2":{"ha":789,"x_min":0,"x_max":0,"o":"m 743 689 b 404 1000 743 893 586 1000 b 40 681 194 1000 40 858 l 276 681 b 399 785 283 746 332 785 b 507 693 474 785 507 740 b 40 153 507 517 40 536 l 40 0 l 743 0 l 743 222 l 288 222 b 743 689 356 392 743 369 z "},"3":{"ha":799,"x_min":0,"x_max":0,"o":"m 649 526 b 731 717 699 574 731 638 b 400 1000 731 879 593 1000 b 35 676 167 1000 35 854 l 264 676 b 388 785 264 750 324 785 b 494 696 453 785 494 750 b 388 607 494 672 482 614 l 306 607 l 306 404 l 381 404 b 529 307 479 404 529 375 b 393 201 529 239 479 201 b 257 324 333 201 257 221 l 28 324 b 407 -14 28 125 174 -14 b 765 293 640 -14 765 144 b 649 526 765 410 717 485 z "},"4":{"ha":856,"x_min":0,"x_max":0,"o":"m 696 367 l 696 986 l 479 986 l 33 339 l 33 179 l 467 179 l 467 0 l 696 0 l 696 179 l 822 179 l 822 367 z m 483 683 b 468 465 474 631 468 557 l 468 367 l 278 367 z "},"5":{"ha":822,"x_min":0,"x_max":0,"o":"m 404 -14 b 779 349 642 -14 779 157 b 460 675 779 533 653 675 b 296 631 393 675 339 658 l 318 778 l 710 778 l 710 986 l 132 986 l 42 394 l 274 394 b 408 474 296 443 349 474 b 543 339 486 474 543 421 b 406 201 543 251 481 201 b 271 310 331 201 276 253 l 35 310 b 404 -14 35 146 175 -14 z "},"6":{"ha":821,"x_min":0,"x_max":0,"o":"m 481 667 b 421 661 460 667 439 665 l 601 986 l 343 986 l 101 549 b 39 331 53 460 39 389 b 413 -14 39 149 188 -14 b 783 344 635 -14 783 149 b 481 667 783 532 646 667 z m 413 208 b 275 344 336 208 275 268 b 413 481 275 421 336 481 b 547 344 488 481 547 421 b 413 208 547 268 488 208 z "},"7":{"ha":728,"x_min":0,"x_max":0,"o":"m 18 778 l 457 778 l 125 0 l 375 0 l 707 807 l 707 986 l 18 986 z "},"8":{"ha":785,"x_min":0,"x_max":0,"o":"m 639 519 b 721 710 694 568 721 638 b 393 1000 721 878 585 1000 b 64 710 200 1000 64 878 b 144 522 64 638 90 569 b 35 299 71 468 35 388 b 392 -14 35 117 183 -14 b 749 299 600 -14 749 117 b 639 519 749 388 713 467 z m 393 807 b 500 707 456 807 500 767 b 393 607 500 649 456 607 b 289 707 332 607 289 649 b 393 807 289 767 332 807 z m 393 196 b 269 310 321 196 269 243 b 393 426 269 379 321 426 b 518 310 465 426 518 379 b 393 196 518 243 465 196 z "},"9":{"ha":821,"x_min":0,"x_max":0,"o":"m 408 1000 b 38 642 186 1000 38 838 b 340 319 38 454 175 319 b 400 325 361 319 382 321 l 219 0 l 478 0 l 719 438 b 782 656 768 526 782 597 b 408 1000 782 838 633 1000 z m 408 506 b 274 642 333 506 274 565 b 408 778 274 718 333 778 b 546 642 485 778 546 718 b 408 506 546 565 485 506 z "}," ":{"ha":278,"x_min":0,"x_max":0,"o":""},"A":{"ha":1029,"x_min":0,"x_max":0,"o":"m 1006 0 l 647 986 l 378 986 l 24 0 l 268 0 l 332 197 l 685 197 l 750 0 z m 393 392 b 504 826 479 663 500 754 b 621 392 508 754 532 664 z "},"Á":{"ha":1029,"x_min":0,"x_max":0,"o":"m 522 1297 l 419 1061 l 600 1061 l 758 1297 z m 1006 0 l 647 986 l 378 986 l 24 0 l 268 0 l 332 197 l 685 197 l 750 0 z m 393 392 b 504 826 479 663 500 754 b 621 392 508 754 532 664 z "},"Ă":{"ha":1029,"x_min":0,"x_max":0,"o":"m 515 1042 b 781 1278 631 1042 781 1099 l 604 1278 b 515 1190 604 1240 583 1190 b 426 1278 447 1190 426 1240 l 250 1278 b 515 1042 250 1099 400 1042 z m 1006 0 l 647 986 l 378 986 l 24 0 l 268 0 l 332 197 l 685 197 l 750 0 z m 393 392 b 504 826 479 663 500 754 b 621 392 508 754 532 664 z "},"Â":{"ha":1029,"x_min":0,"x_max":0,"o":"m 517 1147 b 575 1047 531 1119 550 1088 l 781 1047 l 601 1283 l 429 1283 l 250 1047 l 456 1047 b 517 1147 482 1085 501 1118 z m 1006 0 l 647 986 l 378 986 l 24 0 l 268 0 l 332 197 l 685 197 l 750 0 z m 393 392 b 504 826 479 663 500 754 b 621 392 508 754 532 664 z "},"Ä":{"ha":1029,"x_min":0,"x_max":0,"o":"m 365 1064 b 476 1175 428 1064 476 1113 b 365 1286 476 1238 428 1286 b 254 1175 303 1286 254 1238 b 365 1064 254 1113 303 1064 z m 664 1064 b 775 1175 726 1064 775 1113 b 664 1286 775 1238 726 1286 b 553 1175 601 1286 553 1238 b 664 1064 553 1113 601 1064 z m 1006 0 l 647 986 l 378 986 l 24 0 l 268 0 l 332 197 l 685 197 l 750 0 z m 393 392 b 504 826 479 663 500 754 b 621 392 508 754 532 664 z "},"À":{"ha":1029,"x_min":0,"x_max":0,"o":"m 508 1297 l 272 1297 l 431 1061 l 611 1061 z m 1006 0 l 647 986 l 378 986 l 24 0 l 268 0 l 332 197 l 685 197 l 750 0 z m 393 392 b 504 826 479 663 500 754 b 621 392 508 754 532 664 z "},"Ā":{"ha":1029,"x_min":0,"x_max":0,"o":"m 254 1242 l 254 1061 l 775 1061 l 775 1242 z m 1006 0 l 647 986 l 378 986 l 24 0 l 268 0 l 332 197 l 685 197 l 750 0 z m 393 392 b 504 826 479 663 500 754 b 621 392 508 754 532 664 z "},"Ą":{"ha":1029,"x_min":0,"x_max":0,"o":"m 846 -118 b 938 0 846 -92 867 -44 l 1006 0 l 647 986 l 378 986 l 24 0 l 268 0 l 332 197 l 685 197 l 750 0 b 672 -168 700 -46 672 -111 b 850 -331 672 -265 738 -331 b 1001 -282 925 -331 971 -307 l 1001 -133 b 907 -175 963 -167 936 -175 b 846 -118 871 -175 846 -153 z m 393 392 b 504 826 479 663 500 754 b 621 392 508 754 532 664 z "},"Å":{"ha":1029,"x_min":0,"x_max":0,"o":"m 515 1069 b 683 1238 608 1069 683 1144 b 515 1406 683 1331 608 1406 b 347 1238 422 1406 347 1331 b 515 1069 347 1144 422 1069 z m 515 1290 b 568 1238 546 1290 568 1268 b 515 1185 568 1207 546 1185 b 463 1238 485 1185 463 1207 b 515 1290 463 1268 485 1290 z m 1006 0 l 647 986 l 378 986 l 24 0 l 268 0 l 332 197 l 685 197 l 750 0 z m 393 392 b 504 826 479 663 500 754 b 621 392 508 754 532 664 z "},"Ã":{"ha":1029,"x_min":0,"x_max":0,"o":"m 432 1111 b 614 1063 481 1111 528 1063 b 800 1240 708 1063 775 1119 l 640 1290 b 592 1238 632 1257 621 1238 b 418 1286 543 1238 494 1286 b 231 1108 303 1286 247 1192 l 382 1058 b 432 1111 392 1092 404 1111 z m 1006 0 l 647 986 l 378 986 l 24 0 l 268 0 l 332 197 l 685 197 l 750 0 z m 393 392 b 504 826 479 663 500 754 b 621 392 508 754 532 664 z "},"Æ":{"ha":1325,"x_min":0,"x_max":0,"o":"m 1278 986 l 478 986 l -11 0 l 243 0 l 340 203 l 625 203 l 625 0 l 1278 0 l 1278 214 l 861 214 l 861 390 l 1208 390 l 1208 599 l 861 599 l 861 772 l 1278 772 z m 621 792 l 625 792 l 625 397 l 433 397 z "},"B":{"ha":919,"x_min":0,"x_max":0,"o":"m 510 0 b 876 304 751 0 876 133 b 700 538 876 424 800 519 b 821 739 757 557 821 615 b 482 986 821 903 693 986 l 86 986 l 86 0 z m 322 785 l 482 785 b 583 690 539 785 583 754 b 482 596 583 628 539 596 l 322 596 z m 322 418 l 510 418 b 639 310 586 418 639 378 b 510 201 639 246 586 201 l 322 201 z "},"C":{"ha":899,"x_min":0,"x_max":0,"o":"m 543 -14 b 831 64 707 -14 803 44 l 831 293 b 574 201 814 272 724 201 b 285 493 418 201 285 317 b 574 785 285 669 418 785 b 831 693 724 785 814 714 l 831 922 b 543 1000 803 942 707 1000 b 49 493 269 1000 49 783 b 543 -14 49 203 269 -14 z "},"Ć":{"ha":899,"x_min":0,"x_max":0,"o":"m 621 1061 l 779 1297 l 543 1297 l 440 1061 z m 543 -14 b 831 64 707 -14 803 44 l 831 293 b 574 201 814 272 724 201 b 285 493 418 201 285 317 b 574 785 285 669 418 785 b 831 693 724 785 814 714 l 831 922 b 543 1000 803 942 707 1000 b 49 493 269 1000 49 783 b 543 -14 49 203 269 -14 z "},"Č":{"ha":899,"x_min":0,"x_max":0,"o":"m 801 1288 l 596 1288 b 536 1167 563 1238 544 1204 b 476 1288 528 1200 510 1235 l 271 1288 l 450 1051 l 622 1051 z m 574 785 b 831 693 724 785 814 714 l 831 922 b 543 1000 803 942 707 1000 b 49 493 269 1000 49 783 b 543 -14 49 203 269 -14 b 831 64 707 -14 803 44 l 831 293 b 574 201 814 272 724 201 b 285 493 418 201 285 317 b 574 785 285 669 418 785 z "},"Ç":{"ha":899,"x_min":0,"x_max":0,"o":"m 574 785 b 831 693 724 785 814 714 l 831 922 b 543 1000 803 942 707 1000 b 49 493 269 1000 49 783 b 471 -8 49 229 232 26 l 415 -149 b 538 -183 492 -149 538 -158 b 492 -207 538 -196 524 -207 b 400 -189 469 -207 440 -201 l 397 -310 b 506 -332 436 -325 472 -332 b 700 -192 622 -332 700 -279 b 603 -75 700 -128 658 -87 l 631 -8 b 831 64 742 7 808 49 l 831 293 b 574 201 814 272 724 201 b 285 493 418 201 285 317 b 574 785 285 669 418 785 z "},"Ċ":{"ha":899,"x_min":0,"x_max":0,"o":"m 536 1044 b 663 1169 606 1044 663 1100 b 536 1296 663 1240 606 1296 b 410 1169 467 1296 410 1240 b 536 1044 410 1100 467 1044 z m 543 -14 b 831 64 707 -14 803 44 l 831 293 b 574 201 814 272 724 201 b 285 493 418 201 285 317 b 574 785 285 669 418 785 b 831 693 724 785 814 714 l 831 922 b 543 1000 803 942 707 1000 b 49 493 269 1000 49 783 b 543 -14 49 203 269 -14 z "},"D":{"ha":997,"x_min":0,"x_max":0,"o":"m 438 0 b 949 493 760 0 949 217 b 438 986 949 769 760 986 l 86 986 l 86 0 z m 322 772 l 438 772 b 713 493 596 772 713 690 b 438 214 713 296 596 214 l 322 214 z "},"Ð":{"ha":1051,"x_min":0,"x_max":0,"o":"m 140 986 l 140 574 l 0 574 l 0 407 l 140 407 l 140 0 l 492 0 b 1003 493 814 0 1003 217 b 492 986 1003 769 814 986 z m 376 214 l 376 407 l 542 407 l 542 574 l 376 574 l 376 772 l 492 772 b 767 493 650 772 767 690 b 492 214 767 296 650 214 z "},"Ď":{"ha":997,"x_min":0,"x_max":0,"o":"m 675 1288 l 469 1288 b 410 1167 436 1238 418 1204 b 350 1288 401 1200 383 1235 l 144 1288 l 324 1051 l 496 1051 z m 86 986 l 86 0 l 438 0 b 949 493 760 0 949 217 b 438 986 949 769 760 986 z m 322 214 l 322 772 l 438 772 b 713 493 596 772 713 690 b 438 214 713 296 596 214 z "},"Đ":{"ha":1051,"x_min":0,"x_max":0,"o":"m 140 986 l 140 574 l 0 574 l 0 407 l 140 407 l 140 0 l 492 0 b 1003 493 814 0 1003 217 b 492 986 1003 769 814 986 z m 376 214 l 376 407 l 542 407 l 542 574 l 376 574 l 376 772 l 492 772 b 767 493 650 772 767 690 b 492 214 767 296 650 214 z "},"E":{"ha":786,"x_min":0,"x_max":0,"o":"m 739 986 l 86 986 l 86 0 l 739 0 l 739 214 l 322 214 l 322 390 l 669 390 l 669 599 l 322 599 l 322 772 l 739 772 z "},"É":{"ha":786,"x_min":0,"x_max":0,"o":"m 424 1297 l 321 1061 l 501 1061 l 660 1297 z m 739 986 l 86 986 l 86 0 l 739 0 l 739 214 l 322 214 l 322 390 l 669 390 l 669 599 l 322 599 l 322 772 l 739 772 z "},"Ě":{"ha":786,"x_min":0,"x_max":0,"o":"m 682 1288 l 476 1288 b 417 1167 443 1238 425 1204 b 357 1288 408 1200 390 1235 l 151 1288 l 331 1051 l 503 1051 z m 739 986 l 86 986 l 86 0 l 739 0 l 739 214 l 322 214 l 322 390 l 669 390 l 669 599 l 322 599 l 322 772 l 739 772 z "},"Ê":{"ha":786,"x_min":0,"x_max":0,"o":"m 418 1147 b 476 1047 432 1119 451 1088 l 682 1047 l 503 1283 l 331 1283 l 151 1047 l 357 1047 b 418 1147 383 1085 403 1118 z m 739 986 l 86 986 l 86 0 l 739 0 l 739 214 l 322 214 l 322 390 l 669 390 l 669 599 l 322 599 l 322 772 l 739 772 z "},"Ë":{"ha":786,"x_min":0,"x_max":0,"o":"m 267 1064 b 378 1175 329 1064 378 1113 b 267 1286 378 1238 329 1286 b 156 1175 204 1286 156 1238 b 267 1064 156 1113 204 1064 z m 565 1064 b 676 1175 628 1064 676 1113 b 565 1286 676 1238 628 1286 b 454 1175 503 1286 454 1238 b 565 1064 454 1113 503 1064 z m 739 986 l 86 986 l 86 0 l 739 0 l 739 214 l 322 214 l 322 390 l 669 390 l 669 599 l 322 599 l 322 772 l 739 772 z "},"Ė":{"ha":786,"x_min":0,"x_max":0,"o":"m 417 1044 b 543 1169 486 1044 543 1100 b 417 1296 543 1240 486 1296 b 290 1169 347 1296 290 1240 b 417 1044 290 1100 347 1044 z m 739 986 l 86 986 l 86 0 l 739 0 l 739 214 l 322 214 l 322 390 l 669 390 l 669 599 l 322 599 l 322 772 l 739 772 z "},"È":{"ha":786,"x_min":0,"x_max":0,"o":"m 410 1297 l 174 1297 l 332 1061 l 513 1061 z m 739 986 l 86 986 l 86 0 l 739 0 l 739 214 l 322 214 l 322 390 l 669 390 l 669 599 l 322 599 l 322 772 l 739 772 z "},"Ē":{"ha":786,"x_min":0,"x_max":0,"o":"m 156 1242 l 156 1061 l 676 1061 l 676 1242 z m 739 986 l 86 986 l 86 0 l 739 0 l 739 214 l 322 214 l 322 390 l 669 390 l 669 599 l 322 599 l 322 772 l 739 772 z "},"Ę":{"ha":786,"x_min":0,"x_max":0,"o":"m 701 -175 b 640 -118 665 -175 640 -153 b 732 0 640 -92 661 -44 l 739 0 l 739 214 l 322 214 l 322 390 l 669 390 l 669 599 l 322 599 l 322 772 l 739 772 l 739 986 l 86 986 l 86 0 l 544 0 b 467 -168 494 -46 467 -111 b 644 -331 467 -265 532 -331 b 796 -282 719 -331 765 -307 l 796 -133 b 701 -175 757 -167 731 -175 z "},"Ẽ":{"ha":786,"x_min":0,"x_max":0,"o":"m 333 1111 b 515 1063 382 1111 429 1063 b 701 1240 610 1063 676 1119 l 542 1290 b 493 1238 533 1257 522 1238 b 319 1286 444 1238 396 1286 b 132 1108 204 1286 149 1192 l 283 1058 b 333 1111 293 1092 306 1111 z m 739 986 l 86 986 l 86 0 l 739 0 l 739 214 l 322 214 l 322 390 l 669 390 l 669 599 l 322 599 l 322 772 l 739 772 z "},"F":{"ha":758,"x_min":0,"x_max":0,"o":"m 322 0 l 322 376 l 669 376 l 669 585 l 322 585 l 322 772 l 711 772 l 711 986 l 86 986 l 86 0 z "},"G":{"ha":1094,"x_min":0,"x_max":0,"o":"m 442 364 l 793 364 b 553 204 757 267 672 204 b 285 490 385 204 285 328 b 558 782 285 658 393 782 b 796 667 667 782 750 725 l 963 817 b 550 1000 883 922 725 1000 b 49 494 249 1000 49 768 b 557 -14 49 217 256 -14 b 1050 572 836 -14 1050 185 l 442 572 z "},"Ğ":{"ha":1094,"x_min":0,"x_max":0,"o":"m 560 1042 b 825 1278 675 1042 825 1099 l 649 1278 b 560 1190 649 1240 628 1190 b 471 1278 492 1190 471 1240 l 294 1278 b 560 1042 294 1099 444 1042 z m 442 364 l 793 364 b 553 204 757 267 672 204 b 285 490 385 204 285 328 b 558 782 285 658 393 782 b 796 667 667 782 750 725 l 963 817 b 550 1000 883 922 725 1000 b 49 494 249 1000 49 768 b 557 -14 49 217 256 -14 b 1050 572 836 -14 1050 185 l 442 572 z "},"Ģ":{"ha":1094,"x_min":0,"x_max":0,"o":"m 442 364 l 793 364 b 553 204 757 267 672 204 b 285 490 385 204 285 328 b 558 782 285 658 393 782 b 796 667 667 782 750 725 l 963 817 b 550 1000 883 922 725 1000 b 49 494 249 1000 49 768 b 557 -14 49 217 256 -14 b 1050 572 836 -14 1050 185 l 442 572 z m 547 -321 l 683 -50 l 447 -50 l 367 -321 z "},"Ġ":{"ha":1094,"x_min":0,"x_max":0,"o":"m 560 1044 b 686 1169 629 1044 686 1100 b 560 1296 686 1240 629 1296 b 433 1169 490 1296 433 1240 b 560 1044 433 1100 490 1044 z m 442 364 l 793 364 b 553 204 757 267 672 204 b 285 490 385 204 285 328 b 558 782 285 658 393 782 b 796 667 667 782 750 725 l 963 817 b 550 1000 883 922 725 1000 b 49 494 249 1000 49 768 b 557 -14 49 217 256 -14 b 1050 572 836 -14 1050 185 l 442 572 z "},"H":{"ha":1029,"x_min":0,"x_max":0,"o":"m 707 589 l 322 589 l 322 986 l 86 986 l 86 0 l 322 0 l 322 381 l 707 381 l 707 0 l 943 0 l 943 986 l 707 986 z "},"Ħ":{"ha":1029,"x_min":0,"x_max":0,"o":"m 943 861 l 943 986 l 707 986 l 707 861 l 322 861 l 322 986 l 86 986 l 86 861 l -50 861 l -50 694 l 86 694 l 86 0 l 322 0 l 322 381 l 707 381 l 707 0 l 943 0 l 943 694 l 1075 694 l 1075 861 z m 322 589 l 322 694 l 707 694 l 707 589 z "},"I":{"ha":408,"x_min":0,"x_max":0,"o":"m 322 0 l 322 986 l 86 986 l 86 0 z "},"Í":{"ha":408,"x_min":0,"x_max":0,"o":"m 289 1061 l 447 1297 l 211 1297 l 108 1061 z m 322 0 l 322 986 l 86 986 l 86 0 z "},"Î":{"ha":408,"x_min":0,"x_max":0,"o":"m 206 1147 b 264 1047 219 1119 239 1088 l 469 1047 l 290 1283 l 118 1283 l -61 1047 l 144 1047 b 206 1147 171 1085 190 1118 z m 322 0 l 322 986 l 86 986 l 86 0 z "},"Ï":{"ha":408,"x_min":0,"x_max":0,"o":"m 54 1064 b 165 1175 117 1064 165 1113 b 54 1286 165 1238 117 1286 b -57 1175 -8 1286 -57 1238 b 54 1064 -57 1113 -8 1064 z m 353 1064 b 464 1175 415 1064 464 1113 b 353 1286 464 1238 415 1286 b 242 1175 290 1286 242 1238 b 353 1064 242 1113 290 1064 z m 322 0 l 322 986 l 86 986 l 86 0 z "},"İ":{"ha":408,"x_min":0,"x_max":0,"o":"m 204 1044 b 331 1169 274 1044 331 1100 b 204 1296 331 1240 274 1296 b 78 1169 135 1296 78 1240 b 204 1044 78 1100 135 1044 z m 322 0 l 322 986 l 86 986 l 86 0 z "},"Ì":{"ha":408,"x_min":0,"x_max":0,"o":"m 197 1297 l -39 1297 l 119 1061 l 300 1061 z m 322 0 l 322 986 l 86 986 l 86 0 z "},"Ī":{"ha":408,"x_min":0,"x_max":0,"o":"m -57 1061 l 464 1061 l 464 1242 l -57 1242 z m 322 0 l 322 986 l 86 986 l 86 0 z "},"Į":{"ha":408,"x_min":0,"x_max":0,"o":"m 243 -175 b 182 -118 207 -175 182 -153 b 274 0 182 -92 203 -44 l 322 0 l 322 986 l 86 986 l 86 0 b 8 -168 36 -46 8 -111 b 186 -331 8 -265 74 -331 b 338 -282 261 -331 307 -307 l 338 -133 b 243 -175 299 -167 272 -175 z "},"J":{"ha":635,"x_min":0,"x_max":0,"o":"m 13 72 b 235 -14 38 50 110 -14 b 564 378 419 -14 564 117 l 564 986 l 328 986 l 328 392 b 213 219 328 263 288 219 b 86 268 175 219 133 236 z "},"K":{"ha":924,"x_min":0,"x_max":0,"o":"m 626 986 l 315 561 b 322 986 322 618 322 699 l 86 986 l 86 0 l 322 0 b 315 449 322 294 322 381 l 610 0 l 894 0 l 546 501 l 901 986 z "},"Ķ":{"ha":924,"x_min":0,"x_max":0,"o":"m 626 986 l 315 561 b 322 986 322 618 322 699 l 86 986 l 86 0 l 322 0 b 315 449 322 294 322 381 l 610 0 l 894 0 l 546 501 l 901 986 z m 429 -321 l 565 -50 l 329 -50 l 249 -321 z "},"L":{"ha":774,"x_min":0,"x_max":0,"o":"m 725 0 l 725 214 l 322 214 l 322 986 l 86 986 l 86 0 z "},"Ĺ":{"ha":774,"x_min":0,"x_max":0,"o":"m 292 1061 l 450 1297 l 214 1297 l 111 1061 z m 725 0 l 725 214 l 322 214 l 322 986 l 86 986 l 86 0 z "},"Ľ":{"ha":764,"x_min":0,"x_max":0,"o":"m 725 0 l 725 214 l 322 214 l 322 986 l 86 986 l 86 0 z m 411 647 l 592 647 l 738 986 l 501 986 z "},"Ļ":{"ha":774,"x_min":0,"x_max":0,"o":"m 725 0 l 725 214 l 322 214 l 322 986 l 86 986 l 86 0 z m 219 -321 l 400 -321 l 536 -50 l 300 -50 z "},"Ŀ":{"ha":774,"x_min":0,"x_max":0,"o":"m 725 0 l 725 214 l 322 214 l 322 986 l 86 986 l 86 0 z m 560 372 b 681 493 626 372 681 425 b 560 613 681 560 626 613 b 439 493 493 613 439 560 b 560 372 439 425 493 372 z "},"Ł":{"ha":774,"x_min":0,"x_max":0,"o":"m 322 535 l 429 601 l 429 811 l 322 744 l 322 986 l 86 986 l 86 596 l -6 539 l -6 329 l 86 386 l 86 0 l 725 0 l 725 214 l 322 214 z "},"M":{"ha":1192,"x_min":0,"x_max":0,"o":"m 596 611 l 308 986 l 86 986 l 86 0 l 322 0 b 310 621 322 379 322 540 l 594 244 l 882 624 b 869 0 869 543 869 383 l 1106 0 l 1106 986 l 883 986 z "},"N":{"ha":1049,"x_min":0,"x_max":0,"o":"m 732 986 b 742 371 732 624 733 461 l 306 986 l 86 986 l 86 0 l 317 0 b 306 607 317 357 315 518 l 743 0 l 963 0 l 963 986 z "},"Ń":{"ha":1049,"x_min":0,"x_max":0,"o":"m 538 1297 l 435 1061 l 615 1061 l 774 1297 z m 732 986 b 742 371 732 624 733 461 l 306 986 l 86 986 l 86 0 l 317 0 b 306 607 317 357 315 518 l 743 0 l 963 0 l 963 986 z "},"Ň":{"ha":1049,"x_min":0,"x_max":0,"o":"m 796 1288 l 590 1288 b 531 1167 557 1238 539 1204 b 471 1288 522 1200 504 1235 l 265 1288 l 444 1051 l 617 1051 z m 732 986 b 742 371 732 624 733 461 l 306 986 l 86 986 l 86 0 l 317 0 b 306 607 317 357 315 518 l 743 0 l 963 0 l 963 986 z "},"Ņ":{"ha":1049,"x_min":0,"x_max":0,"o":"m 732 986 b 742 371 732 624 733 461 l 306 986 l 86 986 l 86 0 l 317 0 b 306 607 317 357 315 518 l 743 0 l 963 0 l 963 986 z m 518 -321 l 654 -50 l 418 -50 l 338 -321 z "},"Ɲ":{"ha":1049,"x_min":0,"x_max":0,"o":"m 732 986 b 742 371 732 624 733 461 l 306 986 l 86 986 l 86 -319 l 317 -319 l 317 0 b 306 607 317 357 315 518 l 743 0 l 963 0 l 963 986 z "},"Ñ":{"ha":1049,"x_min":0,"x_max":0,"o":"m 447 1111 b 629 1063 496 1111 543 1063 b 815 1240 724 1063 790 1119 l 656 1290 b 607 1238 647 1257 636 1238 b 433 1286 558 1238 510 1286 b 246 1108 318 1286 263 1192 l 397 1058 b 447 1111 407 1092 419 1111 z m 732 986 b 742 371 732 624 733 461 l 306 986 l 86 986 l 86 0 l 317 0 b 306 607 317 357 315 518 l 743 0 l 963 0 l 963 986 z "},"Ŋ":{"ha":1049,"x_min":0,"x_max":0,"o":"m 732 986 b 742 371 732 624 733 461 l 306 986 l 86 986 l 86 0 l 317 0 b 306 607 317 357 315 518 l 732 15 l 732 -319 l 963 -319 l 963 986 z "},"O":{"ha":1111,"x_min":0,"x_max":0,"o":"m 556 -14 b 1063 493 850 -14 1063 199 b 556 1000 1063 788 850 1000 b 49 493 261 1000 49 788 b 556 -14 49 199 261 -14 z m 556 208 b 285 493 393 208 285 338 b 556 778 285 649 393 778 b 826 493 718 778 826 649 b 556 208 826 338 718 208 z "},"Ó":{"ha":1111,"x_min":0,"x_max":0,"o":"m 640 1061 l 799 1297 l 563 1297 l 460 1061 z m 556 -14 b 1063 493 850 -14 1063 199 b 556 1000 1063 788 850 1000 b 49 493 261 1000 49 788 b 556 -14 49 199 261 -14 z m 556 208 b 285 493 393 208 285 338 b 556 778 285 649 393 778 b 826 493 718 778 826 649 b 556 208 826 338 718 208 z "},"Ô":{"ha":1111,"x_min":0,"x_max":0,"o":"m 557 1147 b 615 1047 571 1119 590 1088 l 821 1047 l 642 1283 l 469 1283 l 290 1047 l 496 1047 b 557 1147 522 1085 542 1118 z m 556 1000 b 49 493 261 1000 49 788 b 556 -14 49 199 261 -14 b 1063 493 850 -14 1063 199 b 556 1000 1063 788 850 1000 z m 556 208 b 285 493 393 208 285 338 b 556 778 285 649 393 778 b 826 493 718 778 826 649 b 556 208 826 338 718 208 z "},"Ö":{"ha":1111,"x_min":0,"x_max":0,"o":"m 406 1064 b 517 1175 468 1064 517 1113 b 406 1286 517 1238 468 1286 b 294 1175 343 1286 294 1238 b 406 1064 294 1113 343 1064 z m 704 1064 b 815 1175 767 1064 815 1113 b 704 1286 815 1238 767 1286 b 593 1175 642 1286 593 1238 b 704 1064 593 1113 642 1064 z m 556 -14 b 1063 493 850 -14 1063 199 b 556 1000 1063 788 850 1000 b 49 493 261 1000 49 788 b 556 -14 49 199 261 -14 z m 556 208 b 285 493 393 208 285 338 b 556 778 285 649 393 778 b 826 493 718 778 826 649 b 556 208 826 338 718 208 z "},"Ò":{"ha":1111,"x_min":0,"x_max":0,"o":"m 549 1297 l 313 1297 l 471 1061 l 651 1061 z m 556 -14 b 1063 493 850 -14 1063 199 b 556 1000 1063 788 850 1000 b 49 493 261 1000 49 788 b 556 -14 49 199 261 -14 z m 556 208 b 285 493 393 208 285 338 b 556 778 285 649 393 778 b 826 493 718 778 826 649 b 556 208 826 338 718 208 z "},"Ő":{"ha":1111,"x_min":0,"x_max":0,"o":"m 529 1061 l 688 1297 l 451 1297 l 349 1061 z m 785 1061 l 943 1297 l 707 1297 l 604 1061 z m 556 -14 b 1063 493 850 -14 1063 199 b 556 1000 1063 788 850 1000 b 49 493 261 1000 49 788 b 556 -14 49 199 261 -14 z m 556 208 b 285 493 393 208 285 338 b 556 778 285 649 393 778 b 826 493 718 778 826 649 b 556 208 826 338 718 208 z "},"Ō":{"ha":1111,"x_min":0,"x_max":0,"o":"m 294 1061 l 815 1061 l 815 1242 l 294 1242 z m 556 -14 b 1063 493 850 -14 1063 199 b 556 1000 1063 788 850 1000 b 49 493 261 1000 49 788 b 556 -14 49 199 261 -14 z m 556 208 b 285 493 393 208 285 338 b 556 778 285 649 393 778 b 826 493 718 778 826 649 b 556 208 826 338 718 208 z "},"Ø":{"ha":1124,"x_min":0,"x_max":0,"o":"m 825 1014 l 782 957 b 565 1000 718 985 644 1000 b 58 493 271 1000 58 788 b 182 150 58 357 104 239 l 49 -28 l 299 -28 l 343 32 b 565 -14 410 3 485 -14 b 1072 493 860 -14 1072 199 b 946 840 1072 631 1025 751 l 1075 1014 z m 294 493 b 565 778 294 649 403 778 b 642 768 592 778 618 774 l 329 349 b 294 493 307 392 294 440 z m 836 493 b 565 208 836 338 728 208 b 483 221 536 208 508 213 l 799 643 b 836 493 822 599 836 547 z "},"Õ":{"ha":1111,"x_min":0,"x_max":0,"o":"m 422 1058 b 472 1111 432 1092 444 1111 b 654 1063 521 1111 568 1063 b 840 1240 749 1063 815 1119 l 681 1290 b 632 1238 672 1257 661 1238 b 458 1286 583 1238 535 1286 b 271 1108 343 1286 288 1192 z m 556 -14 b 1063 493 850 -14 1063 199 b 556 1000 1063 788 850 1000 b 49 493 261 1000 49 788 b 556 -14 49 199 261 -14 z m 556 208 b 285 493 393 208 285 338 b 556 778 285 649 393 778 b 826 493 718 778 826 649 b 556 208 826 338 718 208 z "},"Œ":{"ha":1269,"x_min":0,"x_max":0,"o":"m 1222 0 l 1222 214 l 806 214 l 806 390 l 1153 390 l 1153 599 l 806 599 l 806 772 l 1222 772 l 1222 986 l 569 986 b 35 493 238 986 35 788 b 569 0 35 199 238 0 z m 569 208 b 271 493 367 208 271 338 b 569 778 271 649 367 778 z "},"P":{"ha":924,"x_min":0,"x_max":0,"o":"m 86 986 l 86 0 l 322 0 l 322 297 l 496 297 b 882 649 722 297 882 438 b 510 986 882 864 722 986 z m 322 513 l 322 771 l 510 771 b 646 642 588 771 646 722 b 510 513 646 561 588 513 z "},"Þ":{"ha":910,"x_min":0,"x_max":0,"o":"m 322 847 l 322 986 l 86 986 l 86 0 l 322 0 l 322 158 l 496 158 b 882 510 722 158 882 299 b 510 847 882 725 722 847 z m 322 374 l 322 632 l 510 632 b 646 503 588 632 646 583 b 510 374 646 422 588 374 z "},"Q":{"ha":1111,"x_min":0,"x_max":0,"o":"m 1063 493 b 556 1000 1063 782 844 1000 b 49 493 267 1000 49 782 b 258 78 49 339 118 203 l 611 -236 l 896 -236 l 601 36 b 636 35 613 35 624 35 b 1063 493 879 35 1063 232 z m 285 493 b 556 778 285 649 393 778 b 826 493 718 778 826 649 b 556 208 826 338 718 208 b 285 493 393 208 285 338 z "},"R":{"ha":935,"x_min":0,"x_max":0,"o":"m 894 0 b 601 361 735 201 654 304 b 874 674 719 378 874 461 b 515 986 874 875 735 986 l 86 986 l 86 0 l 322 0 b 311 397 322 218 321 340 l 607 0 z m 638 651 b 501 526 638 574 588 526 l 322 526 l 322 772 l 501 772 b 638 651 588 772 638 728 z "},"Ŕ":{"ha":935,"x_min":0,"x_max":0,"o":"m 460 1297 l 357 1061 l 538 1061 l 696 1297 z m 894 0 b 601 361 735 201 654 304 b 874 674 719 378 874 461 b 515 986 874 875 735 986 l 86 986 l 86 0 l 322 0 b 311 397 322 218 321 340 l 607 0 z m 638 651 b 501 526 638 574 588 526 l 322 526 l 322 772 l 501 772 b 638 651 588 772 638 728 z "},"Ř":{"ha":935,"x_min":0,"x_max":0,"o":"m 718 1288 l 513 1288 b 453 1167 479 1238 461 1204 b 393 1288 444 1200 426 1235 l 188 1288 l 367 1051 l 539 1051 z m 894 0 b 601 361 735 201 654 304 b 874 674 719 378 874 461 b 515 986 874 875 735 986 l 86 986 l 86 0 l 322 0 b 311 397 322 218 321 340 l 607 0 z m 638 651 b 501 526 638 574 588 526 l 322 526 l 322 772 l 501 772 b 638 651 588 772 638 728 z "},"Ŗ":{"ha":935,"x_min":0,"x_max":0,"o":"m 601 361 b 874 674 719 378 874 461 b 515 986 874 875 735 986 l 86 986 l 86 0 l 322 0 b 311 397 322 218 321 340 l 607 0 l 894 0 b 601 361 735 201 654 304 z m 638 651 b 501 526 638 574 588 526 l 322 526 l 322 772 l 501 772 b 638 651 588 772 638 728 z m 440 -321 l 576 -50 l 340 -50 l 260 -321 z "},"S":{"ha":800,"x_min":0,"x_max":0,"o":"m 410 -14 b 765 281 610 -14 765 94 b 306 722 765 608 306 543 b 397 800 306 769 343 800 b 506 667 461 800 504 754 l 743 674 b 394 1000 742 868 604 1000 b 63 713 194 1000 63 879 b 517 265 63 389 517 417 b 411 186 517 219 479 186 b 272 326 328 186 272 238 l 29 326 b 410 -14 29 163 150 -14 z "},"Ś":{"ha":800,"x_min":0,"x_max":0,"o":"m 486 1061 l 644 1297 l 408 1297 l 306 1061 z m 410 -14 b 765 281 610 -14 765 94 b 306 722 765 608 306 543 b 397 800 306 769 343 800 b 506 667 461 800 504 754 l 743 674 b 394 1000 742 868 604 1000 b 63 713 194 1000 63 879 b 517 265 63 389 517 417 b 411 186 517 219 479 186 b 272 326 328 186 272 238 l 29 326 b 410 -14 29 163 150 -14 z "},"Š":{"ha":800,"x_min":0,"x_max":0,"o":"m 667 1288 l 461 1288 b 401 1167 428 1238 410 1204 b 342 1288 393 1200 375 1235 l 136 1288 l 315 1051 l 488 1051 z m 306 722 b 397 800 306 769 343 800 b 506 667 461 800 504 754 l 743 674 b 394 1000 742 868 604 1000 b 63 713 194 1000 63 879 b 517 265 63 389 517 417 b 411 186 517 219 479 186 b 272 326 328 186 272 238 l 29 326 b 410 -14 29 163 150 -14 b 765 281 610 -14 765 94 b 306 722 765 608 306 543 z "},"Ş":{"ha":800,"x_min":0,"x_max":0,"o":"m 765 281 b 306 722 765 608 306 543 b 397 800 306 769 343 800 b 506 667 461 800 504 754 l 743 674 b 394 1000 742 868 604 1000 b 63 713 194 1000 63 879 b 517 265 63 389 517 417 b 411 186 517 219 479 186 b 272 326 328 186 272 238 l 29 326 b 317 -6 29 183 121 31 l 261 -149 b 383 -183 338 -149 383 -158 b 338 -207 383 -196 369 -207 b 246 -189 315 -207 286 -201 l 243 -310 b 351 -332 282 -325 318 -332 b 546 -192 468 -332 546 -279 b 449 -75 546 -128 504 -87 l 475 -10 b 765 281 643 11 765 115 z "},"Ș":{"ha":800,"x_min":0,"x_max":0,"o":"m 410 -14 b 765 281 610 -14 765 94 b 306 722 765 608 306 543 b 397 800 306 769 343 800 b 506 667 461 800 504 754 l 743 674 b 394 1000 742 868 604 1000 b 63 713 194 1000 63 879 b 517 265 63 389 517 417 b 411 186 517 219 479 186 b 272 326 328 186 272 238 l 29 326 b 410 -14 29 163 150 -14 z m 208 -321 l 389 -321 l 525 -50 l 289 -50 z "},"ẞ":{"ha":944,"x_min":0,"x_max":0,"o":"m 900 986 l 86 986 l 86 0 l 322 0 l 322 790 l 569 790 l 413 425 l 514 425 b 671 303 608 425 671 375 b 554 196 671 233 615 196 b 411 251 507 196 457 211 l 411 38 b 604 -14 451 10 514 -14 b 913 308 785 -14 913 133 b 717 581 913 439 838 553 z "},"Ə":{"ha":1083,"x_min":0,"x_max":0,"o":"m 542 1000 b 71 682 326 1000 144 869 l 313 650 b 542 778 358 726 440 778 b 797 593 665 778 761 704 l 35 593 b 542 -14 7 210 225 -14 b 1049 493 836 -14 1049 199 b 542 1000 1049 788 836 1000 z m 542 208 b 283 403 401 208 315 268 l 800 403 b 542 208 767 286 668 208 z "},"T":{"ha":833,"x_min":0,"x_max":0,"o":"m 535 0 l 535 772 l 785 772 l 785 986 l 49 986 l 49 772 l 299 772 l 299 0 z "},"Ŧ":{"ha":833,"x_min":0,"x_max":0,"o":"m 785 986 l 49 986 l 49 772 l 299 772 l 299 574 l 151 574 l 151 407 l 299 407 l 299 0 l 535 0 l 535 407 l 693 407 l 693 574 l 535 574 l 535 772 l 785 772 z "},"Ť":{"ha":833,"x_min":0,"x_max":0,"o":"m 682 1288 l 476 1288 b 417 1167 443 1238 425 1204 b 357 1288 408 1200 390 1235 l 151 1288 l 331 1051 l 503 1051 z m 49 772 l 299 772 l 299 0 l 535 0 l 535 772 l 785 772 l 785 986 l 49 986 z "},"Ţ":{"ha":833,"x_min":0,"x_max":0,"o":"m 535 772 l 785 772 l 785 986 l 49 986 l 49 772 l 299 772 l 299 0 l 335 0 l 276 -149 b 399 -183 353 -149 399 -158 b 353 -207 399 -196 385 -207 b 261 -189 331 -207 301 -201 l 258 -310 b 367 -332 297 -325 333 -332 b 561 -192 483 -332 561 -279 b 464 -75 561 -128 519 -87 l 494 0 l 535 0 z "},"Ț":{"ha":833,"x_min":0,"x_max":0,"o":"m 535 0 l 535 772 l 785 772 l 785 986 l 49 986 l 49 772 l 299 772 l 299 0 z m 224 -321 l 404 -321 l 540 -50 l 304 -50 z "},"U":{"ha":1019,"x_min":0,"x_max":0,"o":"m 510 -14 b 933 431 772 -14 933 146 l 933 986 l 697 986 l 697 424 b 510 201 697 276 626 201 b 322 424 393 201 322 276 l 322 986 l 86 986 l 86 431 b 510 -14 86 146 247 -14 z "},"Ú":{"ha":1019,"x_min":0,"x_max":0,"o":"m 594 1061 l 753 1297 l 517 1297 l 414 1061 z m 510 -14 b 933 431 772 -14 933 146 l 933 986 l 697 986 l 697 424 b 510 201 697 276 626 201 b 322 424 393 201 322 276 l 322 986 l 86 986 l 86 431 b 510 -14 86 146 247 -14 z "},"Û":{"ha":1019,"x_min":0,"x_max":0,"o":"m 511 1147 b 569 1047 525 1119 544 1088 l 775 1047 l 596 1283 l 424 1283 l 244 1047 l 450 1047 b 511 1147 476 1085 496 1118 z m 697 424 b 510 201 697 276 626 201 b 322 424 393 201 322 276 l 322 986 l 86 986 l 86 431 b 510 -14 86 146 247 -14 b 933 431 772 -14 933 146 l 933 986 l 697 986 z "},"Ü":{"ha":1019,"x_min":0,"x_max":0,"o":"m 360 1064 b 471 1175 422 1064 471 1113 b 360 1286 471 1238 422 1286 b 249 1175 297 1286 249 1238 b 360 1064 249 1113 297 1064 z m 658 1064 b 769 1175 721 1064 769 1113 b 658 1286 769 1238 721 1286 b 547 1175 596 1286 547 1238 b 658 1064 547 1113 596 1064 z m 510 -14 b 933 431 772 -14 933 146 l 933 986 l 697 986 l 697 424 b 510 201 697 276 626 201 b 322 424 393 201 322 276 l 322 986 l 86 986 l 86 431 b 510 -14 86 146 247 -14 z "},"Ù":{"ha":1019,"x_min":0,"x_max":0,"o":"m 503 1297 l 267 1297 l 425 1061 l 606 1061 z m 510 -14 b 933 431 772 -14 933 146 l 933 986 l 697 986 l 697 424 b 510 201 697 276 626 201 b 322 424 393 201 322 276 l 322 986 l 86 986 l 86 431 b 510 -14 86 146 247 -14 z "},"Ű":{"ha":1019,"x_min":0,"x_max":0,"o":"m 483 1061 l 642 1297 l 406 1297 l 303 1061 z m 739 1061 l 897 1297 l 661 1297 l 558 1061 z m 510 -14 b 933 431 772 -14 933 146 l 933 986 l 697 986 l 697 424 b 510 201 697 276 626 201 b 322 424 393 201 322 276 l 322 986 l 86 986 l 86 431 b 510 -14 86 146 247 -14 z "},"Ū":{"ha":1019,"x_min":0,"x_max":0,"o":"m 249 1061 l 769 1061 l 769 1242 l 249 1242 z m 510 -14 b 933 431 772 -14 933 146 l 933 986 l 697 986 l 697 424 b 510 201 697 276 626 201 b 322 424 393 201 322 276 l 322 986 l 86 986 l 86 431 b 510 -14 86 146 247 -14 z "},"Ų":{"ha":1019,"x_min":0,"x_max":0,"o":"m 697 424 b 510 201 697 276 626 201 b 322 424 393 201 322 276 l 322 986 l 86 986 l 86 431 b 479 -12 86 157 235 -1 b 415 -168 438 -58 415 -117 b 593 -331 415 -265 481 -331 b 744 -282 668 -331 714 -307 l 744 -133 b 650 -175 706 -167 679 -175 b 589 -118 614 -175 589 -153 b 681 0 589 -92 610 -44 l 635 0 b 933 431 822 44 933 194 l 933 986 l 697 986 z "},"Ů":{"ha":1019,"x_min":0,"x_max":0,"o":"m 510 1069 b 678 1238 603 1069 678 1144 b 510 1406 678 1331 603 1406 b 342 1238 417 1406 342 1331 b 510 1069 342 1144 417 1069 z m 510 1185 b 457 1238 479 1185 457 1207 b 510 1290 457 1268 479 1290 b 563 1238 540 1290 563 1268 b 510 1185 563 1207 540 1185 z m 510 -14 b 933 431 772 -14 933 146 l 933 986 l 697 986 l 697 424 b 510 201 697 276 626 201 b 322 424 393 201 322 276 l 322 986 l 86 986 l 86 431 b 510 -14 86 146 247 -14 z "},"Ũ":{"ha":1019,"x_min":0,"x_max":0,"o":"m 376 1058 b 426 1111 386 1092 399 1111 b 608 1063 475 1111 522 1063 b 794 1240 703 1063 769 1119 l 635 1290 b 586 1238 626 1257 615 1238 b 413 1286 538 1238 489 1286 b 225 1108 297 1286 242 1192 z m 510 -14 b 933 431 772 -14 933 146 l 933 986 l 697 986 l 697 424 b 510 201 697 276 626 201 b 322 424 393 201 322 276 l 322 986 l 86 986 l 86 431 b 510 -14 86 146 247 -14 z "},"V":{"ha":1001,"x_min":0,"x_max":0,"o":"m 744 986 b 508 201 574 472 522 303 b 268 986 494 301 440 471 l 10 986 l 368 0 l 638 0 l 992 986 z "},"W":{"ha":1394,"x_min":0,"x_max":0,"o":"m 1142 986 b 993 289 1051 603 1008 414 b 833 986 974 411 926 608 l 575 986 b 419 269 478 585 435 400 b 264 986 401 393 357 589 l 14 986 l 272 0 l 539 0 b 699 697 646 406 688 575 b 847 0 708 579 747 407 l 1119 0 l 1381 986 z "},"Ẃ":{"ha":1394,"x_min":0,"x_max":0,"o":"m 704 1297 l 601 1061 l 782 1061 l 940 1297 z m 1142 986 b 993 289 1051 603 1008 414 b 833 986 974 411 926 608 l 575 986 b 419 269 478 585 435 400 b 264 986 401 393 357 589 l 14 986 l 272 0 l 539 0 b 699 697 646 406 688 575 b 847 0 708 579 747 407 l 1119 0 l 1381 986 z "},"Ŵ":{"ha":1394,"x_min":0,"x_max":0,"o":"m 699 1147 b 757 1047 713 1119 732 1088 l 963 1047 l 783 1283 l 611 1283 l 432 1047 l 638 1047 b 699 1147 664 1085 683 1118 z m 1142 986 b 993 289 1051 603 1008 414 b 833 986 974 411 926 608 l 575 986 b 419 269 478 585 435 400 b 264 986 401 393 357 589 l 14 986 l 272 0 l 539 0 b 699 697 646 406 688 575 b 847 0 708 579 747 407 l 1119 0 l 1381 986 z "},"Ẅ":{"ha":1394,"x_min":0,"x_max":0,"o":"m 547 1064 b 658 1175 610 1064 658 1113 b 547 1286 658 1238 610 1286 b 436 1175 485 1286 436 1238 b 547 1064 436 1113 485 1064 z m 846 1064 b 957 1175 908 1064 957 1113 b 846 1286 957 1238 908 1286 b 735 1175 783 1286 735 1238 b 846 1064 735 1113 783 1064 z m 1142 986 b 993 289 1051 603 1008 414 b 833 986 974 411 926 608 l 575 986 b 419 269 478 585 435 400 b 264 986 401 393 357 589 l 14 986 l 272 0 l 539 0 b 699 697 646 406 688 575 b 847 0 708 579 747 407 l 1119 0 l 1381 986 z "},"Ẁ":{"ha":1394,"x_min":0,"x_max":0,"o":"m 690 1297 l 454 1297 l 613 1061 l 793 1061 z m 1142 986 b 993 289 1051 603 1008 414 b 833 986 974 411 926 608 l 575 986 b 419 269 478 585 435 400 b 264 986 401 393 357 589 l 14 986 l 272 0 l 539 0 b 699 697 646 406 688 575 b 847 0 708 579 747 407 l 1119 0 l 1381 986 z "},"X":{"ha":981,"x_min":0,"x_max":0,"o":"m 671 986 b 490 664 549 799 504 713 b 310 986 476 713 435 799 l 24 986 l 357 497 l 24 0 l 310 0 b 489 333 428 190 474 279 b 671 0 504 279 549 190 l 957 0 l 622 507 l 957 986 z "},"Y":{"ha":936,"x_min":0,"x_max":0,"o":"m 667 986 b 471 593 553 781 496 669 b 275 986 447 669 390 781 l 6 986 l 350 393 l 350 0 l 586 0 l 586 393 l 931 986 z "},"Ý":{"ha":936,"x_min":0,"x_max":0,"o":"m 475 1297 l 372 1061 l 553 1061 l 711 1297 z m 667 986 b 471 593 553 781 496 669 b 275 986 447 669 390 781 l 6 986 l 350 393 l 350 0 l 586 0 l 586 393 l 931 986 z "},"Ŷ":{"ha":936,"x_min":0,"x_max":0,"o":"m 469 1147 b 528 1047 483 1119 503 1088 l 733 1047 l 554 1283 l 382 1283 l 203 1047 l 408 1047 b 469 1147 435 1085 454 1118 z m 667 986 b 471 593 553 781 496 669 b 275 986 447 669 390 781 l 6 986 l 350 393 l 350 0 l 586 0 l 586 393 l 931 986 z "},"Ÿ":{"ha":936,"x_min":0,"x_max":0,"o":"m 318 1064 b 429 1175 381 1064 429 1113 b 318 1286 429 1238 381 1286 b 207 1175 256 1286 207 1238 b 318 1064 207 1113 256 1064 z m 617 1064 b 728 1175 679 1064 728 1113 b 617 1286 728 1238 679 1286 b 506 1175 554 1286 506 1238 b 617 1064 506 1113 554 1064 z m 667 986 b 471 593 553 781 496 669 b 275 986 447 669 390 781 l 6 986 l 350 393 l 350 0 l 586 0 l 586 393 l 931 986 z "},"Ỳ":{"ha":936,"x_min":0,"x_max":0,"o":"m 461 1297 l 225 1297 l 383 1061 l 564 1061 z m 667 986 b 471 593 553 781 496 669 b 275 986 447 669 390 781 l 6 986 l 350 393 l 350 0 l 586 0 l 586 393 l 931 986 z "},"Ỹ":{"ha":936,"x_min":0,"x_max":0,"o":"m 385 1111 b 567 1063 433 1111 481 1063 b 753 1240 661 1063 728 1119 l 593 1290 b 544 1238 585 1257 574 1238 b 371 1286 496 1238 447 1286 b 183 1108 256 1286 200 1192 l 335 1058 b 385 1111 344 1092 357 1111 z m 667 986 b 471 593 553 781 496 669 b 275 986 447 669 390 781 l 6 986 l 350 393 l 350 0 l 586 0 l 586 393 l 931 986 z "},"Z":{"ha":900,"x_min":0,"x_max":0,"o":"m 57 986 l 57 778 l 489 778 l 36 0 l 844 0 l 844 208 l 418 208 l 864 986 z "},"Ź":{"ha":900,"x_min":0,"x_max":0,"o":"m 458 1297 l 356 1061 l 536 1061 l 694 1297 z m 57 986 l 57 778 l 489 778 l 36 0 l 844 0 l 844 208 l 418 208 l 864 986 z "},"Ž":{"ha":900,"x_min":0,"x_max":0,"o":"m 717 1288 l 511 1288 b 451 1167 478 1238 460 1204 b 392 1288 443 1200 425 1235 l 186 1288 l 365 1051 l 538 1051 z m 57 986 l 57 778 l 489 778 l 36 0 l 844 0 l 844 208 l 418 208 l 864 986 z "},"Ż":{"ha":900,"x_min":0,"x_max":0,"o":"m 451 1044 b 578 1169 521 1044 578 1100 b 451 1296 578 1240 521 1296 b 325 1169 382 1296 325 1240 b 451 1044 325 1100 382 1044 z m 57 986 l 57 778 l 489 778 l 36 0 l 844 0 l 844 208 l 418 208 l 864 986 z "},"a":{"ha":919,"x_min":0,"x_max":0,"o":"m 617 646 b 394 746 563 715 472 746 b 35 368 168 746 35 583 b 382 -14 35 163 160 -14 b 617 107 493 -14 585 31 l 617 0 l 850 0 l 850 731 l 656 731 z m 443 193 b 268 365 340 193 268 264 b 443 538 268 467 340 538 b 615 365 543 538 615 467 b 443 193 615 264 543 193 z "},"á":{"ha":919,"x_min":0,"x_max":0,"o":"m 475 1042 l 372 806 l 553 806 l 711 1042 z m 617 646 b 394 746 563 715 472 746 b 35 368 168 746 35 583 b 382 -14 35 163 160 -14 b 617 107 493 -14 585 31 l 617 0 l 850 0 l 850 731 l 656 731 z m 443 193 b 268 365 340 193 268 264 b 443 538 268 467 340 538 b 615 365 543 538 615 467 b 443 193 615 264 543 193 z "},"ă":{"ha":919,"x_min":0,"x_max":0,"o":"m 468 786 b 733 1022 583 786 733 843 l 557 1022 b 468 935 557 985 536 935 b 379 1022 400 935 379 985 l 203 1022 b 468 786 203 843 353 786 z m 617 646 b 394 746 563 715 472 746 b 35 368 168 746 35 583 b 382 -14 35 163 160 -14 b 617 107 493 -14 585 31 l 617 0 l 850 0 l 850 731 l 656 731 z m 443 193 b 268 365 340 193 268 264 b 443 538 268 467 340 538 b 615 365 543 538 615 467 b 443 193 615 264 543 193 z "},"â":{"ha":919,"x_min":0,"x_max":0,"o":"m 469 892 b 528 792 483 864 503 832 l 733 792 l 554 1028 l 382 1028 l 203 792 l 408 792 b 469 892 435 829 454 863 z m 617 646 b 394 746 563 715 472 746 b 35 368 168 746 35 583 b 382 -14 35 163 160 -14 b 617 107 493 -14 585 31 l 617 0 l 850 0 l 850 731 l 656 731 z m 443 193 b 268 365 340 193 268 264 b 443 538 268 467 340 538 b 615 365 543 538 615 467 b 443 193 615 264 543 193 z "},"ä":{"ha":919,"x_min":0,"x_max":0,"o":"m 318 808 b 429 919 381 808 429 857 b 318 1031 429 982 381 1031 b 207 919 256 1031 207 982 b 318 808 207 857 256 808 z m 617 808 b 728 919 679 808 728 857 b 617 1031 728 982 679 1031 b 506 919 554 1031 506 982 b 617 808 506 857 554 808 z m 617 646 b 394 746 563 715 472 746 b 35 368 168 746 35 583 b 382 -14 35 163 160 -14 b 617 107 493 -14 585 31 l 617 0 l 850 0 l 850 731 l 656 731 z m 443 193 b 268 365 340 193 268 264 b 443 538 268 467 340 538 b 615 365 543 538 615 467 b 443 193 615 264 543 193 z "},"à":{"ha":919,"x_min":0,"x_max":0,"o":"m 461 1042 l 225 1042 l 383 806 l 564 806 z m 617 646 b 394 746 563 715 472 746 b 35 368 168 746 35 583 b 382 -14 35 163 160 -14 b 617 107 493 -14 585 31 l 617 0 l 850 0 l 850 731 l 656 731 z m 443 193 b 268 365 340 193 268 264 b 443 538 268 467 340 538 b 615 365 543 538 615 467 b 443 193 615 264 543 193 z "},"ā":{"ha":919,"x_min":0,"x_max":0,"o":"m 207 986 l 207 806 l 728 806 l 728 986 z m 617 646 b 394 746 563 715 472 746 b 35 368 168 746 35 583 b 382 -14 35 163 160 -14 b 617 107 493 -14 585 31 l 617 0 l 850 0 l 850 731 l 656 731 z m 443 193 b 268 365 340 193 268 264 b 443 538 268 467 340 538 b 615 365 543 538 615 467 b 443 193 615 264 543 193 z "},"ą":{"ha":919,"x_min":0,"x_max":0,"o":"m 774 -175 b 713 -118 738 -175 713 -153 b 804 0 713 -92 733 -44 l 850 0 l 850 731 l 656 731 l 617 646 b 394 746 563 715 472 746 b 35 368 168 746 35 583 b 382 -14 35 163 160 -14 b 617 107 493 -14 585 31 l 617 0 b 539 -168 567 -46 539 -111 b 717 -331 539 -265 604 -331 b 868 -282 792 -331 838 -307 l 868 -133 b 774 -175 829 -167 803 -175 z m 443 193 b 268 365 340 193 268 264 b 443 538 268 467 340 538 b 615 365 543 538 615 467 b 443 193 615 264 543 193 z "},"å":{"ha":919,"x_min":0,"x_max":0,"o":"m 468 814 b 636 982 561 814 636 889 b 468 1150 636 1075 561 1150 b 300 982 375 1150 300 1075 b 468 814 300 889 375 814 z m 468 1035 b 521 982 499 1035 521 1013 b 468 929 521 951 499 929 b 415 982 438 929 415 951 b 468 1035 415 1013 438 1035 z m 617 646 b 394 746 563 715 472 746 b 35 368 168 746 35 583 b 382 -14 35 163 160 -14 b 617 107 493 -14 585 31 l 617 0 l 850 0 l 850 731 l 656 731 z m 443 193 b 268 365 340 193 268 264 b 443 538 268 467 340 538 b 615 365 543 538 615 467 b 443 193 615 264 543 193 z "},"ã":{"ha":919,"x_min":0,"x_max":0,"o":"m 385 856 b 567 807 433 856 481 807 b 753 985 661 807 728 864 l 593 1035 b 544 982 585 1001 574 982 b 371 1031 496 982 447 1031 b 183 853 256 1031 200 936 l 335 803 b 385 856 344 836 357 856 z m 617 646 b 394 746 563 715 472 746 b 35 368 168 746 35 583 b 382 -14 35 163 160 -14 b 617 107 493 -14 585 31 l 617 0 l 850 0 l 850 731 l 656 731 z m 443 193 b 268 365 340 193 268 264 b 443 538 268 467 340 538 b 615 365 543 538 615 467 b 443 193 615 264 543 193 z "},"æ":{"ha":1297,"x_min":0,"x_max":0,"o":"m 883 732 b 643 653 789 732 707 703 b 368 747 583 711 494 747 b 71 694 236 747 139 722 l 71 503 b 324 553 144 533 225 553 b 503 406 433 553 497 503 b 307 467 463 444 390 467 b 25 226 149 467 25 383 b 329 -14 25 69 150 -14 b 594 96 464 -14 546 32 b 896 -28 665 18 771 -28 b 1251 222 1065 -28 1213 76 l 1050 243 b 897 163 1022 192 968 163 b 736 282 813 163 744 214 l 1263 282 b 883 732 1274 589 1106 732 z m 883 547 b 1032 433 965 547 1026 501 l 735 433 b 883 547 739 504 801 547 z m 381 154 b 261 231 314 154 261 183 b 381 308 261 278 314 308 b 503 235 447 308 501 275 b 381 154 501 188 449 154 z "},"b":{"ha":917,"x_min":0,"x_max":0,"o":"m 535 744 b 300 624 424 744 332 700 l 300 1042 l 69 1042 l 69 0 l 300 0 l 300 85 b 522 -15 354 15 444 -15 b 882 363 749 -15 882 147 b 535 744 882 568 757 744 z m 474 193 b 301 365 374 193 301 264 b 474 538 301 467 374 538 b 649 365 576 538 649 467 b 474 193 649 264 576 193 z "},"c":{"ha":710,"x_min":0,"x_max":0,"o":"m 436 -15 b 651 47 519 -15 593 6 l 650 267 b 460 193 599 219 533 193 b 271 364 350 193 271 265 b 460 538 271 464 350 538 b 650 464 533 538 599 511 l 651 683 b 436 746 593 725 519 746 b 40 365 190 746 40 588 b 436 -15 40 143 190 -15 z "},"ć":{"ha":710,"x_min":0,"x_max":0,"o":"m 497 806 l 656 1042 l 419 1042 l 317 806 z m 436 -15 b 651 47 519 -15 593 6 l 650 267 b 460 193 599 219 533 193 b 271 364 350 193 271 265 b 460 538 271 464 350 538 b 650 464 533 538 599 511 l 651 683 b 436 746 593 725 519 746 b 40 365 190 746 40 588 b 436 -15 40 143 190 -15 z "},"č":{"ha":710,"x_min":0,"x_max":0,"o":"m 678 1032 l 472 1032 b 413 911 439 982 421 949 b 353 1032 404 944 386 979 l 147 1032 l 326 796 l 499 796 z m 460 538 b 650 464 533 538 599 511 l 651 683 b 436 746 593 725 519 746 b 40 365 190 746 40 588 b 436 -15 40 143 190 -15 b 651 47 519 -15 593 6 l 650 267 b 460 193 599 219 533 193 b 271 364 350 193 271 265 b 460 538 271 464 350 538 z "},"ç":{"ha":710,"x_min":0,"x_max":0,"o":"m 650 267 b 460 193 599 219 533 193 b 271 364 350 193 271 265 b 460 538 271 464 350 538 b 650 464 533 538 599 511 l 651 683 b 436 746 593 725 519 746 b 40 365 190 746 40 588 b 329 -4 40 178 147 35 l 272 -149 b 394 -183 349 -149 394 -158 b 349 -207 394 -196 381 -207 b 257 -189 326 -207 297 -201 l 254 -310 b 363 -332 293 -325 329 -332 b 557 -192 479 -332 557 -279 b 460 -75 557 -128 515 -87 l 485 -12 b 651 47 549 -6 604 14 z "},"ċ":{"ha":710,"x_min":0,"x_max":0,"o":"m 413 789 b 539 914 482 789 539 844 b 413 1040 539 985 482 1040 b 286 914 343 1040 286 985 b 413 789 286 844 343 789 z m 436 -15 b 651 47 519 -15 593 6 l 650 267 b 460 193 599 219 533 193 b 271 364 350 193 271 265 b 460 538 271 464 350 538 b 650 464 533 538 599 511 l 651 683 b 436 746 593 725 519 746 b 40 365 190 746 40 588 b 436 -15 40 143 190 -15 z "},"d":{"ha":917,"x_min":0,"x_max":0,"o":"m 617 646 b 394 746 563 715 472 746 b 35 368 168 746 35 583 b 382 -14 35 163 160 -14 b 617 107 493 -14 585 31 l 617 0 l 847 0 l 847 1042 l 617 1042 z m 443 193 b 268 365 340 193 268 264 b 443 538 268 467 340 538 b 615 365 543 538 615 467 b 443 193 615 264 543 193 z "},"ð":{"ha":838,"x_min":0,"x_max":0,"o":"m 579 867 l 661 900 l 661 1056 l 482 983 l 433 1042 l 153 1042 l 272 897 l 131 840 l 131 685 l 368 781 l 443 690 b 372 703 421 699 396 703 b 24 351 172 703 24 585 b 415 -15 24 138 186 -15 b 811 403 643 -15 811 156 b 669 757 811 544 738 675 z m 415 201 b 253 360 322 201 253 267 b 415 519 253 454 322 519 b 582 360 513 519 582 453 b 415 201 582 267 513 201 z "},"ď":{"ha":1138,"x_min":0,"x_max":0,"o":"m 617 646 b 394 746 563 715 472 746 b 35 368 168 746 35 583 b 382 -14 35 163 160 -14 b 617 107 493 -14 585 31 l 617 0 l 847 0 l 847 1042 l 617 1042 z m 868 703 l 1049 703 l 1194 1042 l 958 1042 z m 443 193 b 268 365 340 193 268 264 b 443 538 268 467 340 538 b 615 365 543 538 615 467 b 443 193 615 264 543 193 z "},"đ":{"ha":917,"x_min":0,"x_max":0,"o":"m 847 931 l 847 1042 l 617 1042 l 617 931 l 461 931 l 461 764 l 617 764 l 617 646 b 394 746 563 715 472 746 b 35 368 168 746 35 583 b 382 -14 35 163 160 -14 b 617 107 493 -14 585 31 l 617 0 l 847 0 l 847 764 l 1003 764 l 1003 931 z m 443 193 b 268 365 340 193 268 264 b 443 538 268 467 340 538 b 615 365 543 538 615 467 b 443 193 615 264 543 193 z "},"e":{"ha":828,"x_min":0,"x_max":0,"o":"m 414 746 b 35 363 192 746 35 583 b 426 -14 35 138 197 -14 b 782 236 596 -14 743 90 l 581 257 b 428 176 553 206 499 176 b 267 296 343 176 275 228 l 793 296 b 414 746 804 603 636 746 z m 414 561 b 563 447 496 561 557 515 l 265 447 b 414 561 269 518 332 561 z "},"é":{"ha":828,"x_min":0,"x_max":0,"o":"m 422 1042 l 319 806 l 500 806 l 658 1042 z m 414 746 b 35 363 192 746 35 583 b 426 -14 35 138 197 -14 b 782 236 596 -14 743 90 l 581 257 b 428 176 553 206 499 176 b 267 296 343 176 275 228 l 793 296 b 414 746 804 603 636 746 z m 414 561 b 563 447 496 561 557 515 l 265 447 b 414 561 269 518 332 561 z "},"ě":{"ha":828,"x_min":0,"x_max":0,"o":"m 681 1032 l 475 1032 b 415 911 442 982 424 949 b 356 1032 407 944 389 979 l 150 1032 l 329 796 l 501 796 z m 414 746 b 35 363 192 746 35 583 b 426 -14 35 138 197 -14 b 782 236 596 -14 743 90 l 581 257 b 428 176 553 206 499 176 b 267 296 343 176 275 228 l 793 296 b 414 746 804 603 636 746 z m 414 561 b 563 447 496 561 557 515 l 265 447 b 414 561 269 518 332 561 z "},"ê":{"ha":828,"x_min":0,"x_max":0,"o":"m 417 892 b 475 792 431 864 450 832 l 681 792 l 501 1028 l 329 1028 l 150 792 l 356 792 b 417 892 382 829 401 863 z m 414 746 b 35 363 192 746 35 583 b 426 -14 35 138 197 -14 b 782 236 596 -14 743 90 l 581 257 b 428 176 553 206 499 176 b 267 296 343 176 275 228 l 793 296 b 414 746 804 603 636 746 z m 414 561 b 563 447 496 561 557 515 l 265 447 b 414 561 269 518 332 561 z "},"ë":{"ha":828,"x_min":0,"x_max":0,"o":"m 265 808 b 376 919 328 808 376 857 b 265 1031 376 982 328 1031 b 154 919 203 1031 154 982 b 265 808 154 857 203 808 z m 564 808 b 675 919 626 808 675 857 b 564 1031 675 982 626 1031 b 453 919 501 1031 453 982 b 564 808 453 857 501 808 z m 414 746 b 35 363 192 746 35 583 b 426 -14 35 138 197 -14 b 782 236 596 -14 743 90 l 581 257 b 428 176 553 206 499 176 b 267 296 343 176 275 228 l 793 296 b 414 746 804 603 636 746 z m 414 561 b 563 447 496 561 557 515 l 265 447 b 414 561 269 518 332 561 z "},"ė":{"ha":828,"x_min":0,"x_max":0,"o":"m 415 789 b 542 914 485 789 542 844 b 415 1040 542 985 485 1040 b 289 914 346 1040 289 985 b 415 789 289 844 346 789 z m 414 746 b 35 363 192 746 35 583 b 426 -14 35 138 197 -14 b 782 236 596 -14 743 90 l 581 257 b 428 176 553 206 499 176 b 267 296 343 176 275 228 l 793 296 b 414 746 804 603 636 746 z m 414 561 b 563 447 496 561 557 515 l 265 447 b 414 561 269 518 332 561 z "},"è":{"ha":828,"x_min":0,"x_max":0,"o":"m 408 1042 l 172 1042 l 331 806 l 511 806 z m 414 746 b 35 363 192 746 35 583 b 426 -14 35 138 197 -14 b 782 236 596 -14 743 90 l 581 257 b 428 176 553 206 499 176 b 267 296 343 176 275 228 l 793 296 b 414 746 804 603 636 746 z m 414 561 b 563 447 496 561 557 515 l 265 447 b 414 561 269 518 332 561 z "},"ē":{"ha":828,"x_min":0,"x_max":0,"o":"m 154 986 l 154 806 l 675 806 l 675 986 z m 414 746 b 35 363 192 746 35 583 b 426 -14 35 138 197 -14 b 782 236 596 -14 743 90 l 581 257 b 428 176 553 206 499 176 b 267 296 343 176 275 228 l 793 296 b 414 746 804 603 636 746 z m 414 561 b 563 447 496 561 557 515 l 265 447 b 414 561 269 518 332 561 z "},"ę":{"ha":828,"x_min":0,"x_max":0,"o":"m 414 746 b 35 363 192 746 35 583 b 336 -6 35 168 156 29 b 264 -168 289 -51 264 -114 b 442 -331 264 -265 329 -331 b 593 -282 517 -331 563 -307 l 593 -133 b 499 -175 554 -167 528 -175 b 438 -118 463 -175 438 -153 b 528 -1 438 -92 458 -46 b 782 236 651 31 751 121 l 581 257 b 428 176 553 206 499 176 b 267 296 343 176 275 228 l 793 296 b 414 746 804 603 636 746 z m 414 561 b 563 447 496 561 557 515 l 265 447 b 414 561 269 518 332 561 z "},"ẽ":{"ha":828,"x_min":0,"x_max":0,"o":"m 332 856 b 514 807 381 856 428 807 b 700 985 608 807 675 864 l 540 1035 b 492 982 532 1001 521 982 b 318 1031 443 982 394 1031 b 131 853 203 1031 147 936 l 282 803 b 332 856 292 836 304 856 z m 414 746 b 35 363 192 746 35 583 b 426 -14 35 138 197 -14 b 782 236 596 -14 743 90 l 581 257 b 428 176 553 206 499 176 b 267 296 343 176 275 228 l 793 296 b 414 746 804 603 636 746 z m 414 561 b 563 447 496 561 557 515 l 265 447 b 414 561 269 518 332 561 z "},"ə":{"ha":828,"x_min":0,"x_max":0,"o":"m 401 744 b 46 494 232 744 85 640 l 247 474 b 400 554 275 525 329 554 b 561 435 485 554 553 503 l 35 435 b 414 -15 24 128 192 -15 b 793 368 636 -15 793 147 b 401 744 793 593 631 744 z m 414 169 b 265 283 332 169 271 215 l 563 283 b 414 169 558 213 496 169 z "},"f":{"ha":568,"x_min":0,"x_max":0,"o":"m 451 861 b 540 849 478 861 508 857 l 540 1033 b 407 1054 504 1044 457 1054 b 122 756 269 1054 122 983 l 122 731 l 36 731 l 36 550 l 122 550 l 122 0 l 353 0 l 353 550 l 540 550 l 540 731 l 351 731 b 451 861 342 831 385 861 z "},"g":{"ha":917,"x_min":0,"x_max":0,"o":"m 617 644 l 617 646 b 394 746 563 715 472 746 b 35 368 168 746 35 583 b 382 -14 35 163 160 -14 b 617 107 493 -14 585 31 l 617 79 b 394 -143 617 -75 542 -143 b 121 -62 275 -143 186 -97 l 121 -260 b 443 -343 185 -310 331 -343 b 847 79 714 -343 847 -171 l 847 731 l 660 731 z m 443 193 b 268 365 340 193 268 264 b 443 538 268 467 340 538 b 615 365 543 538 615 467 b 443 193 615 264 543 193 z "},"ğ":{"ha":917,"x_min":0,"x_max":0,"o":"m 468 786 b 733 1022 583 786 733 843 l 557 1022 b 468 935 557 985 536 935 b 379 1022 400 935 379 985 l 203 1022 b 468 786 203 843 353 786 z m 617 644 l 617 646 b 394 746 563 715 472 746 b 35 368 168 746 35 583 b 382 -14 35 163 160 -14 b 617 107 493 -14 585 31 l 617 79 b 394 -143 617 -75 542 -143 b 121 -62 275 -143 186 -97 l 121 -260 b 443 -343 185 -310 331 -343 b 847 79 714 -343 847 -171 l 847 731 l 660 731 z m 443 193 b 268 365 340 193 268 264 b 443 538 268 467 340 538 b 615 365 543 538 615 467 b 443 193 615 264 543 193 z "},"ģ":{"ha":917,"x_min":0,"x_max":0,"o":"m 488 1038 l 340 810 l 576 810 l 668 1038 z m 617 644 l 617 646 b 394 746 563 715 472 746 b 35 368 168 746 35 583 b 382 -14 35 163 160 -14 b 617 107 493 -14 585 31 l 617 79 b 394 -143 617 -75 542 -143 b 121 -62 275 -143 186 -97 l 121 -260 b 443 -343 185 -310 331 -343 b 847 79 714 -343 847 -171 l 847 731 l 660 731 z m 443 193 b 268 365 340 193 268 264 b 443 538 268 467 340 538 b 615 365 543 538 615 467 b 443 193 615 264 543 193 z "},"ġ":{"ha":917,"x_min":0,"x_max":0,"o":"m 468 789 b 594 914 538 789 594 844 b 468 1040 594 985 538 1040 b 342 914 399 1040 342 985 b 468 789 342 844 399 789 z m 617 644 l 617 646 b 394 746 563 715 472 746 b 35 368 168 746 35 583 b 382 -14 35 163 160 -14 b 617 107 493 -14 585 31 l 617 79 b 394 -143 617 -75 542 -143 b 121 -62 275 -143 186 -97 l 121 -260 b 443 -343 185 -310 331 -343 b 847 79 714 -343 847 -171 l 847 731 l 660 731 z m 443 193 b 268 365 340 193 268 264 b 443 538 268 467 340 538 b 615 365 543 538 615 467 b 443 193 615 264 543 193 z "},"h":{"ha":869,"x_min":0,"x_max":0,"o":"m 511 746 b 300 643 414 746 344 708 l 300 1042 l 69 1042 l 69 0 l 300 0 l 300 386 b 439 549 300 501 361 549 b 574 388 503 549 574 517 l 574 0 l 807 0 l 807 425 b 511 746 807 647 664 746 z "},"ħ":{"ha":860,"x_min":0,"x_max":0,"o":"m 511 746 b 300 643 414 746 344 708 l 300 764 l 456 764 l 456 931 l 300 931 l 300 1042 l 69 1042 l 69 931 l -86 931 l -86 764 l 69 764 l 69 0 l 300 0 l 300 386 b 439 549 300 501 361 549 b 574 388 503 549 574 517 l 574 0 l 807 0 l 807 425 b 511 746 807 647 664 746 z "},"i":{"ha":369,"x_min":0,"x_max":0,"o":"m 185 789 b 311 914 254 789 311 844 b 185 1040 311 985 254 1040 b 58 914 115 1040 58 985 b 185 789 58 844 115 789 z m 69 731 l 69 0 l 300 0 l 300 731 z "},"ı":{"ha":369,"x_min":0,"x_max":0,"o":"m 69 731 l 69 0 l 300 0 l 300 731 z "},"í":{"ha":369,"x_min":0,"x_max":0,"o":"m 269 806 l 428 1042 l 192 1042 l 89 806 z m 69 731 l 69 0 l 300 0 l 300 731 z "},"î":{"ha":369,"x_min":0,"x_max":0,"o":"m 186 892 b 244 792 200 864 219 832 l 450 792 l 271 1028 l 99 1028 l -81 792 l 125 792 b 186 892 151 829 171 863 z m 300 0 l 300 731 l 69 731 l 69 0 z "},"ï":{"ha":369,"x_min":0,"x_max":0,"o":"m 35 808 b 146 919 97 808 146 857 b 35 1031 146 982 97 1031 b -76 919 -28 1031 -76 982 b 35 808 -76 857 -28 808 z m 333 808 b 444 919 396 808 444 857 b 333 1031 444 982 396 1031 b 222 919 271 1031 222 982 b 333 808 222 857 271 808 z m 69 731 l 69 0 l 300 0 l 300 731 z "},"ì":{"ha":369,"x_min":0,"x_max":0,"o":"m 178 1042 l -58 1042 l 100 806 l 281 806 z m 69 731 l 69 0 l 300 0 l 300 731 z "},"ī":{"ha":369,"x_min":0,"x_max":0,"o":"m -76 806 l 444 806 l 444 986 l -76 986 z m 69 731 l 69 0 l 300 0 l 300 731 z "},"į":{"ha":369,"x_min":0,"x_max":0,"o":"m 185 789 b 311 914 254 789 311 844 b 185 1040 311 985 254 1040 b 58 914 115 1040 58 985 b 185 789 58 844 115 789 z m 226 -175 b 165 -118 190 -175 165 -153 b 257 0 165 -92 186 -44 l 300 0 l 300 731 l 69 731 l 69 0 b -8 -168 19 -46 -8 -111 b 169 -331 -8 -265 57 -331 b 321 -282 244 -331 290 -307 l 321 -133 b 226 -175 282 -167 256 -175 z "},"j":{"ha":371,"x_min":0,"x_max":0,"o":"m 186 789 b 313 914 256 789 313 844 b 186 1040 313 985 256 1040 b 60 914 117 1040 60 985 b 186 789 60 844 117 789 z m 69 731 l 69 -319 l 301 -319 l 301 731 z "},"ȷ":{"ha":371,"x_min":0,"x_max":0,"o":"m 69 731 l 69 -319 l 301 -319 l 301 731 z "},"k":{"ha":825,"x_min":0,"x_max":0,"o":"m 496 388 l 800 731 l 531 731 l 289 450 b 300 1042 300 539 300 685 l 69 1042 l 69 0 l 300 0 b 290 322 300 154 297 251 l 532 0 l 803 0 z "},"ķ":{"ha":825,"x_min":0,"x_max":0,"o":"m 800 731 l 531 731 l 289 450 b 300 1042 300 539 300 685 l 69 1042 l 69 0 l 300 0 b 290 322 300 154 297 251 l 532 0 l 803 0 l 496 388 z m 374 -321 l 510 -50 l 274 -50 l 193 -321 z "},"ĸ":{"ha":797,"x_min":0,"x_max":0,"o":"m 496 388 l 800 731 l 531 731 l 294 456 b 300 731 300 506 300 585 l 69 731 l 69 0 l 300 0 b 290 322 300 154 297 251 l 532 0 l 803 0 z "},"l":{"ha":369,"x_min":0,"x_max":0,"o":"m 69 1042 l 69 0 l 300 0 l 300 1042 z "},"ĺ":{"ha":369,"x_min":0,"x_max":0,"o":"m 275 1117 l 433 1353 l 197 1353 l 94 1117 z m 69 1042 l 69 0 l 300 0 l 300 1042 z "},"ľ":{"ha":556,"x_min":0,"x_max":0,"o":"m 35 1042 l 35 0 l 265 0 l 265 1042 z m 286 703 l 467 703 l 613 1042 l 376 1042 z "},"ļ":{"ha":369,"x_min":0,"x_max":0,"o":"m 69 1042 l 69 0 l 300 0 l 300 1042 z m -11 -321 l 169 -321 l 306 -50 l 69 -50 z "},"ŀ":{"ha":647,"x_min":0,"x_max":0,"o":"m 69 1042 l 69 0 l 300 0 l 300 1042 z m 508 372 b 629 493 575 372 629 425 b 508 613 629 560 575 613 b 388 493 442 613 388 560 b 508 372 388 425 442 372 z "},"ł":{"ha":458,"x_min":0,"x_max":0,"o":"m 349 713 l 349 1042 l 118 1042 l 118 568 l 17 504 l 17 294 l 118 358 l 118 0 l 349 0 l 349 503 l 451 567 l 451 776 z "},"m":{"ha":1289,"x_min":0,"x_max":0,"o":"m 946 746 b 711 643 836 746 761 704 b 501 746 664 710 589 746 b 299 646 406 746 340 706 l 257 731 l 69 731 l 69 0 l 300 0 l 300 401 b 421 549 300 510 358 549 b 533 401 479 549 533 514 l 533 0 l 764 0 l 764 401 b 883 549 764 510 821 549 b 996 401 943 549 996 514 l 996 0 l 1226 0 l 1226 464 b 946 746 1226 640 1113 746 z "},"n":{"ha":872,"x_min":0,"x_max":0,"o":"m 514 746 b 303 643 417 746 347 708 l 303 646 l 264 731 l 69 731 l 69 0 l 303 0 l 303 386 b 442 549 303 501 364 549 b 576 388 506 549 576 517 l 576 0 l 810 0 l 810 425 b 514 746 810 647 667 746 z "},"ń":{"ha":872,"x_min":0,"x_max":0,"o":"m 446 1042 l 343 806 l 524 806 l 682 1042 z m 514 746 b 303 643 417 746 347 708 l 303 646 l 264 731 l 69 731 l 69 0 l 303 0 l 303 386 b 442 549 303 501 364 549 b 576 388 506 549 576 517 l 576 0 l 810 0 l 810 425 b 514 746 810 647 667 746 z "},"ň":{"ha":872,"x_min":0,"x_max":0,"o":"m 704 1032 l 499 1032 b 439 911 465 982 447 949 b 379 1032 431 944 413 979 l 174 1032 l 353 796 l 525 796 z m 514 746 b 303 643 417 746 347 708 l 303 646 l 264 731 l 69 731 l 69 0 l 303 0 l 303 386 b 442 549 303 501 364 549 b 576 388 506 549 576 517 l 576 0 l 810 0 l 810 425 b 514 746 810 647 667 746 z "},"ņ":{"ha":872,"x_min":0,"x_max":0,"o":"m 514 746 b 303 643 417 746 347 708 l 303 646 l 264 731 l 69 731 l 69 0 l 303 0 l 303 386 b 442 549 303 501 364 549 b 576 388 506 549 576 517 l 576 0 l 810 0 l 810 425 b 514 746 810 647 667 746 z m 426 -321 l 563 -50 l 326 -50 l 246 -321 z "},"ɲ":{"ha":872,"x_min":0,"x_max":0,"o":"m 514 746 b 303 643 417 746 347 708 l 303 646 l 264 731 l 69 731 l 69 -319 l 303 -319 l 303 386 b 442 549 303 501 364 549 b 576 388 506 549 576 517 l 576 0 l 810 0 l 810 425 b 514 746 810 647 667 746 z "},"ñ":{"ha":872,"x_min":0,"x_max":0,"o":"m 356 856 b 538 807 404 856 451 807 b 724 985 632 807 699 864 l 564 1035 b 515 982 556 1001 544 982 b 342 1031 467 982 418 1031 b 154 853 226 1031 171 936 l 306 803 b 356 856 315 836 328 856 z m 514 746 b 303 643 417 746 347 708 l 303 646 l 264 731 l 69 731 l 69 0 l 303 0 l 303 386 b 442 549 303 501 364 549 b 576 388 506 549 576 517 l 576 0 l 810 0 l 810 425 b 514 746 810 647 667 746 z "},"ŋ":{"ha":872,"x_min":0,"x_max":0,"o":"m 514 746 b 303 643 417 746 347 708 l 303 646 l 264 731 l 69 731 l 69 0 l 303 0 l 303 386 b 442 549 303 501 364 549 b 576 388 506 549 576 517 l 576 -319 l 810 -319 l 810 425 b 514 746 810 647 667 746 z "},"o":{"ha":864,"x_min":0,"x_max":0,"o":"m 431 -14 b 829 365 664 -14 829 143 b 431 746 829 588 664 746 b 35 365 199 746 35 588 b 431 -14 35 143 199 -14 z m 431 194 b 258 367 331 194 258 265 b 431 539 258 468 331 539 b 606 367 533 539 606 468 b 431 194 606 265 533 194 z "},"ó":{"ha":864,"x_min":0,"x_max":0,"o":"m 515 806 l 674 1042 l 438 1042 l 335 806 z m 431 -14 b 829 365 664 -14 829 143 b 431 746 829 588 664 746 b 35 365 199 746 35 588 b 431 -14 35 143 199 -14 z m 431 194 b 258 367 331 194 258 265 b 431 539 258 468 331 539 b 606 367 533 539 606 468 b 431 194 606 265 533 194 z "},"ô":{"ha":864,"x_min":0,"x_max":0,"o":"m 432 892 b 490 792 446 864 465 832 l 696 792 l 517 1028 l 344 1028 l 165 792 l 371 792 b 432 892 397 829 417 863 z m 431 746 b 35 365 199 746 35 588 b 431 -14 35 143 199 -14 b 829 365 664 -14 829 143 b 431 746 829 588 664 746 z m 431 194 b 258 367 331 194 258 265 b 431 539 258 468 331 539 b 606 367 533 539 606 468 b 431 194 606 265 533 194 z "},"ö":{"ha":864,"x_min":0,"x_max":0,"o":"m 281 808 b 392 919 343 808 392 857 b 281 1031 392 982 343 1031 b 169 919 218 1031 169 982 b 281 808 169 857 218 808 z m 579 808 b 690 919 642 808 690 857 b 579 1031 690 982 642 1031 b 468 919 517 1031 468 982 b 579 808 468 857 517 808 z m 431 -14 b 829 365 664 -14 829 143 b 431 746 829 588 664 746 b 35 365 199 746 35 588 b 431 -14 35 143 199 -14 z m 431 194 b 258 367 331 194 258 265 b 431 539 258 468 331 539 b 606 367 533 539 606 468 b 431 194 606 265 533 194 z "},"ò":{"ha":864,"x_min":0,"x_max":0,"o":"m 424 1042 l 188 1042 l 346 806 l 526 806 z m 431 -14 b 829 365 664 -14 829 143 b 431 746 829 588 664 746 b 35 365 199 746 35 588 b 431 -14 35 143 199 -14 z m 431 194 b 258 367 331 194 258 265 b 431 539 258 468 331 539 b 606 367 533 539 606 468 b 431 194 606 265 533 194 z "},"ő":{"ha":864,"x_min":0,"x_max":0,"o":"m 404 806 l 563 1042 l 326 1042 l 224 806 z m 660 806 l 818 1042 l 582 1042 l 479 806 z m 431 -14 b 829 365 664 -14 829 143 b 431 746 829 588 664 746 b 35 365 199 746 35 588 b 431 -14 35 143 199 -14 z m 431 194 b 258 367 331 194 258 265 b 431 539 258 468 331 539 b 606 367 533 539 606 468 b 431 194 606 265 533 194 z "},"ō":{"ha":864,"x_min":0,"x_max":0,"o":"m 169 806 l 690 806 l 690 986 l 169 986 z m 431 -14 b 829 365 664 -14 829 143 b 431 746 829 588 664 746 b 35 365 199 746 35 588 b 431 -14 35 143 199 -14 z m 431 194 b 258 367 331 194 258 265 b 431 539 258 468 331 539 b 606 367 533 539 606 468 b 431 194 606 265 533 194 z "},"ø":{"ha":864,"x_min":0,"x_max":0,"o":"m 631 772 l 590 718 b 431 746 542 736 489 746 b 35 365 199 746 35 588 b 129 110 35 264 69 175 l 14 -42 l 222 -42 l 265 17 b 431 -14 315 -3 371 -14 b 829 365 664 -14 829 143 b 729 628 829 469 793 561 l 839 772 z m 258 367 b 431 539 258 468 331 539 b 453 538 438 539 446 539 l 271 297 b 258 367 263 318 258 342 z m 606 367 b 431 194 606 265 533 194 b 403 196 421 194 411 194 l 590 443 b 606 367 600 421 606 394 z "},"õ":{"ha":864,"x_min":0,"x_max":0,"o":"m 297 803 b 347 856 307 836 319 856 b 529 807 396 856 443 807 b 715 985 624 807 690 864 l 556 1035 b 507 982 547 1001 536 982 b 333 1031 458 982 410 1031 b 146 853 218 1031 163 936 z m 431 -14 b 829 365 664 -14 829 143 b 431 746 829 588 664 746 b 35 365 199 746 35 588 b 431 -14 35 143 199 -14 z m 431 194 b 258 367 331 194 258 265 b 431 539 258 468 331 539 b 606 367 533 539 606 468 b 431 194 606 265 533 194 z "},"œ":{"ha":1400,"x_min":0,"x_max":0,"o":"m 986 746 b 717 640 876 746 783 707 b 431 746 646 707 547 746 b 35 365 199 746 35 588 b 431 -14 35 143 199 -14 b 715 90 546 -14 646 25 b 999 -14 785 25 883 -14 b 1354 236 1168 -14 1315 90 l 1153 257 b 1000 176 1125 206 1071 176 b 839 296 915 176 847 228 l 1365 296 b 986 746 1376 603 1208 746 z m 986 561 b 1135 447 1068 561 1129 515 l 838 447 b 986 561 842 518 904 561 z m 431 194 b 258 367 331 194 258 265 b 431 539 258 468 331 539 b 606 367 533 539 606 468 b 431 194 606 265 533 194 z "},"p":{"ha":917,"x_min":0,"x_max":0,"o":"m 535 744 b 300 624 424 744 332 700 l 300 628 l 258 731 l 69 731 l 69 -319 l 300 -319 l 300 85 b 522 -15 354 15 444 -15 b 882 363 749 -15 882 147 b 535 744 882 568 757 744 z m 474 193 b 301 365 374 193 301 264 b 474 538 301 467 374 538 b 649 365 576 538 649 467 b 474 193 649 264 576 193 z "},"þ":{"ha":915,"x_min":0,"x_max":0,"o":"m 533 744 b 300 626 424 744 333 701 l 300 1042 l 69 1042 l 69 -319 l 300 -319 l 300 83 b 521 -15 354 15 443 -15 b 881 363 747 -15 881 147 b 533 744 881 568 756 744 z m 472 193 b 300 365 372 193 300 264 b 472 538 300 467 372 538 b 647 365 575 538 647 467 b 472 193 647 264 575 193 z "},"q":{"ha":917,"x_min":0,"x_max":0,"o":"m 617 646 b 394 746 563 715 472 746 b 35 368 168 746 35 583 b 382 -14 35 163 160 -14 b 617 107 493 -14 585 31 l 617 -319 l 847 -319 l 847 731 l 658 731 z m 443 193 b 268 365 340 193 268 264 b 443 538 268 467 340 538 b 615 365 543 538 615 467 b 443 193 615 264 543 193 z "},"r":{"ha":540,"x_min":0,"x_max":0,"o":"m 257 731 l 69 731 l 69 0 l 300 0 l 300 404 b 501 535 300 513 371 549 l 503 732 b 299 653 397 746 336 710 z "},"ŕ":{"ha":540,"x_min":0,"x_max":0,"o":"m 253 1042 l 150 806 l 331 806 l 489 1042 z m 257 731 l 69 731 l 69 0 l 300 0 l 300 404 b 501 535 300 513 371 549 l 503 732 b 299 653 397 746 336 710 z "},"ř":{"ha":540,"x_min":0,"x_max":0,"o":"m 511 1032 l 306 1032 b 246 911 272 982 254 949 b 186 1032 238 944 219 979 l -19 1032 l 160 796 l 332 796 z m 257 731 l 69 731 l 69 0 l 300 0 l 300 404 b 501 535 300 513 371 549 l 503 732 b 299 653 397 746 336 710 z "},"ŗ":{"ha":540,"x_min":0,"x_max":0,"o":"m 257 731 l 69 731 l 69 0 l 300 0 l 300 404 b 501 535 300 513 371 549 l 503 732 b 299 653 397 746 336 710 z m 233 -321 l 369 -50 l 133 -50 l 53 -321 z "},"s":{"ha":731,"x_min":0,"x_max":0,"o":"m 374 -14 b 703 225 563 -14 703 72 b 279 529 703 510 279 429 b 358 574 279 560 318 574 b 461 499 422 574 456 539 l 681 506 b 361 747 679 635 553 747 b 56 513 196 747 56 661 b 471 214 56 238 471 314 b 381 167 471 183 432 167 b 253 253 307 167 256 204 l 28 244 b 374 -14 31 61 197 -14 z "},"ś":{"ha":731,"x_min":0,"x_max":0,"o":"m 453 806 l 611 1042 l 375 1042 l 272 806 z m 374 -14 b 703 225 563 -14 703 72 b 279 529 703 510 279 429 b 358 574 279 560 318 574 b 461 499 422 574 456 539 l 681 506 b 361 747 679 635 553 747 b 56 513 196 747 56 661 b 471 214 56 238 471 314 b 381 167 471 183 432 167 b 253 253 307 167 256 204 l 28 244 b 374 -14 31 61 197 -14 z "},"š":{"ha":731,"x_min":0,"x_max":0,"o":"m 633 1032 l 428 1032 b 368 911 394 982 376 949 b 308 1032 360 944 342 979 l 103 1032 l 282 796 l 454 796 z m 279 529 b 358 574 279 560 318 574 b 461 499 422 574 456 539 l 681 506 b 361 747 679 635 553 747 b 56 513 196 747 56 661 b 471 214 56 238 471 314 b 381 167 471 183 432 167 b 253 253 307 167 256 204 l 28 244 b 374 -14 31 61 197 -14 b 703 225 563 -14 703 72 b 279 529 703 510 279 429 z "},"ş":{"ha":731,"x_min":0,"x_max":0,"o":"m 703 225 b 279 529 703 510 279 429 b 358 574 279 560 318 574 b 461 499 422 574 456 539 l 681 506 b 361 747 679 635 553 747 b 56 513 196 747 56 661 b 471 214 56 238 471 314 b 381 167 471 183 432 167 b 253 253 307 167 256 204 l 28 244 b 283 -7 31 93 144 15 l 228 -149 b 350 -183 304 -149 350 -158 b 304 -207 350 -196 336 -207 b 213 -189 282 -207 253 -201 l 210 -310 b 318 -332 249 -325 285 -332 b 513 -192 435 -332 513 -279 b 415 -75 513 -128 471 -87 l 442 -10 b 703 225 596 8 703 92 z "},"ș":{"ha":731,"x_min":0,"x_max":0,"o":"m 374 -14 b 703 225 563 -14 703 72 b 279 529 703 510 279 429 b 358 574 279 560 318 574 b 461 499 422 574 456 539 l 681 506 b 361 747 679 635 553 747 b 56 513 196 747 56 661 b 471 214 56 238 471 314 b 381 167 471 183 432 167 b 253 253 307 167 256 204 l 28 244 b 374 -14 31 61 197 -14 z m 175 -321 l 356 -321 l 492 -50 l 256 -50 z "},"ß":{"ha":919,"x_min":0,"x_max":0,"o":"m 717 583 b 786 760 765 626 786 694 b 440 1040 786 897 682 1040 b 69 676 167 1040 69 861 l 69 0 l 300 0 l 300 676 b 439 825 300 778 363 825 b 556 724 517 825 556 779 b 460 625 556 674 522 625 l 450 625 l 450 439 l 474 439 b 669 310 597 439 669 388 b 551 213 669 250 628 213 b 401 265 497 213 450 231 l 401 44 b 583 -4 444 14 507 -4 b 900 306 800 -4 900 151 b 717 583 900 444 829 549 z "},"t":{"ha":593,"x_min":0,"x_max":0,"o":"m 390 731 l 390 947 l 160 947 l 160 731 l 36 731 l 36 550 l 160 550 l 160 0 l 390 0 l 390 550 l 565 550 l 565 731 z "},"ŧ":{"ha":593,"x_min":0,"x_max":0,"o":"m 565 731 l 390 731 l 390 947 l 160 947 l 160 731 l 36 731 l 36 550 l 160 550 l 160 389 l 39 389 l 39 222 l 160 222 l 160 0 l 390 0 l 390 222 l 558 222 l 558 389 l 390 389 l 390 550 l 565 550 z "},"ť":{"ha":546,"x_min":0,"x_max":0,"o":"m 443 800 l 624 800 l 769 1139 l 533 1139 z m 160 947 l 160 731 l 36 731 l 36 550 l 160 550 l 160 0 l 390 0 l 390 550 l 565 550 l 565 731 l 390 731 l 390 947 z "},"ţ":{"ha":593,"x_min":0,"x_max":0,"o":"m 390 550 l 565 550 l 565 731 l 390 731 l 390 947 l 160 947 l 160 731 l 36 731 l 36 550 l 160 550 l 160 0 l 190 0 l 132 -149 b 254 -183 208 -149 254 -158 b 208 -207 254 -196 240 -207 b 117 -189 186 -207 157 -201 l 114 -310 b 222 -332 153 -325 189 -332 b 417 -192 339 -332 417 -279 b 319 -75 417 -128 375 -87 l 350 0 l 390 0 z "},"ț":{"ha":593,"x_min":0,"x_max":0,"o":"m 390 947 l 160 947 l 160 731 l 36 731 l 36 550 l 160 550 l 160 0 l 390 0 l 390 550 l 565 550 l 565 731 l 390 731 z m 260 -321 l 396 -50 l 160 -50 l 79 -321 z "},"u":{"ha":869,"x_min":0,"x_max":0,"o":"m 567 344 b 428 182 567 229 506 182 b 293 343 364 182 293 214 l 293 731 l 63 731 l 63 306 b 356 -15 63 83 204 -15 b 567 88 453 -15 522 22 l 567 85 l 606 0 l 800 0 l 800 731 l 567 731 z "},"ú":{"ha":869,"x_min":0,"x_max":0,"o":"m 438 1042 l 335 806 l 515 806 l 674 1042 z m 567 344 b 428 182 567 229 506 182 b 293 343 364 182 293 214 l 293 731 l 63 731 l 63 306 b 356 -15 63 83 204 -15 b 567 88 453 -15 522 22 l 567 85 l 606 0 l 800 0 l 800 731 l 567 731 z "},"û":{"ha":869,"x_min":0,"x_max":0,"o":"m 432 892 b 490 792 446 864 465 832 l 696 792 l 517 1028 l 344 1028 l 165 792 l 371 792 b 432 892 397 829 417 863 z m 567 344 b 428 182 567 229 506 182 b 293 343 364 182 293 214 l 293 731 l 63 731 l 63 306 b 356 -15 63 83 204 -15 b 567 88 453 -15 522 22 l 567 85 l 606 0 l 800 0 l 800 731 l 567 731 z "},"ü":{"ha":869,"x_min":0,"x_max":0,"o":"m 281 808 b 392 919 343 808 392 857 b 281 1031 392 982 343 1031 b 169 919 218 1031 169 982 b 281 808 169 857 218 808 z m 579 808 b 690 919 642 808 690 857 b 579 1031 690 982 642 1031 b 468 919 517 1031 468 982 b 579 808 468 857 517 808 z m 567 344 b 428 182 567 229 506 182 b 293 343 364 182 293 214 l 293 731 l 63 731 l 63 306 b 356 -15 63 83 204 -15 b 567 88 453 -15 522 22 l 567 85 l 606 0 l 800 0 l 800 731 l 567 731 z "},"ù":{"ha":869,"x_min":0,"x_max":0,"o":"m 424 1042 l 188 1042 l 346 806 l 526 806 z m 567 344 b 428 182 567 229 506 182 b 293 343 364 182 293 214 l 293 731 l 63 731 l 63 306 b 356 -15 63 83 204 -15 b 567 88 453 -15 522 22 l 567 85 l 606 0 l 800 0 l 800 731 l 567 731 z "},"ű":{"ha":869,"x_min":0,"x_max":0,"o":"m 326 1042 l 224 806 l 404 806 l 563 1042 z m 818 1042 l 582 1042 l 479 806 l 660 806 z m 567 344 b 428 182 567 229 506 182 b 293 343 364 182 293 214 l 293 731 l 63 731 l 63 306 b 356 -15 63 83 204 -15 b 567 88 453 -15 522 22 l 567 85 l 606 0 l 800 0 l 800 731 l 567 731 z "},"ū":{"ha":869,"x_min":0,"x_max":0,"o":"m 169 986 l 169 806 l 690 806 l 690 986 z m 567 344 b 428 182 567 229 506 182 b 293 343 364 182 293 214 l 293 731 l 63 731 l 63 306 b 356 -15 63 83 204 -15 b 567 88 453 -15 522 22 l 567 85 l 606 0 l 800 0 l 800 731 l 567 731 z "},"ų":{"ha":869,"x_min":0,"x_max":0,"o":"m 763 -175 b 701 -118 726 -175 701 -153 b 793 0 701 -92 722 -44 l 800 0 l 800 731 l 567 731 l 567 344 b 428 182 567 229 506 182 b 293 343 364 182 293 214 l 293 731 l 63 731 l 63 306 b 356 -15 63 83 204 -15 b 567 88 453 -15 522 22 l 567 85 l 606 0 b 528 -168 556 -46 528 -111 b 706 -331 528 -265 593 -331 b 857 -282 781 -331 826 -307 l 857 -133 b 763 -175 818 -167 792 -175 z "},"ů":{"ha":869,"x_min":0,"x_max":0,"o":"m 431 814 b 599 982 524 814 599 889 b 431 1150 599 1075 524 1150 b 263 982 338 1150 263 1075 b 431 814 263 889 338 814 z m 431 1035 b 483 982 461 1035 483 1013 b 431 929 483 951 461 929 b 378 982 400 929 378 951 b 431 1035 378 1013 400 1035 z m 567 344 b 428 182 567 229 506 182 b 293 343 364 182 293 214 l 293 731 l 63 731 l 63 306 b 356 -15 63 83 204 -15 b 567 88 453 -15 522 22 l 567 85 l 606 0 l 800 0 l 800 731 l 567 731 z "},"ũ":{"ha":869,"x_min":0,"x_max":0,"o":"m 347 856 b 529 807 396 856 443 807 b 715 985 624 807 690 864 l 556 1035 b 507 982 547 1001 536 982 b 333 1031 458 982 410 1031 b 146 853 218 1031 163 936 l 297 803 b 347 856 307 836 319 856 z m 567 344 b 428 182 567 229 506 182 b 293 343 364 182 293 214 l 293 731 l 63 731 l 63 306 b 356 -15 63 83 204 -15 b 567 88 453 -15 522 22 l 567 85 l 606 0 l 800 0 l 800 731 l 567 731 z "},"v":{"ha":826,"x_min":0,"x_max":0,"o":"m 568 731 b 424 226 469 432 435 315 b 265 731 407 307 369 429 l 14 731 l 306 0 l 540 0 l 813 731 z "},"w":{"ha":1183,"x_min":0,"x_max":0,"o":"m 921 731 b 819 272 853 449 828 344 b 714 731 811 357 788 450 l 483 731 b 372 256 406 436 381 336 b 269 731 365 335 342 435 l 28 731 l 240 0 l 475 0 b 594 468 557 288 585 393 b 707 0 601 393 628 289 l 942 0 l 1156 731 z "},"ẃ":{"ha":1183,"x_min":0,"x_max":0,"o":"m 599 1042 l 496 806 l 676 806 l 835 1042 z m 921 731 b 819 272 853 449 828 344 b 714 731 811 357 788 450 l 483 731 b 372 256 406 436 381 336 b 269 731 365 335 342 435 l 28 731 l 240 0 l 475 0 b 594 468 557 288 585 393 b 707 0 601 393 628 289 l 942 0 l 1156 731 z "},"ŵ":{"ha":1183,"x_min":0,"x_max":0,"o":"m 593 892 b 651 792 607 864 626 832 l 857 792 l 678 1028 l 506 1028 l 326 792 l 532 792 b 593 892 558 829 578 863 z m 921 731 b 819 272 853 449 828 344 b 714 731 811 357 788 450 l 483 731 b 372 256 406 436 381 336 b 269 731 365 335 342 435 l 28 731 l 240 0 l 475 0 b 594 468 557 288 585 393 b 707 0 601 393 628 289 l 942 0 l 1156 731 z "},"ẅ":{"ha":1183,"x_min":0,"x_max":0,"o":"m 442 808 b 553 919 504 808 553 857 b 442 1031 553 982 504 1031 b 331 919 379 1031 331 982 b 442 808 331 857 379 808 z m 740 808 b 851 919 803 808 851 857 b 740 1031 851 982 803 1031 b 629 919 678 1031 629 982 b 740 808 629 857 678 808 z m 921 731 b 819 272 853 449 828 344 b 714 731 811 357 788 450 l 483 731 b 372 256 406 436 381 336 b 269 731 365 335 342 435 l 28 731 l 240 0 l 475 0 b 594 468 557 288 585 393 b 707 0 601 393 628 289 l 942 0 l 1156 731 z "},"ẁ":{"ha":1183,"x_min":0,"x_max":0,"o":"m 585 1042 l 349 1042 l 507 806 l 688 806 z m 921 731 b 819 272 853 449 828 344 b 714 731 811 357 788 450 l 483 731 b 372 256 406 436 381 336 b 269 731 365 335 342 435 l 28 731 l 240 0 l 475 0 b 594 468 557 288 585 393 b 707 0 601 393 628 289 l 942 0 l 1156 731 z "},"x":{"ha":839,"x_min":0,"x_max":0,"o":"m 558 731 b 418 524 478 626 436 568 b 281 731 400 569 360 628 l 17 731 l 292 368 l 17 0 l 281 0 b 417 231 356 108 397 176 b 558 0 436 176 479 108 l 822 0 l 547 379 l 822 731 z "},"y":{"ha":856,"x_min":0,"x_max":0,"o":"m 597 731 b 435 236 492 451 449 324 b 265 731 419 325 374 453 l 14 731 l 317 -8 l 199 -319 l 439 -319 l 842 731 z "},"ý":{"ha":856,"x_min":0,"x_max":0,"o":"m 436 1042 l 333 806 l 514 806 l 672 1042 z m 597 731 b 435 236 492 451 449 324 b 265 731 419 325 374 453 l 14 731 l 317 -8 l 199 -319 l 439 -319 l 842 731 z "},"ŷ":{"ha":856,"x_min":0,"x_max":0,"o":"m 431 892 b 489 792 444 864 464 832 l 694 792 l 515 1028 l 343 1028 l 164 792 l 369 792 b 431 892 396 829 415 863 z m 597 731 b 435 236 492 451 449 324 b 265 731 419 325 374 453 l 14 731 l 317 -8 l 199 -319 l 439 -319 l 842 731 z "},"ÿ":{"ha":856,"x_min":0,"x_max":0,"o":"m 279 808 b 390 919 342 808 390 857 b 279 1031 390 982 342 1031 b 168 919 217 1031 168 982 b 279 808 168 857 217 808 z m 578 808 b 689 919 640 808 689 857 b 578 1031 689 982 640 1031 b 467 919 515 1031 467 982 b 578 808 467 857 515 808 z m 597 731 b 435 236 492 451 449 324 b 265 731 419 325 374 453 l 14 731 l 317 -8 l 199 -319 l 439 -319 l 842 731 z "},"ỳ":{"ha":856,"x_min":0,"x_max":0,"o":"m 422 1042 l 186 1042 l 344 806 l 525 806 z m 597 731 b 435 236 492 451 449 324 b 265 731 419 325 374 453 l 14 731 l 317 -8 l 199 -319 l 439 -319 l 842 731 z "},"ỹ":{"ha":856,"x_min":0,"x_max":0,"o":"m 346 856 b 528 807 394 856 442 807 b 714 985 622 807 689 864 l 554 1035 b 506 982 546 1001 535 982 b 332 1031 457 982 408 1031 b 144 853 217 1031 161 936 l 296 803 b 346 856 306 836 318 856 z m 597 731 b 435 236 492 451 449 324 b 265 731 419 325 374 453 l 14 731 l 317 -8 l 199 -319 l 439 -319 l 842 731 z "},"z":{"ha":674,"x_min":0,"x_max":0,"o":"m 32 731 l 32 536 l 308 536 l 13 0 l 642 0 l 642 194 l 368 194 l 661 731 z "},"ź":{"ha":674,"x_min":0,"x_max":0,"o":"m 344 1042 l 242 806 l 422 806 l 581 1042 z m 32 731 l 32 536 l 308 536 l 13 0 l 642 0 l 642 194 l 368 194 l 661 731 z "},"ž":{"ha":674,"x_min":0,"x_max":0,"o":"m 603 1032 l 397 1032 b 338 911 364 982 346 949 b 278 1032 329 944 311 979 l 72 1032 l 251 796 l 424 796 z m 32 731 l 32 536 l 308 536 l 13 0 l 642 0 l 642 194 l 368 194 l 661 731 z "},"ż":{"ha":674,"x_min":0,"x_max":0,"o":"m 338 789 b 464 914 407 789 464 844 b 338 1040 464 985 407 1040 b 211 914 268 1040 211 985 b 338 789 211 844 268 789 z m 32 731 l 32 536 l 308 536 l 13 0 l 642 0 l 642 194 l 368 194 l 661 731 z "},"ﬁ":{"ha":792,"x_min":0,"x_max":0,"o":"m 351 731 b 451 861 342 831 385 861 b 540 849 478 861 508 857 l 540 1033 b 407 1054 504 1044 457 1054 b 122 756 269 1054 122 983 l 122 731 l 36 731 l 36 550 l 122 550 l 122 0 l 353 0 l 353 550 l 492 550 l 492 0 l 722 0 l 722 731 z "},"ª":{"ha":678,"x_min":0,"x_max":0,"o":"m 426 940 l 426 939 b 282 997 389 981 329 997 b 31 731 122 997 31 882 b 272 463 31 589 115 463 b 426 538 343 463 407 489 l 426 472 l 608 472 l 608 986 l 457 986 z m 319 624 b 213 729 257 624 213 667 b 319 835 213 792 257 835 b 426 729 381 835 426 793 b 319 624 426 665 381 624 z "},"º":{"ha":614,"x_min":0,"x_max":0,"o":"m 307 463 b 586 729 471 463 586 572 b 307 997 586 886 471 997 b 28 729 143 997 28 886 b 307 463 28 572 143 463 z m 307 625 b 201 731 246 625 201 667 b 307 836 201 793 246 836 b 415 731 372 836 415 793 b 307 625 415 667 371 625 z "},"А":{"ha":1029,"x_min":0,"x_max":0,"o":"m 1006 0 l 647 986 l 378 986 l 24 0 l 268 0 l 332 197 l 685 197 l 750 0 z m 393 392 b 504 826 479 663 500 754 b 621 392 508 754 532 664 z "},"Б":{"ha":897,"x_min":0,"x_max":0,"o":"m 322 632 l 322 772 l 781 772 l 781 986 l 86 986 l 86 0 l 510 0 b 869 313 715 0 869 113 b 510 632 869 508 757 632 z m 322 215 l 322 424 l 510 424 b 633 319 581 424 633 385 b 510 215 633 254 581 215 z "},"В":{"ha":919,"x_min":0,"x_max":0,"o":"m 510 0 b 876 304 751 0 876 133 b 700 538 876 424 800 519 b 821 739 757 557 821 615 b 482 986 821 903 693 986 l 86 986 l 86 0 z m 322 785 l 482 785 b 583 690 539 785 583 754 b 482 596 583 628 539 596 l 322 596 z m 322 418 l 510 418 b 639 310 586 418 639 378 b 510 201 639 246 586 201 l 322 201 z "},"Г":{"ha":732,"x_min":0,"x_max":0,"o":"m 711 986 l 86 986 l 86 0 l 322 0 l 322 772 l 711 772 z "},"Ѓ":{"ha":732,"x_min":0,"x_max":0,"o":"m 365 1297 l 263 1061 l 443 1061 l 601 1297 z m 711 986 l 86 986 l 86 0 l 322 0 l 322 772 l 711 772 z "},"Ґ":{"ha":732,"x_min":0,"x_max":0,"o":"m 489 986 l 86 986 l 86 0 l 322 0 l 322 772 l 711 772 l 711 1104 l 489 1104 z "},"Д":{"ha":1071,"x_min":0,"x_max":0,"o":"m 911 986 l 172 986 l 158 386 b 103 214 156 286 142 214 l 0 214 l 0 -140 l 208 -140 l 208 0 l 814 0 l 814 -140 l 1022 -140 l 1022 214 l 911 214 z m 350 214 b 386 400 358 214 383 285 l 394 772 l 675 772 l 675 214 z "},"Е":{"ha":786,"x_min":0,"x_max":0,"o":"m 739 986 l 86 986 l 86 0 l 739 0 l 739 214 l 322 214 l 322 390 l 669 390 l 669 599 l 322 599 l 322 772 l 739 772 z "},"Ѐ":{"ha":786,"x_min":0,"x_max":0,"o":"m 410 1297 l 174 1297 l 332 1061 l 513 1061 z m 739 986 l 86 986 l 86 0 l 739 0 l 739 214 l 322 214 l 322 390 l 669 390 l 669 599 l 322 599 l 322 772 l 739 772 z "},"Ё":{"ha":786,"x_min":0,"x_max":0,"o":"m 267 1064 b 378 1175 329 1064 378 1113 b 267 1286 378 1238 329 1286 b 156 1175 204 1286 156 1238 b 267 1064 156 1113 204 1064 z m 565 1064 b 676 1175 628 1064 676 1113 b 565 1286 676 1238 628 1286 b 454 1175 503 1286 454 1238 b 565 1064 454 1113 503 1064 z m 739 986 l 86 986 l 86 0 l 739 0 l 739 214 l 322 214 l 322 390 l 669 390 l 669 599 l 322 599 l 322 772 l 739 772 z "},"Ж":{"ha":1258,"x_min":0,"x_max":0,"o":"m 982 986 l 742 576 b 747 729 747 628 747 676 l 747 986 l 511 986 l 511 729 b 517 576 511 676 511 628 l 276 986 l 11 986 l 307 501 l 18 0 l 293 0 l 517 429 b 511 261 511 369 511 317 l 511 0 l 747 0 l 747 261 b 742 429 747 317 747 369 l 965 0 l 1240 0 l 951 501 l 1247 986 z "},"З":{"ha":911,"x_min":0,"x_max":0,"o":"m 739 532 b 835 717 807 568 835 638 b 458 1000 835 899 678 1000 b 42 676 194 1000 42 869 l 272 676 b 446 789 272 753 353 789 b 599 696 536 789 599 753 b 446 607 599 674 596 614 l 350 607 l 350 404 l 439 404 b 639 307 576 404 639 375 b 454 197 639 236 569 197 b 261 324 363 197 261 217 l 32 324 b 454 -14 32 114 154 -14 b 876 303 719 -14 876 115 b 739 532 876 411 828 493 z "},"И":{"ha":1046,"x_min":0,"x_max":0,"o":"m 742 986 b 304 304 444 549 346 400 b 322 986 319 407 322 600 l 86 986 l 86 0 l 304 0 b 740 672 594 426 697 578 b 724 0 725 569 724 379 l 960 0 l 960 986 z "},"Й":{"ha":1046,"x_min":0,"x_max":0,"o":"m 524 1042 b 789 1278 639 1042 789 1099 l 613 1278 b 524 1190 613 1240 592 1190 b 435 1278 456 1190 435 1240 l 258 1278 b 524 1042 258 1099 408 1042 z m 742 986 b 304 304 444 549 346 400 b 322 986 319 407 322 600 l 86 986 l 86 0 l 304 0 b 740 672 594 426 697 578 b 724 0 725 569 724 379 l 960 0 l 960 986 z "},"Ѝ":{"ha":1046,"x_min":0,"x_max":0,"o":"m 517 1297 l 281 1297 l 439 1061 l 619 1061 z m 742 986 b 304 304 444 549 346 400 b 322 986 319 407 322 600 l 86 986 l 86 0 l 304 0 b 740 672 594 426 697 578 b 724 0 725 569 724 379 l 960 0 l 960 986 z "},"К":{"ha":924,"x_min":0,"x_max":0,"o":"m 626 986 l 315 561 b 322 986 322 618 322 699 l 86 986 l 86 0 l 322 0 b 315 449 322 294 322 381 l 610 0 l 894 0 l 546 501 l 901 986 z "},"Ќ":{"ha":924,"x_min":0,"x_max":0,"o":"m 481 1297 l 378 1061 l 558 1061 l 717 1297 z m 626 986 l 315 561 b 322 986 322 618 322 699 l 86 986 l 86 0 l 322 0 b 315 449 322 294 322 381 l 610 0 l 894 0 l 546 501 l 901 986 z "},"Л":{"ha":999,"x_min":0,"x_max":0,"o":"m 21 -1 b 381 364 222 -21 381 119 l 381 772 l 676 772 l 676 0 l 913 0 l 913 986 l 149 986 l 149 367 b 22 211 149 261 94 217 z "},"М":{"ha":1192,"x_min":0,"x_max":0,"o":"m 596 611 l 308 986 l 86 986 l 86 0 l 322 0 b 310 621 322 379 322 540 l 594 244 l 882 624 b 869 0 869 543 869 383 l 1106 0 l 1106 986 l 883 986 z "},"Н":{"ha":1029,"x_min":0,"x_max":0,"o":"m 707 589 l 322 589 l 322 986 l 86 986 l 86 0 l 322 0 l 322 381 l 707 381 l 707 0 l 943 0 l 943 986 l 707 986 z "},"О":{"ha":1111,"x_min":0,"x_max":0,"o":"m 556 -14 b 1063 493 850 -14 1063 199 b 556 1000 1063 788 850 1000 b 49 493 261 1000 49 788 b 556 -14 49 199 261 -14 z m 556 208 b 285 493 393 208 285 338 b 556 778 285 649 393 778 b 826 493 718 778 826 649 b 556 208 826 338 718 208 z "},"П":{"ha":1008,"x_min":0,"x_max":0,"o":"m 322 0 l 322 772 l 686 772 l 686 0 l 922 0 l 922 986 l 86 986 l 86 0 z "},"Р":{"ha":924,"x_min":0,"x_max":0,"o":"m 86 986 l 86 0 l 322 0 l 322 297 l 496 297 b 882 649 722 297 882 438 b 510 986 882 864 722 986 z m 322 513 l 322 771 l 510 771 b 646 642 588 771 646 722 b 510 513 646 561 588 513 z "},"С":{"ha":899,"x_min":0,"x_max":0,"o":"m 543 -14 b 831 64 707 -14 803 44 l 831 293 b 574 201 814 272 724 201 b 285 493 418 201 285 317 b 574 785 285 669 418 785 b 831 693 724 785 814 714 l 831 922 b 543 1000 803 942 707 1000 b 49 493 269 1000 49 783 b 543 -14 49 203 269 -14 z "},"Т":{"ha":833,"x_min":0,"x_max":0,"o":"m 535 0 l 535 772 l 785 772 l 785 986 l 49 986 l 49 772 l 299 772 l 299 0 z "},"У":{"ha":914,"x_min":0,"x_max":0,"o":"m 658 986 b 465 464 510 632 472 526 b 267 986 458 528 418 633 l 7 986 l 346 247 l 239 0 l 476 0 l 906 986 z "},"Ф":{"ha":1150,"x_min":0,"x_max":0,"o":"m 692 1008 l 456 1008 l 456 913 b 31 506 210 913 31 733 b 456 100 31 278 210 100 l 456 -17 l 692 -17 l 692 100 b 1119 506 940 100 1119 271 b 692 913 1119 742 940 913 z m 263 506 b 456 703 263 619 343 703 l 456 308 b 263 506 343 308 263 399 z m 692 703 b 888 506 806 703 888 615 b 692 308 888 393 806 310 z "},"Х":{"ha":981,"x_min":0,"x_max":0,"o":"m 671 986 b 490 664 549 799 504 713 b 310 986 476 713 435 799 l 24 986 l 357 497 l 24 0 l 310 0 b 489 333 428 190 474 279 b 671 0 504 279 549 190 l 957 0 l 622 507 l 957 986 z "},"Ч":{"ha":913,"x_min":0,"x_max":0,"o":"m 590 585 b 457 565 540 569 492 565 b 275 735 328 565 275 611 l 275 986 l 39 986 l 39 721 b 446 356 39 485 172 356 b 590 378 499 356 547 361 l 590 0 l 826 0 l 826 986 l 590 986 z "},"Ц":{"ha":1075,"x_min":0,"x_max":0,"o":"m 922 986 l 686 986 l 686 214 l 322 214 l 322 986 l 86 986 l 86 0 l 818 0 l 818 -140 l 1026 -140 l 1026 214 l 922 214 z "},"Ш":{"ha":1431,"x_min":0,"x_max":0,"o":"m 833 214 l 833 986 l 597 986 l 597 214 l 322 214 l 322 986 l 86 986 l 86 0 l 1344 0 l 1344 986 l 1108 986 l 1108 214 z "},"Щ":{"ha":1501,"x_min":0,"x_max":0,"o":"m 1344 986 l 1108 986 l 1108 214 l 833 214 l 833 986 l 597 986 l 597 214 l 322 214 l 322 986 l 86 986 l 86 0 l 1244 0 l 1244 -140 l 1453 -140 l 1453 214 l 1344 214 z "},"Џ":{"ha":1008,"x_min":0,"x_max":0,"o":"m 686 986 l 686 214 l 322 214 l 322 986 l 86 986 l 86 0 l 401 0 l 401 -140 l 610 -140 l 610 0 l 922 0 l 922 986 z "},"Ь":{"ha":910,"x_min":0,"x_max":0,"o":"m 322 689 l 322 986 l 86 986 l 86 0 l 510 0 b 882 338 722 0 882 122 b 496 689 882 549 722 689 z m 322 215 l 322 474 l 510 474 b 646 344 588 474 646 425 b 510 215 646 264 588 215 z "},"Ы":{"ha":1318,"x_min":0,"x_max":0,"o":"m 322 689 l 322 986 l 86 986 l 86 0 l 510 0 b 882 338 722 0 882 122 b 496 689 882 549 722 689 z m 996 0 l 1232 0 l 1232 986 l 996 986 z m 322 215 l 322 474 l 510 474 b 646 344 588 474 646 425 b 510 215 646 264 588 215 z "},"Ъ":{"ha":949,"x_min":0,"x_max":0,"o":"m 361 689 l 361 986 l 0 986 l 0 778 l 125 778 l 125 0 l 549 0 b 921 338 761 0 921 122 b 535 689 921 549 761 689 z m 361 215 l 361 474 l 549 474 b 685 344 626 474 685 425 b 549 215 685 264 626 215 z "},"Љ":{"ha":1500,"x_min":0,"x_max":0,"o":"m 913 689 l 913 986 l 149 986 l 149 367 b 22 211 149 261 94 217 l 21 -1 b 381 364 222 -21 381 119 l 381 772 l 676 772 l 676 0 l 1100 0 b 1472 338 1313 0 1472 122 b 1086 689 1472 549 1313 689 z m 913 215 l 913 474 l 1100 474 b 1236 344 1178 474 1236 425 b 1100 215 1236 264 1178 215 z "},"Њ":{"ha":1529,"x_min":0,"x_max":0,"o":"m 943 689 l 943 986 l 706 986 l 706 589 l 322 589 l 322 986 l 86 986 l 86 0 l 322 0 l 322 381 l 706 381 l 706 0 l 1129 0 b 1501 338 1342 0 1501 122 b 1115 689 1501 549 1342 689 z m 943 215 l 943 474 l 1129 474 b 1265 344 1207 474 1265 425 b 1129 215 1265 264 1207 215 z "},"Ѕ":{"ha":800,"x_min":0,"x_max":0,"o":"m 410 -14 b 765 281 610 -14 765 94 b 306 722 765 608 306 543 b 397 800 306 769 343 800 b 506 667 461 800 504 754 l 743 674 b 394 1000 742 868 604 1000 b 63 713 194 1000 63 879 b 517 265 63 389 517 417 b 411 186 517 219 479 186 b 272 326 328 186 272 238 l 29 326 b 410 -14 29 163 150 -14 z "},"Є":{"ha":899,"x_min":0,"x_max":0,"o":"m 574 785 b 831 693 724 785 814 714 l 831 922 b 543 1000 803 942 707 1000 b 49 493 269 1000 49 783 b 543 -14 49 203 269 -14 b 831 64 707 -14 803 44 l 831 293 b 574 201 814 272 724 201 b 300 394 450 201 339 275 l 738 394 l 738 589 l 299 589 b 574 785 338 710 449 785 z "},"Э":{"ha":899,"x_min":0,"x_max":0,"o":"m 356 1000 b 68 922 192 1000 96 942 l 68 693 b 325 785 85 714 175 785 b 599 592 449 785 560 711 l 161 592 l 161 397 l 600 397 b 325 201 561 276 450 201 b 68 293 175 201 85 272 l 68 64 b 356 -14 96 44 192 -14 b 850 493 629 -14 850 203 b 356 1000 850 783 629 1000 z "},"І":{"ha":408,"x_min":0,"x_max":0,"o":"m 322 0 l 322 986 l 86 986 l 86 0 z "},"Ї":{"ha":408,"x_min":0,"x_max":0,"o":"m 54 1064 b 165 1175 117 1064 165 1113 b 54 1286 165 1238 117 1286 b -57 1175 -8 1286 -57 1238 b 54 1064 -57 1113 -8 1064 z m 353 1064 b 464 1175 415 1064 464 1113 b 353 1286 464 1238 415 1286 b 242 1175 290 1286 242 1238 b 353 1064 242 1113 290 1064 z m 322 0 l 322 986 l 86 986 l 86 0 z "},"Ј":{"ha":635,"x_min":0,"x_max":0,"o":"m 13 72 b 235 -14 38 50 110 -14 b 564 378 419 -14 564 117 l 564 986 l 328 986 l 328 392 b 213 219 328 263 288 219 b 86 268 175 219 133 236 z "},"Ћ":{"ha":1071,"x_min":0,"x_max":0,"o":"m 665 631 b 507 607 611 631 556 625 l 507 772 l 757 772 l 757 986 l 21 986 l 21 772 l 271 772 l 271 0 l 507 0 l 507 401 b 640 421 557 417 606 421 b 794 251 750 421 794 375 l 794 0 l 1031 0 l 1031 265 b 665 631 1031 501 921 631 z "},"Ю":{"ha":1443,"x_min":0,"x_max":0,"o":"m 894 1000 b 408 582 643 1000 447 825 l 322 582 l 322 986 l 86 986 l 86 0 l 322 0 l 322 388 l 411 388 b 894 -14 456 153 649 -14 b 1388 493 1175 -14 1388 204 b 894 1000 1388 782 1175 1000 z m 894 208 b 638 493 749 208 638 331 b 894 778 638 656 749 778 b 1151 493 1040 778 1151 656 b 894 208 1151 331 1040 208 z "},"Я":{"ha":921,"x_min":0,"x_max":0,"o":"m 406 986 b 47 674 186 986 47 875 b 336 360 47 451 217 371 b 26 0 278 319 197 217 l 314 0 l 610 397 b 599 0 600 340 599 218 l 835 0 l 835 986 z m 283 651 b 419 772 283 728 333 772 l 599 772 l 599 526 l 419 526 b 283 651 333 526 283 574 z "},"Ђ":{"ha":1104,"x_min":0,"x_max":0,"o":"m 682 631 b 535 607 635 631 582 625 l 535 772 l 785 772 l 785 986 l 49 986 l 49 772 l 299 772 l 299 0 l 535 0 l 535 403 b 646 421 578 417 617 421 b 836 217 783 421 836 332 b 661 19 836 129 800 19 l 661 -189 b 1072 233 1006 -189 1072 100 b 682 631 1072 474 922 631 z "},"а":{"ha":919,"x_min":0,"x_max":0,"o":"m 617 646 b 394 746 563 715 472 746 b 35 368 168 746 35 583 b 382 -14 35 163 160 -14 b 617 107 493 -14 585 31 l 617 0 l 850 0 l 850 731 l 656 731 z m 443 193 b 268 365 340 193 268 264 b 443 538 268 467 340 538 b 615 365 543 538 615 467 b 443 193 615 264 543 193 z "},"б":{"ha":838,"x_min":0,"x_max":0,"o":"m 467 706 b 264 608 400 706 313 689 b 440 799 274 707 318 778 l 742 850 l 742 1046 l 403 990 b 42 536 156 950 42 756 l 42 408 b 429 -12 42 138 201 -12 b 815 353 654 -12 815 138 b 467 706 815 567 668 706 z m 431 196 b 271 354 336 196 271 260 b 431 513 271 447 336 513 b 589 354 524 513 589 447 b 431 196 589 260 524 196 z "},"в":{"ha":738,"x_min":0,"x_max":0,"o":"m 585 399 b 672 544 628 414 672 457 b 396 728 672 668 565 728 l 69 728 l 69 0 l 419 0 b 718 231 615 0 718 104 b 585 399 718 317 661 382 z m 407 554 b 469 501 439 554 469 539 b 407 447 469 467 439 447 l 272 447 l 272 554 z m 272 174 l 272 296 l 438 296 b 514 235 481 296 514 274 b 439 174 514 200 481 174 z "},"г":{"ha":607,"x_min":0,"x_max":0,"o":"m 69 0 l 297 0 l 297 524 l 596 524 l 596 731 l 69 731 z "},"ѓ":{"ha":607,"x_min":0,"x_max":0,"o":"m 406 806 l 564 1042 l 328 1042 l 225 806 z m 69 0 l 297 0 l 297 524 l 596 524 l 596 731 l 69 731 z "},"ґ":{"ha":607,"x_min":0,"x_max":0,"o":"m 374 731 l 69 731 l 69 0 l 297 0 l 297 524 l 596 524 l 596 849 l 374 849 z "},"д":{"ha":907,"x_min":0,"x_max":0,"o":"m 796 731 l 168 731 l 157 321 b 117 214 156 244 143 214 l 14 214 l 14 -140 l 222 -140 l 222 0 l 692 0 l 692 -140 l 900 -140 l 900 214 l 796 214 z m 354 214 b 376 333 369 229 374 263 l 382 524 l 568 524 l 568 214 z "},"е":{"ha":828,"x_min":0,"x_max":0,"o":"m 414 746 b 35 363 192 746 35 583 b 426 -14 35 138 197 -14 b 782 236 596 -14 743 90 l 581 257 b 428 176 553 206 499 176 b 267 296 343 176 275 228 l 793 296 b 414 746 804 603 636 746 z m 414 561 b 563 447 496 561 557 515 l 265 447 b 414 561 269 518 332 561 z "},"ѐ":{"ha":828,"x_min":0,"x_max":0,"o":"m 408 1042 l 172 1042 l 331 806 l 511 806 z m 414 746 b 35 363 192 746 35 583 b 426 -14 35 138 197 -14 b 782 236 596 -14 743 90 l 581 257 b 428 176 553 206 499 176 b 267 296 343 176 275 228 l 793 296 b 414 746 804 603 636 746 z m 414 561 b 563 447 496 561 557 515 l 265 447 b 414 561 269 518 332 561 z "},"ё":{"ha":828,"x_min":0,"x_max":0,"o":"m 265 808 b 376 919 328 808 376 857 b 265 1031 376 982 328 1031 b 154 919 203 1031 154 982 b 265 808 154 857 203 808 z m 564 808 b 675 919 626 808 675 857 b 564 1031 675 982 626 1031 b 453 919 501 1031 453 982 b 564 808 453 857 501 808 z m 414 746 b 35 363 192 746 35 583 b 426 -14 35 138 197 -14 b 782 236 596 -14 743 90 l 581 257 b 428 176 553 206 499 176 b 267 296 343 176 275 228 l 793 296 b 414 746 804 603 636 746 z m 414 561 b 563 447 496 561 557 515 l 265 447 b 414 561 269 518 332 561 z "},"ж":{"ha":1132,"x_min":0,"x_max":0,"o":"m 868 388 l 1133 731 l 871 731 l 674 463 b 682 731 679 522 682 614 l 451 731 b 460 460 451 613 454 519 l 261 731 l -1 731 l 264 388 l -4 0 l 260 0 l 461 313 b 451 0 454 243 451 147 l 682 0 b 672 310 682 146 679 240 l 872 0 l 1136 0 z "},"з":{"ha":742,"x_min":0,"x_max":0,"o":"m 621 392 b 685 519 672 426 685 475 b 367 747 685 653 567 747 b 25 501 142 747 36 628 l 247 501 b 354 571 247 546 286 571 b 457 508 418 571 457 549 b 353 453 457 453 382 453 l 282 453 l 282 294 l 371 294 b 488 231 444 294 488 271 b 371 160 488 188 444 160 b 240 243 289 160 240 192 l 19 243 b 365 -15 28 97 125 -15 b 717 235 601 -15 717 93 b 621 392 717 301 692 358 z "},"и":{"ha":867,"x_min":0,"x_max":0,"o":"m 297 324 l 297 731 l 69 731 l 69 0 l 279 0 l 569 396 l 569 0 l 797 0 l 797 731 l 588 731 z "},"й":{"ha":867,"x_min":0,"x_max":0,"o":"m 435 793 b 700 1029 550 793 700 850 l 524 1029 b 435 942 524 992 503 942 b 346 1029 367 942 346 992 l 169 1029 b 435 793 169 850 319 793 z m 297 324 l 297 731 l 69 731 l 69 0 l 279 0 l 569 396 l 569 0 l 797 0 l 797 731 l 588 731 z "},"ѝ":{"ha":867,"x_min":0,"x_max":0,"o":"m 428 1049 l 192 1049 l 350 813 l 531 813 z m 297 324 l 297 731 l 69 731 l 69 0 l 279 0 l 569 396 l 569 0 l 797 0 l 797 731 l 588 731 z "},"к":{"ha":797,"x_min":0,"x_max":0,"o":"m 496 388 l 800 731 l 531 731 l 294 456 b 300 731 300 506 300 585 l 69 731 l 69 0 l 300 0 b 290 322 300 154 297 251 l 532 0 l 803 0 z "},"ќ":{"ha":797,"x_min":0,"x_max":0,"o":"m 393 1042 l 290 806 l 471 806 l 629 1042 z m 496 388 l 800 731 l 531 731 l 294 456 b 300 731 300 506 300 585 l 69 731 l 69 0 l 300 0 b 290 322 300 154 297 251 l 532 0 l 803 0 z "},"л":{"ha":817,"x_min":0,"x_max":0,"o":"m 28 -7 b 344 311 224 -14 344 107 l 344 524 l 519 524 l 519 0 l 747 0 l 747 731 l 121 731 l 121 313 b 29 199 121 232 79 199 z "},"м":{"ha":942,"x_min":0,"x_max":0,"o":"m 471 529 l 283 731 l 69 731 l 69 0 l 297 0 b 272 468 297 313 294 383 b 469 238 299 424 339 376 b 671 468 600 375 647 428 b 644 0 647 381 644 311 l 872 0 l 872 731 l 658 731 z "},"н":{"ha":857,"x_min":0,"x_max":0,"o":"m 560 454 l 297 454 l 297 731 l 69 731 l 69 0 l 297 0 l 297 253 l 560 253 l 560 0 l 788 0 l 788 731 l 560 731 z "},"о":{"ha":864,"x_min":0,"x_max":0,"o":"m 431 -14 b 829 365 664 -14 829 143 b 431 746 829 588 664 746 b 35 365 199 746 35 588 b 431 -14 35 143 199 -14 z m 431 194 b 258 367 331 194 258 265 b 431 539 258 468 331 539 b 606 367 533 539 606 468 b 431 194 606 265 533 194 z "},"п":{"ha":835,"x_min":0,"x_max":0,"o":"m 69 731 l 69 0 l 297 0 l 297 524 l 538 524 l 538 0 l 765 0 l 765 731 z "},"р":{"ha":917,"x_min":0,"x_max":0,"o":"m 535 744 b 300 624 424 744 332 700 l 300 628 l 258 731 l 69 731 l 69 -319 l 300 -319 l 300 85 b 522 -15 354 15 444 -15 b 882 363 749 -15 882 147 b 535 744 882 568 757 744 z m 474 193 b 301 365 374 193 301 264 b 474 538 301 467 374 538 b 649 365 576 538 649 467 b 474 193 649 264 576 193 z "},"с":{"ha":710,"x_min":0,"x_max":0,"o":"m 436 -15 b 651 47 519 -15 593 6 l 650 267 b 460 193 599 219 533 193 b 271 364 350 193 271 265 b 460 538 271 464 350 538 b 650 464 533 538 599 511 l 651 683 b 436 746 593 725 519 746 b 40 365 190 746 40 588 b 436 -15 40 143 190 -15 z "},"т":{"ha":632,"x_min":0,"x_max":0,"o":"m 431 0 l 431 524 l 621 524 l 621 731 l 11 731 l 11 524 l 201 524 l 201 0 z "},"у":{"ha":856,"x_min":0,"x_max":0,"o":"m 597 731 b 435 236 492 451 449 324 b 265 731 419 325 374 453 l 14 731 l 317 -8 l 199 -319 l 439 -319 l 842 731 z "},"ф":{"ha":961,"x_min":0,"x_max":0,"o":"m 938 368 b 586 743 938 578 792 731 l 586 1042 l 371 1042 l 371 743 b 22 368 167 731 22 569 b 371 -12 22 164 167 0 l 371 -319 l 586 -319 l 586 -12 b 938 368 792 0 938 157 z m 233 368 b 371 553 233 465 290 539 l 371 181 b 233 368 290 199 233 274 z m 586 553 b 726 368 669 539 726 463 b 586 179 726 269 669 194 z "},"х":{"ha":853,"x_min":0,"x_max":0,"o":"m 558 731 b 418 524 478 626 436 568 b 281 731 400 569 360 628 l 17 731 l 292 368 l 17 0 l 281 0 b 417 231 356 108 397 176 b 558 0 436 176 479 108 l 822 0 l 547 379 l 822 731 z "},"ч":{"ha":749,"x_min":0,"x_max":0,"o":"m 451 463 b 367 451 418 453 385 451 b 251 553 282 451 251 488 l 251 731 l 24 731 l 24 539 b 356 249 24 365 132 249 b 451 260 390 249 424 251 l 451 0 l 679 0 l 679 731 l 451 731 z "},"ц":{"ha":876,"x_min":0,"x_max":0,"o":"m 765 731 l 538 731 l 538 207 l 297 207 l 297 731 l 69 731 l 69 0 l 661 0 l 661 -140 l 869 -140 l 869 214 l 765 214 z "},"ш":{"ha":1171,"x_min":0,"x_max":0,"o":"m 699 207 l 699 731 l 471 731 l 471 207 l 297 207 l 297 731 l 69 731 l 69 0 l 1101 0 l 1101 731 l 874 731 l 874 207 z "},"щ":{"ha":1217,"x_min":0,"x_max":0,"o":"m 1101 731 l 874 731 l 874 207 l 699 207 l 699 731 l 471 731 l 471 207 l 297 207 l 297 731 l 69 731 l 69 0 l 1001 0 l 1001 -140 l 1210 -140 l 1210 214 l 1101 214 z "},"џ":{"ha":835,"x_min":0,"x_max":0,"o":"m 538 731 l 538 207 l 297 207 l 297 731 l 69 731 l 69 0 l 315 0 l 315 -140 l 524 -140 l 524 0 l 765 0 l 765 731 z "},"ь":{"ha":760,"x_min":0,"x_max":0,"o":"m 297 532 l 297 731 l 69 731 l 69 0 l 461 0 b 743 265 631 0 743 106 b 461 532 743 425 631 532 z m 297 194 l 297 339 l 435 339 b 515 265 485 339 515 310 b 435 194 515 222 485 194 z "},"ы":{"ha":1129,"x_min":0,"x_max":0,"o":"m 297 532 l 297 731 l 69 731 l 69 0 l 461 0 b 743 265 631 0 743 106 b 461 532 743 425 631 532 z m 829 0 l 1060 0 l 1060 731 l 829 731 z m 297 194 l 297 339 l 435 339 b 515 265 485 339 515 310 b 435 194 515 222 485 194 z "},"ъ":{"ha":826,"x_min":0,"x_max":0,"o":"m 364 532 l 364 731 l 11 731 l 11 522 l 136 522 l 136 0 l 528 0 b 810 265 697 0 810 106 b 528 532 810 425 697 532 z m 364 194 l 364 339 l 501 339 b 582 265 551 339 582 310 b 501 194 582 222 551 194 z "},"љ":{"ha":1210,"x_min":0,"x_max":0,"o":"m 747 532 l 747 731 l 121 731 l 121 313 b 29 199 121 232 79 199 l 28 -7 b 344 311 224 -14 344 107 l 344 524 l 519 524 l 519 0 l 911 0 b 1193 265 1081 0 1193 106 b 911 532 1193 425 1081 532 z m 747 194 l 747 339 l 885 339 b 965 265 935 339 965 310 b 885 194 965 222 935 194 z "},"њ":{"ha":1250,"x_min":0,"x_max":0,"o":"m 788 532 l 788 731 l 560 731 l 560 454 l 297 454 l 297 731 l 69 731 l 69 0 l 297 0 l 297 253 l 560 253 l 560 0 l 951 0 b 1233 265 1121 0 1233 106 b 951 532 1233 425 1121 532 z m 788 194 l 788 339 l 925 339 b 1006 265 975 339 1006 310 b 925 194 1006 222 975 194 z "},"ѕ":{"ha":731,"x_min":0,"x_max":0,"o":"m 374 -14 b 703 225 563 -14 703 72 b 279 529 703 510 279 429 b 358 574 279 560 318 574 b 461 499 422 574 456 539 l 681 506 b 361 747 679 635 553 747 b 56 513 196 747 56 661 b 471 214 56 238 471 314 b 381 167 471 183 432 167 b 253 253 307 167 256 204 l 28 244 b 374 -14 31 61 197 -14 z "},"є":{"ha":683,"x_min":0,"x_max":0,"o":"m 439 182 b 254 292 353 182 283 225 l 533 292 l 533 443 l 256 443 b 439 550 286 507 354 550 b 633 475 513 550 579 524 l 635 681 b 417 744 576 722 501 744 b 24 367 175 744 24 586 b 417 -12 24 146 175 -12 b 635 53 506 -12 579 11 l 633 258 b 439 182 582 210 514 182 z "},"э":{"ha":683,"x_min":0,"x_max":0,"o":"m 267 743 b 49 678 178 743 104 719 l 50 472 b 244 549 101 521 169 549 b 429 439 331 549 400 506 l 150 439 l 150 288 l 428 288 b 244 181 397 224 329 181 b 50 256 171 181 104 207 l 49 50 b 267 -14 107 8 182 -14 b 660 364 508 -14 660 144 b 267 743 660 585 508 743 z "},"і":{"ha":369,"x_min":0,"x_max":0,"o":"m 185 789 b 311 914 254 789 311 844 b 185 1040 311 985 254 1040 b 58 914 115 1040 58 985 b 185 789 58 844 115 789 z m 69 731 l 69 0 l 300 0 l 300 731 z "},"ї":{"ha":369,"x_min":0,"x_max":0,"o":"m 35 808 b 146 919 97 808 146 857 b 35 1031 146 982 97 1031 b -76 919 -28 1031 -76 982 b 35 808 -76 857 -28 808 z m 333 808 b 444 919 396 808 444 857 b 333 1031 444 982 396 1031 b 222 919 271 1031 222 982 b 333 808 222 857 271 808 z m 69 731 l 69 0 l 300 0 l 300 731 z "},"ј":{"ha":371,"x_min":0,"x_max":0,"o":"m 186 789 b 313 914 256 789 313 844 b 186 1040 313 985 256 1040 b 60 914 117 1040 60 985 b 186 789 60 844 117 789 z m -65 -319 l 175 -319 l 301 0 l 301 731 l 69 731 l 69 15 z "},"ћ":{"ha":860,"x_min":0,"x_max":0,"o":"m 511 746 b 300 643 414 746 344 708 l 300 764 l 456 764 l 456 931 l 300 931 l 300 1042 l 69 1042 l 69 931 l -86 931 l -86 764 l 69 764 l 69 0 l 300 0 l 300 386 b 439 549 300 501 361 549 b 574 388 503 549 574 517 l 574 0 l 807 0 l 807 425 b 511 746 807 647 664 746 z "},"ю":{"ha":1136,"x_min":0,"x_max":0,"o":"m 721 746 b 350 461 531 746 388 632 l 297 461 l 297 731 l 69 731 l 69 0 l 297 0 l 297 274 l 349 274 b 721 -14 386 101 529 -14 b 1101 365 943 -14 1101 143 b 721 746 1101 588 943 746 z m 721 194 b 563 367 629 194 563 265 b 721 539 563 468 629 539 b 882 367 815 539 882 468 b 721 194 882 265 815 194 z "},"я":{"ha":765,"x_min":0,"x_max":0,"o":"m 331 731 b 35 489 150 731 35 649 b 231 250 35 332 144 268 b 15 0 193 219 135 151 l 282 0 l 482 272 b 476 0 476 229 476 143 l 696 0 l 696 731 z m 256 467 b 342 532 256 511 289 532 l 476 532 l 476 399 l 342 399 b 256 467 288 399 256 422 z "},"ђ":{"ha":860,"x_min":0,"x_max":0,"o":"m 511 746 b 300 643 414 746 344 708 l 300 764 l 456 764 l 456 931 l 300 931 l 300 1042 l 69 1042 l 69 931 l -86 931 l -86 764 l 69 764 l 69 0 l 300 0 l 300 386 b 439 549 300 501 361 549 b 574 388 503 549 574 517 l 574 -319 l 807 -319 l 807 425 b 511 746 807 647 664 746 z "},"Δ":{"ha":910,"x_min":0,"x_max":0,"o":"m 589 986 l 322 986 l 26 194 l 28 0 l 883 0 l 882 200 z m 453 758 l 651 208 l 254 208 z "},"Ω":{"ha":1119,"x_min":0,"x_max":0,"o":"m 1067 506 b 560 1001 1067 788 853 1001 b 53 506 267 1001 53 788 b 175 203 53 361 115 258 l 58 203 l 58 0 l 536 0 l 538 188 b 282 482 363 215 282 340 b 560 779 282 657 399 779 b 838 482 721 779 838 657 b 582 188 838 340 757 215 l 583 0 l 1061 0 l 1061 203 l 944 203 b 1067 506 1004 258 1067 361 z "},"π":{"ha":860,"x_min":0,"x_max":0,"o":"m 764 206 b 690 319 721 206 690 239 l 690 514 l 808 514 l 808 731 l 13 731 l 13 514 l 125 514 l 125 0 l 356 0 l 356 514 l 458 514 l 458 289 b 697 -10 458 44 597 -10 b 822 38 765 -10 803 15 l 822 221 b 764 206 804 213 783 206 z "},"⓿":{"ha":1161,"x_min":0,"x_max":0,"o":"m 579 -32 b 1113 499 878 -32 1113 201 b 579 1031 1113 796 878 1031 b 49 499 282 1031 49 796 b 579 -32 49 201 282 -32 z m 579 186 b 319 424 454 186 319 257 l 319 586 b 579 825 319 754 456 825 b 839 586 706 825 839 753 l 839 424 b 579 186 839 257 706 186 z m 579 347 b 667 424 624 347 667 369 l 667 586 b 579 663 667 640 624 663 b 490 586 535 663 490 640 l 490 424 b 579 347 490 369 536 347 z "},"❶":{"ha":1161,"x_min":0,"x_max":0,"o":"m 579 -32 b 1113 499 878 -32 1113 201 b 579 1031 1113 796 878 1031 b 49 499 282 1031 49 796 b 579 -32 49 201 282 -32 z m 382 346 l 497 346 l 497 633 l 381 613 l 381 765 l 669 815 l 669 346 l 785 346 l 785 194 l 382 194 z "},"❷":{"ha":1161,"x_min":0,"x_max":0,"o":"m 579 -32 b 1113 499 878 -32 1113 201 b 579 1031 1113 796 878 1031 b 49 499 282 1031 49 796 b 579 -32 49 201 282 -32 z m 353 306 b 633 631 353 558 633 536 b 585 668 633 646 622 668 b 524 610 551 668 529 651 l 353 610 b 585 825 353 736 458 825 b 806 632 701 825 806 758 b 533 357 806 425 582 454 l 804 357 l 804 194 l 353 194 z "},"❸":{"ha":1161,"x_min":0,"x_max":0,"o":"m 579 -32 b 1113 499 878 -32 1113 201 b 579 1031 1113 796 878 1031 b 49 499 282 1031 49 796 b 579 -32 49 201 282 -32 z m 585 186 b 342 400 435 186 342 274 l 508 400 b 578 335 508 350 544 335 b 643 389 611 335 643 351 b 567 439 643 439 589 439 l 519 439 l 519 586 l 572 586 b 622 626 607 586 622 604 b 569 675 622 657 599 675 b 511 621 542 675 511 663 l 344 621 b 578 825 344 736 433 825 b 794 650 703 825 794 760 b 744 524 794 594 774 554 b 815 382 788 492 815 447 b 585 186 815 275 733 186 z "},"❹":{"ha":1161,"x_min":0,"x_max":0,"o":"m 579 -32 b 1113 499 878 -32 1113 201 b 579 1031 1113 796 878 1031 b 49 499 282 1031 49 796 b 579 -32 49 201 282 -32 z m 557 301 l 292 301 l 292 417 l 567 815 l 724 815 l 724 438 l 797 438 l 797 301 l 724 301 l 724 194 l 557 194 z m 557 438 b 568 610 557 517 560 565 b 469 438 547 557 522 515 z "},"❺":{"ha":1161,"x_min":0,"x_max":0,"o":"m 579 -32 b 1113 499 878 -32 1113 201 b 579 1031 1113 796 878 1031 b 49 499 282 1031 49 796 b 579 -32 49 201 282 -32 z m 578 186 b 339 389 429 186 339 288 l 510 389 b 578 342 515 364 544 342 b 646 411 614 342 646 365 b 579 476 646 447 619 476 b 511 436 547 476 524 458 l 342 436 l 400 815 l 774 815 l 774 665 l 536 665 l 526 601 b 617 622 551 615 582 622 b 817 417 739 622 817 531 b 578 186 817 296 729 186 z "},"❻":{"ha":1161,"x_min":0,"x_max":0,"o":"m 579 -32 b 1113 499 878 -32 1113 201 b 579 1031 1113 796 878 1031 b 49 499 282 1031 49 796 b 579 -32 49 201 282 -32 z m 579 186 b 339 404 435 186 339 292 b 376 542 339 447 350 492 l 522 815 l 710 815 l 603 614 b 631 617 611 617 621 617 b 817 415 729 617 817 532 b 579 186 817 290 721 186 z m 579 347 b 646 415 618 347 646 376 b 579 482 646 454 618 482 b 510 415 539 482 510 454 b 579 347 510 376 539 347 z "},"❼":{"ha":1161,"x_min":0,"x_max":0,"o":"m 579 -32 b 1113 499 878 -32 1113 201 b 579 1031 1113 796 878 1031 b 49 499 282 1031 49 796 b 579 -32 49 201 282 -32 z m 618 665 l 358 665 l 358 815 l 800 815 l 800 686 l 597 194 l 415 194 z "},"❽":{"ha":1161,"x_min":0,"x_max":0,"o":"m 579 -32 b 1113 499 878 -32 1113 201 b 579 1031 1113 796 878 1031 b 49 499 282 1031 49 796 b 579 -32 49 201 282 -32 z m 579 182 b 351 386 446 182 351 269 b 411 522 351 435 369 485 b 368 638 382 553 368 593 b 581 825 368 743 453 825 b 792 638 706 825 792 743 b 747 521 792 596 779 551 b 807 386 788 486 807 439 b 579 182 807 269 713 182 z m 581 585 b 632 635 614 585 632 608 b 581 685 632 661 614 685 b 531 635 549 685 531 663 b 581 585 531 608 547 585 z m 581 335 b 639 394 615 335 639 361 b 581 453 639 428 615 453 b 522 394 546 453 522 428 b 581 335 522 360 546 335 z "},"❾":{"ha":1161,"x_min":0,"x_max":0,"o":"m 579 -32 b 1113 499 878 -32 1113 201 b 579 1031 1113 796 878 1031 b 49 499 282 1031 49 796 b 579 -32 49 201 282 -32 z m 553 394 b 526 393 543 393 535 393 b 339 596 426 393 339 479 b 578 825 339 719 435 825 b 817 606 721 825 817 719 b 779 469 817 567 807 522 l 633 194 l 446 194 z m 578 528 b 646 596 617 528 646 557 b 578 663 646 635 617 663 b 510 596 539 663 510 635 b 578 528 510 557 539 528 z "},"⓪":{"ha":1228,"x_min":0,"x_max":0,"o":"m 614 -64 b 1179 494 931 -64 1179 182 b 614 1054 1179 808 931 1054 b 49 494 297 1054 49 808 b 614 -64 49 182 297 -64 z m 614 68 b 196 494 379 68 196 256 b 614 921 196 733 379 921 b 1033 494 849 921 1033 733 b 614 68 1033 256 849 68 z m 608 183 b 868 421 735 183 868 254 l 868 583 b 608 822 868 750 735 822 b 349 583 485 822 349 751 l 349 421 b 608 183 349 254 483 183 z m 608 344 b 519 421 565 344 519 367 l 519 583 b 608 660 519 638 564 660 b 696 583 653 660 696 638 l 696 421 b 608 344 696 367 653 344 z "},"①":{"ha":1228,"x_min":0,"x_max":0,"o":"m 614 -64 b 1179 494 931 -64 1179 182 b 614 1054 1179 808 931 1054 b 49 494 297 1054 49 808 b 614 -64 49 182 297 -64 z m 614 68 b 196 494 379 68 196 256 b 614 921 196 733 379 921 b 1033 494 849 921 1033 733 b 614 68 1033 256 849 68 z m 814 192 l 814 343 l 699 343 l 699 813 l 410 763 l 410 610 l 526 631 l 526 343 l 411 343 l 411 192 z "},"②":{"ha":1228,"x_min":0,"x_max":0,"o":"m 614 1054 b 49 494 297 1054 49 808 b 614 -64 49 182 297 -64 b 1179 494 931 -64 1179 182 b 614 1054 1179 808 931 1054 z m 614 68 b 196 494 379 68 196 256 b 614 921 196 733 379 921 b 1033 494 849 921 1033 733 b 614 68 1033 256 849 68 z m 835 629 b 614 822 835 756 731 822 b 382 607 488 822 382 733 l 553 607 b 614 665 558 649 581 665 b 663 628 651 665 663 643 b 382 303 663 533 382 556 l 382 192 l 833 192 l 833 354 l 563 354 b 835 629 611 451 835 422 z "},"③":{"ha":1228,"x_min":0,"x_max":0,"o":"m 614 1054 b 49 494 297 1054 49 808 b 614 -64 49 182 297 -64 b 1179 494 931 -64 1179 182 b 614 1054 1179 808 931 1054 z m 614 68 b 196 494 379 68 196 256 b 614 921 196 733 379 921 b 1033 494 849 921 1033 733 b 614 68 1033 256 849 68 z m 774 521 b 824 647 803 551 824 592 b 607 822 824 757 732 822 b 374 618 463 822 374 733 l 540 618 b 599 672 540 660 571 672 b 651 624 628 672 651 654 b 601 583 651 601 636 583 l 549 583 l 549 436 l 596 436 b 672 386 618 436 672 436 b 607 332 672 349 640 332 b 538 397 574 332 538 347 l 371 397 b 614 183 371 271 464 183 b 844 379 763 183 844 272 b 774 521 844 444 817 489 z "},"④":{"ha":1228,"x_min":0,"x_max":0,"o":"m 614 1054 b 49 494 297 1054 49 808 b 614 -64 49 182 297 -64 b 1179 494 931 -64 1179 182 b 614 1054 1179 808 931 1054 z m 614 68 b 196 494 379 68 196 256 b 614 921 196 733 379 921 b 1033 494 849 921 1033 733 b 614 68 1033 256 849 68 z m 596 813 l 321 414 l 321 299 l 586 299 l 586 192 l 753 192 l 753 299 l 826 299 l 826 435 l 753 435 l 753 813 z m 499 435 b 597 607 551 513 576 554 b 586 435 589 563 586 514 z "},"⑤":{"ha":1228,"x_min":0,"x_max":0,"o":"m 614 -64 b 1179 494 931 -64 1179 182 b 614 1054 1179 808 931 1054 b 49 494 297 1054 49 808 b 614 -64 49 182 297 -64 z m 614 68 b 196 494 379 68 196 256 b 614 921 196 733 379 921 b 1033 494 849 921 1033 733 b 614 68 1033 256 849 68 z m 607 183 b 846 414 758 183 846 293 b 646 619 846 528 768 619 b 556 599 611 619 581 613 l 565 663 l 803 663 l 803 813 l 429 813 l 371 433 l 540 433 b 608 474 553 456 576 474 b 675 408 649 474 675 444 b 607 339 675 363 643 339 b 539 386 574 339 544 361 l 368 386 b 607 183 368 285 458 183 z "},"⑥":{"ha":1228,"x_min":0,"x_max":0,"o":"m 614 1054 b 49 494 297 1054 49 808 b 614 -64 49 182 297 -64 b 1179 494 931 -64 1179 182 b 614 1054 1179 808 931 1054 z m 614 68 b 196 494 379 68 196 256 b 614 921 196 733 379 921 b 1033 494 849 921 1033 733 b 614 68 1033 256 849 68 z m 660 614 b 632 611 650 614 640 614 l 739 813 l 551 813 l 406 539 b 368 401 379 489 368 444 b 608 183 368 289 464 183 b 846 413 750 183 846 288 b 660 614 846 529 758 614 z m 608 344 b 539 413 568 344 539 374 b 608 479 539 451 568 479 b 675 413 647 479 675 451 b 608 344 675 374 647 344 z "},"⑦":{"ha":1228,"x_min":0,"x_max":0,"o":"m 614 -64 b 1179 494 931 -64 1179 182 b 614 1054 1179 808 931 1054 b 49 494 297 1054 49 808 b 614 -64 49 182 297 -64 z m 614 68 b 196 494 379 68 196 256 b 614 921 196 733 379 921 b 1033 494 849 921 1033 733 b 614 68 1033 256 849 68 z m 829 813 l 388 813 l 388 663 l 647 663 l 444 192 l 626 192 l 829 683 z "},"⑧":{"ha":1228,"x_min":0,"x_max":0,"o":"m 614 1054 b 49 494 297 1054 49 808 b 614 -64 49 182 297 -64 b 1179 494 931 -64 1179 182 b 614 1054 1179 808 931 1054 z m 614 68 b 196 494 379 68 196 256 b 614 921 196 733 379 921 b 1033 494 849 921 1033 733 b 614 68 1033 256 849 68 z m 776 518 b 821 635 808 549 821 593 b 610 822 821 740 735 822 b 397 635 482 822 397 740 b 440 519 397 590 411 550 b 381 383 399 482 381 432 b 608 179 381 267 475 179 b 836 383 742 179 836 267 b 776 518 836 436 817 483 z m 610 682 b 661 632 643 682 661 658 b 610 582 661 606 643 582 b 560 632 576 582 560 606 b 610 682 560 660 578 682 z m 610 332 b 551 392 575 332 551 357 b 610 450 551 425 575 450 b 668 392 644 450 668 425 b 610 332 668 358 644 332 z "},"⑨":{"ha":1228,"x_min":0,"x_max":0,"o":"m 614 1054 b 49 494 297 1054 49 808 b 614 -64 49 182 297 -64 b 1179 494 931 -64 1179 182 b 614 1054 1179 808 931 1054 z m 614 68 b 196 494 379 68 196 256 b 614 921 196 733 379 921 b 1033 494 849 921 1033 733 b 614 68 1033 256 849 68 z m 607 822 b 368 593 464 822 368 717 b 556 390 368 476 456 390 b 582 392 564 390 572 390 l 475 192 l 663 192 l 808 467 b 846 603 836 519 846 564 b 607 822 846 717 750 822 z m 607 525 b 539 593 568 525 539 554 b 607 660 539 632 568 660 b 675 593 646 660 675 632 b 607 525 675 554 646 525 z "},"₀":{"ha":590,"x_min":0,"x_max":0,"o":"m 294 -328 b 554 -90 421 -328 554 -257 l 554 72 b 294 311 554 239 421 311 b 35 72 171 311 35 240 l 35 -90 b 294 -328 35 -257 169 -328 z m 294 -167 b 206 -90 251 -167 206 -144 l 206 72 b 294 149 206 126 250 149 b 382 72 339 149 382 126 l 382 -90 b 294 -167 382 -144 339 -167 z "},"₁":{"ha":474,"x_min":0,"x_max":0,"o":"m 440 -319 l 440 -168 l 325 -168 l 325 301 l 36 251 l 36 99 l 153 119 l 153 -168 l 38 -168 l 38 -319 z "},"₂":{"ha":528,"x_min":0,"x_max":0,"o":"m 488 118 b 267 311 488 244 383 311 b 35 96 140 311 35 222 l 206 96 b 267 154 211 138 233 154 b 315 117 304 154 315 132 b 35 -208 315 22 35 44 l 35 -319 l 486 -319 l 486 -157 l 215 -157 b 488 118 264 -60 488 -89 z "},"₃":{"ha":522,"x_min":0,"x_max":0,"o":"m 422 10 b 472 136 451 40 472 81 b 256 311 472 246 381 311 b 22 107 111 311 22 222 l 189 107 b 247 161 189 149 219 161 b 300 113 276 161 300 143 b 250 72 300 90 285 72 l 197 72 l 197 -75 l 244 -75 b 321 -125 267 -75 321 -75 b 256 -179 321 -162 289 -179 b 186 -114 222 -179 186 -164 l 19 -114 b 263 -328 19 -240 113 -328 b 493 -132 411 -328 493 -239 b 422 10 493 -67 465 -22 z "},"₄":{"ha":522,"x_min":0,"x_max":0,"o":"m 429 301 l 272 301 l -3 -97 l -3 -212 l 263 -212 l 263 -319 l 429 -319 l 429 -212 l 503 -212 l 503 -76 l 429 -76 z m 175 -76 b 274 96 228 1 253 43 b 263 -76 265 51 263 3 z "},"₅":{"ha":538,"x_min":0,"x_max":0,"o":"m 272 -328 b 511 -97 424 -328 511 -218 b 311 108 511 17 433 108 b 221 88 276 108 246 101 l 231 151 l 468 151 l 468 301 l 94 301 l 36 -78 l 206 -78 b 274 -37 218 -56 242 -37 b 340 -103 314 -37 340 -67 b 272 -172 340 -149 308 -172 b 204 -125 239 -172 210 -150 l 33 -125 b 272 -328 33 -226 124 -328 z "},"₆":{"ha":488,"x_min":0,"x_max":0,"o":"m 299 103 b 271 100 289 103 279 103 l 378 301 l 190 301 l 44 28 b 7 -110 18 -22 7 -67 b 247 -328 7 -222 103 -328 b 485 -99 389 -328 485 -224 b 299 103 485 18 397 103 z m 247 -167 b 178 -99 207 -167 178 -137 b 247 -32 178 -60 207 -32 b 314 -99 286 -32 314 -60 b 247 -167 314 -137 286 -167 z "},"₇":{"ha":436,"x_min":0,"x_max":0,"o":"m 436 301 l -6 301 l -6 151 l 254 151 l 51 -319 l 233 -319 l 436 172 z "},"₈":{"ha":518,"x_min":0,"x_max":0,"o":"m 426 7 b 471 124 458 38 471 82 b 260 311 471 229 385 311 b 47 124 132 311 47 229 b 90 8 47 79 61 39 b 31 -128 49 -29 31 -79 b 258 -332 31 -244 125 -332 b 486 -128 392 -332 486 -244 b 426 7 486 -75 467 -28 z m 260 171 b 311 121 293 171 311 147 b 260 71 311 94 293 71 b 210 121 226 71 210 94 b 260 171 210 149 228 171 z m 260 -179 b 201 -119 225 -179 201 -154 b 260 -61 201 -86 225 -61 b 318 -119 294 -61 318 -86 b 260 -179 318 -153 294 -179 z "},"₉":{"ha":489,"x_min":0,"x_max":0,"o":"m 242 311 b 3 82 99 311 3 206 b 190 -121 3 -35 90 -121 b 217 -119 199 -121 207 -121 l 110 -319 l 297 -319 l 443 -44 b 481 92 471 8 481 53 b 242 311 481 206 385 311 z m 242 14 b 174 82 203 14 174 43 b 242 149 174 121 203 149 b 310 82 281 149 310 121 b 242 14 310 43 281 14 z "},"⁰":{"ha":590,"x_min":0,"x_max":0,"o":"m 294 482 b 554 719 421 482 554 553 l 554 882 b 294 1121 554 1049 421 1121 b 35 882 171 1121 35 1050 l 35 719 b 294 482 35 553 169 482 z m 294 643 b 206 719 251 643 206 665 l 206 882 b 294 958 206 936 250 958 b 382 882 339 958 382 936 l 382 719 b 294 643 382 665 339 643 z "},"¹":{"ha":474,"x_min":0,"x_max":0,"o":"m 440 490 l 440 642 l 325 642 l 325 1111 l 36 1061 l 36 908 l 153 929 l 153 642 l 38 642 l 38 490 z "},"²":{"ha":528,"x_min":0,"x_max":0,"o":"m 488 928 b 267 1121 488 1054 383 1121 b 35 906 140 1121 35 1032 l 206 906 b 267 964 211 947 233 964 b 315 926 304 964 315 942 b 35 601 315 832 35 854 l 35 490 l 486 490 l 486 653 l 215 653 b 488 928 264 750 488 721 z "},"³":{"ha":522,"x_min":0,"x_max":0,"o":"m 422 819 b 472 946 451 850 472 890 b 256 1121 472 1056 381 1121 b 22 917 111 1121 22 1032 l 189 917 b 247 971 189 958 219 971 b 300 922 276 971 300 953 b 250 882 300 900 285 882 l 197 882 l 197 735 l 244 735 b 321 685 267 735 321 735 b 256 631 321 647 289 631 b 186 696 222 631 186 646 l 19 696 b 263 482 19 569 113 482 b 493 678 411 482 493 571 b 422 819 493 743 465 788 z "},"⁴":{"ha":522,"x_min":0,"x_max":0,"o":"m 429 1111 l 272 1111 l -3 713 l -3 597 l 263 597 l 263 490 l 429 490 l 429 597 l 503 597 l 503 733 l 429 733 z m 175 733 b 274 906 228 811 253 853 b 263 733 265 861 263 813 z "},"⁵":{"ha":538,"x_min":0,"x_max":0,"o":"m 272 482 b 511 713 424 482 511 592 b 311 918 511 826 433 918 b 221 897 276 918 246 911 l 231 961 l 468 961 l 468 1111 l 94 1111 l 36 732 l 206 732 b 274 772 218 754 242 772 b 340 707 314 772 340 743 b 272 638 340 661 308 638 b 204 685 239 638 210 660 l 33 685 b 272 482 33 583 124 482 z "},"⁶":{"ha":488,"x_min":0,"x_max":0,"o":"m 299 913 b 271 910 289 913 279 913 l 378 1111 l 190 1111 l 44 838 b 7 700 18 788 7 743 b 247 482 7 588 103 482 b 485 711 389 482 485 586 b 299 913 485 828 397 913 z m 247 643 b 178 711 207 643 178 672 b 247 778 178 750 207 778 b 314 711 286 778 314 750 b 247 643 314 672 286 643 z "},"⁷":{"ha":436,"x_min":0,"x_max":0,"o":"m 436 1111 l -6 1111 l -6 961 l 254 961 l 51 490 l 233 490 l 436 982 z "},"⁸":{"ha":518,"x_min":0,"x_max":0,"o":"m 426 817 b 471 933 458 847 471 892 b 260 1121 471 1039 385 1121 b 47 933 132 1121 47 1039 b 90 818 47 889 61 849 b 31 682 49 781 31 731 b 258 478 31 565 125 478 b 486 682 392 478 486 565 b 426 817 486 735 467 782 z m 260 981 b 311 931 293 981 311 957 b 260 881 311 904 293 881 b 210 931 226 881 210 904 b 260 981 210 958 228 981 z m 260 631 b 201 690 225 631 201 656 b 260 749 201 724 225 749 b 318 690 294 749 318 724 b 260 631 318 657 294 631 z "},"⁹":{"ha":489,"x_min":0,"x_max":0,"o":"m 242 1121 b 3 892 99 1121 3 1015 b 190 689 3 775 90 689 b 217 690 199 689 207 689 l 110 490 l 297 490 l 443 765 b 481 901 471 818 481 863 b 242 1121 481 1015 385 1121 z m 242 824 b 174 892 203 824 174 853 b 242 958 174 931 203 958 b 310 892 281 958 310 931 b 242 824 310 853 281 824 z "},"⁄":{"ha":281,"x_min":0,"x_max":0,"o":"m 258 986 l -167 0 l 22 0 l 447 986 z "},"½":{"ha":1282,"x_min":0,"x_max":0,"o":"m 38 365 l 440 365 l 440 517 l 325 517 l 325 986 l 36 936 l 36 783 l 153 804 l 153 517 l 38 517 z m 307 0 l 496 0 l 921 986 l 732 986 z m 1242 438 b 1021 631 1242 564 1138 631 b 789 415 894 631 789 542 l 960 415 b 1021 474 965 457 988 474 b 1069 436 1058 474 1069 451 b 789 111 1069 342 789 364 l 789 0 l 1240 0 l 1240 163 l 969 163 b 1242 438 1018 260 1242 231 z "},"⅓":{"ha":1276,"x_min":0,"x_max":0,"o":"m 38 365 l 440 365 l 440 517 l 325 517 l 325 986 l 36 936 l 36 783 l 153 804 l 153 517 l 38 517 z m 307 0 l 496 0 l 921 986 l 732 986 z m 1176 329 b 1226 456 1206 360 1226 400 b 1010 631 1226 565 1135 631 b 776 426 865 631 776 542 l 943 426 b 1001 481 943 468 974 481 b 1054 432 1031 481 1054 463 b 1004 392 1054 410 1039 392 l 951 392 l 951 244 l 999 244 b 1075 194 1021 244 1075 244 b 1010 140 1075 157 1043 140 b 940 206 976 140 940 156 l 774 206 b 1017 -8 774 79 867 -8 b 1247 188 1165 -8 1247 81 b 1176 329 1247 253 1219 297 z "},"⅔":{"ha":1331,"x_min":0,"x_max":0,"o":"m 215 528 b 488 803 264 625 488 596 b 267 996 488 929 383 996 b 35 781 140 996 35 907 l 206 781 b 267 839 211 822 233 839 b 315 801 304 839 315 817 b 35 476 315 707 35 729 l 35 365 l 486 365 l 486 528 z m 361 0 l 550 0 l 975 986 l 786 986 z m 1231 329 b 1281 456 1260 360 1281 400 b 1064 631 1281 565 1189 631 b 831 426 919 631 831 542 l 997 426 b 1056 481 997 468 1028 481 b 1108 432 1085 481 1108 463 b 1058 392 1108 410 1093 392 l 1006 392 l 1006 244 l 1053 244 b 1129 194 1075 244 1129 244 b 1064 140 1129 157 1097 140 b 994 206 1031 140 994 156 l 828 206 b 1071 -8 828 79 921 -8 b 1301 188 1219 -8 1301 81 b 1231 329 1301 253 1274 297 z "},"¼":{"ha":1207,"x_min":0,"x_max":0,"o":"m 38 365 l 440 365 l 440 517 l 325 517 l 325 986 l 36 936 l 36 783 l 153 804 l 153 517 l 38 517 z m 307 0 l 496 0 l 921 986 l 732 986 z m 1114 621 l 957 621 l 682 222 l 682 107 l 947 107 l 947 0 l 1114 0 l 1114 107 l 1188 107 l 1188 243 l 1114 243 z m 860 243 b 958 415 913 321 938 363 b 947 243 950 371 947 322 z "},"¾":{"ha":1256,"x_min":0,"x_max":0,"o":"m 493 553 b 422 694 493 618 465 663 b 472 821 451 725 472 765 b 256 996 472 931 381 996 b 22 792 111 996 22 907 l 189 792 b 247 846 189 833 219 846 b 300 797 276 846 300 828 b 250 757 300 775 285 757 l 197 757 l 197 610 l 244 610 b 321 560 267 610 321 610 b 256 506 321 522 289 506 b 186 571 222 506 186 521 l 19 571 b 263 357 19 444 113 357 b 493 553 411 357 493 446 z m 356 0 l 544 0 l 969 986 l 781 986 z m 1163 621 l 1006 621 l 731 222 l 731 107 l 996 107 l 996 0 l 1163 0 l 1163 107 l 1236 107 l 1236 243 l 1163 243 z m 908 243 b 1007 415 961 321 986 363 b 996 243 999 371 996 322 z "},"⅛":{"ha":1272,"x_min":0,"x_max":0,"o":"m 38 365 l 440 365 l 440 517 l 325 517 l 325 986 l 36 936 l 36 783 l 153 804 l 153 517 l 38 517 z m 307 0 l 496 0 l 921 986 l 732 986 z m 1181 326 b 1225 443 1213 357 1225 401 b 1014 631 1225 549 1139 631 b 801 443 886 631 801 549 b 844 328 801 399 815 358 b 785 192 803 290 785 240 b 1013 -12 785 75 879 -12 b 1240 192 1146 -12 1240 75 b 1181 326 1240 244 1221 292 z m 1014 490 b 1065 440 1047 490 1065 467 b 1014 390 1065 414 1047 390 b 964 440 981 390 964 414 b 1014 490 964 468 982 490 z m 1014 140 b 956 200 979 140 956 165 b 1014 258 956 233 979 258 b 1072 200 1049 258 1072 233 b 1014 140 1072 167 1049 140 z "},"⅜":{"ha":1321,"x_min":0,"x_max":0,"o":"m 493 553 b 422 694 493 618 465 663 b 472 821 451 725 472 765 b 256 996 472 931 381 996 b 22 792 111 996 22 907 l 189 792 b 247 846 189 833 219 846 b 300 797 276 846 300 828 b 250 757 300 775 285 757 l 197 757 l 197 610 l 244 610 b 321 560 267 610 321 610 b 256 506 321 522 289 506 b 186 571 222 506 186 521 l 19 571 b 263 357 19 444 113 357 b 493 553 411 357 493 446 z m 356 0 l 544 0 l 969 986 l 781 986 z m 1229 326 b 1274 443 1261 357 1274 401 b 1063 631 1274 549 1188 631 b 850 443 935 631 850 549 b 893 328 850 399 864 358 b 833 192 851 290 833 240 b 1061 -12 833 75 928 -12 b 1289 192 1194 -12 1289 75 b 1229 326 1289 244 1269 292 z m 1063 490 b 1114 440 1096 490 1114 467 b 1063 390 1114 414 1096 390 b 1013 440 1029 390 1013 414 b 1063 490 1013 468 1031 490 z m 1063 140 b 1004 200 1028 140 1004 165 b 1063 258 1004 233 1028 258 b 1121 200 1097 258 1121 233 b 1063 140 1121 167 1097 140 z "},"⅝":{"ha":1336,"x_min":0,"x_max":0,"o":"m 511 588 b 311 793 511 701 433 793 b 221 772 276 793 246 786 l 231 836 l 468 836 l 468 986 l 94 986 l 36 607 l 206 607 b 274 647 218 629 242 647 b 340 582 314 647 340 618 b 272 513 340 536 308 513 b 204 560 239 513 210 535 l 33 560 b 272 357 33 458 124 357 b 511 588 424 357 511 467 z m 371 0 l 560 0 l 985 986 l 796 986 z m 1244 326 b 1289 443 1276 357 1289 401 b 1078 631 1289 549 1203 631 b 865 443 950 631 865 549 b 908 328 865 399 879 358 b 849 192 867 290 849 240 b 1076 -12 849 75 943 -12 b 1304 192 1210 -12 1304 75 b 1244 326 1304 244 1285 292 z m 1078 490 b 1129 440 1111 490 1129 467 b 1078 390 1129 414 1111 390 b 1028 440 1044 390 1028 414 b 1078 490 1028 468 1046 490 z m 1078 140 b 1019 200 1043 140 1019 165 b 1078 258 1019 233 1043 258 b 1136 200 1113 258 1136 233 b 1078 140 1136 167 1113 140 z "},"⅞":{"ha":1193,"x_min":0,"x_max":0,"o":"m 436 857 l 436 986 l -6 986 l -6 836 l 254 836 l 51 365 l 233 365 z m 228 0 l 417 0 l 842 986 l 653 986 z m 1101 326 b 1146 443 1133 357 1146 401 b 935 631 1146 549 1060 631 b 722 443 807 631 722 549 b 765 328 722 399 736 358 b 706 192 724 290 706 240 b 933 -12 706 75 800 -12 b 1161 192 1067 -12 1161 75 b 1101 326 1161 244 1142 292 z m 935 490 b 986 440 968 490 986 467 b 935 390 986 414 968 390 b 885 440 901 390 885 414 b 935 490 885 468 903 490 z m 935 140 b 876 200 900 140 876 165 b 935 258 876 233 900 258 b 993 200 969 258 993 233 b 935 140 993 167 969 140 z "},".":{"ha":383,"x_min":0,"x_max":0,"o":"m 192 -14 b 313 107 258 -14 313 39 b 192 226 313 174 258 226 b 71 107 125 226 71 174 b 192 -14 71 39 125 -14 z "},",":{"ha":417,"x_min":0,"x_max":0,"o":"m 53 -139 l 233 -139 l 379 200 l 143 200 z "},":":{"ha":351,"x_min":0,"x_max":0,"o":"m 175 469 b 296 590 242 469 296 522 b 175 710 296 657 242 710 b 54 590 108 710 54 657 b 175 469 54 522 108 469 z m 175 -14 b 296 107 242 -14 296 39 b 175 226 296 174 242 226 b 54 107 108 226 54 174 b 175 -14 54 39 108 -14 z "},";":{"ha":450,"x_min":0,"x_max":0,"o":"m 258 469 b 379 590 325 469 379 522 b 258 710 379 657 325 710 b 138 590 192 710 138 657 b 258 469 138 522 192 469 z m 53 -139 l 233 -139 l 379 200 l 143 200 z "},"!":{"ha":383,"x_min":0,"x_max":0,"o":"m 296 285 l 310 988 l 74 988 l 88 285 z m 192 -14 b 313 107 258 -14 313 39 b 192 226 313 174 258 226 b 71 107 125 226 71 174 b 192 -14 71 39 125 -14 z "},"¡":{"ha":383,"x_min":0,"x_max":0,"o":"m 192 742 b 71 621 125 742 71 689 b 192 501 71 554 125 501 b 313 621 258 501 313 554 b 192 742 313 689 258 742 z m 88 443 l 74 -260 l 310 -260 l 296 443 z "},"?":{"ha":729,"x_min":0,"x_max":0,"o":"m 244 644 b 365 778 244 722 292 778 b 475 676 431 778 475 736 b 251 561 475 611 422 561 l 251 288 l 461 288 l 461 394 b 711 701 629 436 711 561 b 367 1000 711 889 560 1000 b 8 644 151 1000 8 850 z m 356 -14 b 476 107 422 -14 476 39 b 356 226 476 174 422 226 b 235 107 289 226 235 174 b 356 -14 235 39 289 -14 z "},"¿":{"ha":729,"x_min":0,"x_max":0,"o":"m 374 742 b 253 621 307 742 253 689 b 374 501 253 554 307 501 b 494 621 440 501 494 554 b 374 742 494 689 440 742 z m 485 83 b 364 -50 485 6 438 -50 b 254 51 299 -50 254 -8 b 478 167 254 117 307 167 l 478 440 l 268 440 l 268 333 b 18 26 100 292 18 167 b 363 -272 18 -161 169 -272 b 721 83 578 -272 721 -122 z "},"·":{"ha":383,"x_min":0,"x_max":0,"o":"m 192 233 b 313 354 258 233 313 286 b 192 474 313 421 258 474 b 71 354 125 474 71 421 b 192 233 71 286 125 233 z "},"•":{"ha":611,"x_min":0,"x_max":0,"o":"m 306 281 b 488 463 406 281 488 360 b 306 642 488 563 406 642 b 125 463 206 642 125 563 b 306 281 125 360 206 281 z "},"*":{"ha":647,"x_min":0,"x_max":0,"o":"m 293 549 b 324 611 310 572 322 596 b 354 549 326 597 338 574 l 421 449 l 549 540 l 472 636 b 422 685 453 661 433 681 b 492 693 438 682 464 686 l 610 725 l 561 875 l 444 832 b 383 800 413 819 389 808 b 396 868 389 811 394 838 l 401 986 l 244 986 l 249 869 b 260 801 250 836 254 811 b 199 833 254 810 231 821 l 86 875 l 36 725 l 154 693 b 224 685 182 686 208 682 b 174 636 213 681 193 661 l 99 540 l 225 449 z "},"#":{"ha":1056,"x_min":0,"x_max":0,"o":"m 1011 765 l 854 765 l 878 986 l 656 986 l 632 765 l 483 765 l 507 986 l 285 986 l 261 765 l 86 765 l 86 571 l 240 571 l 221 388 l 44 388 l 44 193 l 200 193 l 179 0 l 401 0 l 422 193 l 571 193 l 550 0 l 772 0 l 793 193 l 969 193 l 969 388 l 814 388 l 833 571 l 1011 571 z m 443 388 l 463 571 l 611 571 l 592 388 z "},"/":{"ha":554,"x_min":0,"x_max":0,"o":"m 361 1042 l -8 -182 l 193 -182 l 563 1042 z "},"\\":{"ha":554,"x_min":0,"x_max":0,"o":"m 361 -182 l 563 -182 l 193 1042 l -8 1042 z "},"-":{"ha":764,"x_min":0,"x_max":0,"o":"m 69 264 l 694 264 l 694 472 l 69 472 z "},"–":{"ha":899,"x_min":0,"x_max":0,"o":"m 0 264 l 899 264 l 899 472 l 0 472 z "},"—":{"ha":1075,"x_min":0,"x_max":0,"o":"m 0 264 l 1075 264 l 1075 472 l 0 472 z "},"_":{"ha":986,"x_min":0,"x_max":0,"o":"m 69 -181 l 917 -181 l 917 0 l 69 0 z "},"₍":{"ha":367,"x_min":0,"x_max":0,"o":"m 333 1 b 217 107 257 1 217 38 l 217 506 b 333 611 217 575 257 611 l 333 764 b 63 504 156 764 63 675 l 63 107 b 333 -151 63 -62 156 -151 z "},"₎":{"ha":367,"x_min":0,"x_max":0,"o":"m 33 611 b 150 506 110 611 150 575 l 150 107 b 33 1 150 38 110 1 l 33 -151 b 304 108 211 -151 304 -62 l 304 506 b 33 764 304 675 211 764 z "},"(":{"ha":479,"x_min":0,"x_max":0,"o":"m 449 986 b 60 629 181 986 60 881 l 60 147 b 449 -210 60 -104 181 -210 l 449 -8 b 282 126 378 -8 282 14 l 282 650 b 449 785 282 763 378 785 z "},")":{"ha":479,"x_min":0,"x_max":0,"o":"m 31 -208 b 419 149 299 -208 419 -103 l 419 631 b 31 988 419 882 299 988 l 31 786 b 197 651 101 786 197 764 l 197 128 b 31 -7 197 15 101 -7 z "},"{":{"ha":479,"x_min":0,"x_max":0,"o":"m 450 986 b 93 736 214 1017 74 936 l 110 560 b 35 481 115 507 86 481 l 18 481 l 18 300 l 35 300 b 110 221 86 300 115 274 l 93 42 b 450 -208 75 -158 214 -236 l 450 -21 b 303 75 374 -35 294 -11 l 321 253 b 251 389 328 317 296 364 b 321 522 296 410 328 451 l 303 703 b 450 799 294 789 374 813 z "},"}":{"ha":479,"x_min":0,"x_max":0,"o":"m 444 479 b 369 558 393 479 364 506 l 386 738 b 29 988 404 938 265 1015 l 29 800 b 176 704 106 814 185 790 l 158 526 b 228 390 151 463 183 415 b 158 257 183 369 151 328 l 176 76 b 29 -19 185 -10 106 -33 l 29 -207 b 386 43 265 -237 406 -157 l 369 219 b 444 299 364 272 393 299 l 461 299 l 461 479 z "},"[":{"ha":496,"x_min":0,"x_max":0,"o":"m 465 -212 l 465 -18 l 299 -18 l 299 792 l 465 792 l 465 986 l 83 986 l 83 -212 z "},"]":{"ha":496,"x_min":0,"x_max":0,"o":"m 31 986 l 31 792 l 197 792 l 197 -18 l 31 -18 l 31 -212 l 413 -212 l 413 986 z "},"⁽":{"ha":367,"x_min":0,"x_max":0,"o":"m 333 369 b 217 475 257 369 217 406 l 217 874 b 333 979 217 943 257 979 l 333 1132 b 63 872 156 1132 63 1043 l 63 475 b 333 217 63 306 156 217 z "},"⁾":{"ha":367,"x_min":0,"x_max":0,"o":"m 33 979 b 150 874 110 979 150 943 l 150 475 b 33 369 150 406 110 369 l 33 217 b 304 476 211 217 304 306 l 304 874 b 33 1132 304 1043 211 1132 z "},"‚":{"ha":417,"x_min":0,"x_max":0,"o":"m 53 -139 l 233 -139 l 379 200 l 143 200 z "},"„":{"ha":726,"x_min":0,"x_max":0,"o":"m 53 -139 l 233 -139 l 379 200 l 143 200 z m 363 -139 l 543 -139 l 689 200 l 453 200 z "},"“":{"ha":726,"x_min":0,"x_max":0,"o":"m 364 985 l 183 985 l 38 646 l 274 646 z m 674 985 l 493 985 l 347 646 l 583 646 z "},"”":{"ha":726,"x_min":0,"x_max":0,"o":"m 53 647 l 233 647 l 379 986 l 143 986 z m 363 647 l 543 647 l 689 986 l 453 986 z "},"‘":{"ha":417,"x_min":0,"x_max":0,"o":"m 364 985 l 183 985 l 38 646 l 274 646 z "},"’":{"ha":417,"x_min":0,"x_max":0,"o":"m 53 647 l 233 647 l 379 986 l 143 986 z "},"«":{"ha":781,"x_min":0,"x_max":0,"o":"m 196 617 l 18 340 l 196 64 l 426 64 l 253 340 l 426 617 z m 532 617 l 354 340 l 532 64 l 763 64 l 589 340 l 763 617 z "},"»":{"ha":781,"x_min":0,"x_max":0,"o":"m 18 617 l 192 340 l 18 64 l 249 64 l 426 340 l 249 617 z m 354 617 l 528 340 l 354 64 l 585 64 l 763 340 l 585 617 z "},"‹":{"ha":444,"x_min":0,"x_max":0,"o":"m 196 617 l 18 340 l 196 64 l 426 64 l 253 340 l 426 617 z "},"›":{"ha":444,"x_min":0,"x_max":0,"o":"m 18 617 l 192 340 l 18 64 l 249 64 l 426 340 l 249 617 z "},"\"":{"ha":601,"x_min":0,"x_max":0,"o":"m 83 647 l 264 647 l 264 986 l 83 986 z m 338 647 l 518 647 l 518 986 l 338 986 z "},"'":{"ha":347,"x_min":0,"x_max":0,"o":"m 83 647 l 264 647 l 264 986 l 83 986 z "},"ƒ":{"ha":732,"x_min":0,"x_max":0,"o":"m 665 979 b 247 701 461 1042 247 971 l 247 675 l 81 675 l 81 494 l 247 494 l 247 321 b 60 193 247 151 150 169 l 60 8 b 478 286 264 -54 478 17 l 478 494 l 665 494 l 665 675 l 478 675 b 665 794 481 836 576 818 z "},"☺":{"ha":1228,"x_min":0,"x_max":0,"o":"m 614 -64 b 1179 494 931 -64 1179 182 b 614 1054 1179 808 931 1054 b 49 494 297 1054 49 808 b 614 -64 49 182 297 -64 z m 614 68 b 196 494 379 68 196 256 b 614 921 196 733 379 921 b 1033 494 849 921 1033 733 b 614 68 1033 256 849 68 z m 457 528 b 554 625 511 528 554 571 b 457 719 554 678 511 719 b 363 625 406 719 363 676 b 457 528 363 572 406 528 z m 774 528 b 869 625 825 528 869 574 b 774 719 869 675 824 719 b 678 625 724 719 678 675 b 774 528 678 574 722 528 z m 614 218 b 874 479 769 218 871 319 l 733 479 b 614 360 735 401 693 360 b 494 479 538 360 493 403 l 356 479 b 614 218 358 319 460 218 z "},"☻":{"ha":1228,"x_min":0,"x_max":0,"o":"m 614 -64 b 1179 494 931 -64 1179 182 b 614 1054 1179 808 931 1054 b 49 494 297 1054 49 808 b 614 -64 49 182 297 -64 z m 450 556 b 356 653 399 556 356 600 b 450 747 356 704 399 747 b 547 653 504 747 547 706 b 450 556 547 599 504 556 z m 781 556 b 685 653 729 556 685 601 b 781 747 685 703 731 747 b 876 653 831 747 876 703 b 781 556 876 601 832 556 z m 614 204 b 342 465 451 204 344 306 l 481 465 b 614 339 479 385 529 339 b 747 465 703 339 749 383 l 888 465 b 614 204 885 306 778 204 z "},"@":{"ha":1232,"x_min":0,"x_max":0,"o":"m 621 924 b 49 368 294 924 49 683 b 590 -174 49 61 283 -174 b 739 -150 636 -174 701 -168 l 739 0 b 607 -22 707 -18 643 -22 b 219 367 378 -22 219 146 b 621 769 219 594 393 769 b 1021 397 849 769 1018 608 b 946 229 1022 269 982 229 b 901 300 928 229 901 240 l 901 622 l 740 622 l 713 571 b 565 633 685 615 626 633 b 314 369 415 633 314 519 b 556 101 314 226 410 101 b 726 253 650 101 718 150 b 931 60 733 153 801 60 b 1185 397 1093 60 1185 193 b 621 924 1185 696 940 924 z m 607 265 b 506 367 547 265 506 307 b 607 468 506 426 547 468 b 710 367 665 468 710 426 b 607 265 710 307 665 265 z "},"&":{"ha":1124,"x_min":0,"x_max":0,"o":"m 854 731 l 719 522 l 531 800 l 808 800 l 808 986 l 128 986 l 358 669 b 44 343 175 650 44 524 b 410 -14 44 138 197 -14 b 714 140 542 -14 625 29 l 804 0 l 1074 3 l 846 338 l 1093 731 z m 413 208 b 269 344 329 208 269 269 b 413 485 269 435 331 485 b 557 383 472 485 507 460 l 593 328 b 413 208 524 232 488 208 z "},"¶":{"ha":978,"x_min":0,"x_max":0,"o":"m 43 656 b 401 325 43 450 210 325 l 401 0 l 582 0 l 582 986 l 401 986 b 43 656 210 986 43 861 z m 693 0 l 874 0 l 874 986 l 693 986 z "},"§":{"ha":764,"x_min":0,"x_max":0,"o":"m 618 361 b 708 532 672 403 708 463 b 503 756 708 611 665 701 l 419 783 b 310 854 353 806 310 825 b 365 896 310 882 338 896 b 456 811 417 896 456 861 l 676 817 b 374 1058 678 944 564 1058 b 83 833 218 1058 83 976 b 160 688 83 768 115 721 b 67 511 103 646 67 585 b 250 304 67 399 161 333 l 385 260 b 456 200 432 244 456 228 b 386 157 456 171 426 157 b 283 249 325 157 283 197 l 60 242 b 394 -14 56 67 194 -14 b 690 214 550 -14 690 68 b 618 361 690 260 675 317 z m 275 540 b 339 615 275 581 300 611 l 356 611 b 494 508 458 581 494 546 b 428 435 494 472 468 443 l 404 442 b 275 540 301 469 275 503 z "},"©":{"ha":1228,"x_min":0,"x_max":0,"o":"m 614 -60 b 1179 499 931 -60 1179 186 b 614 1058 1179 813 931 1058 b 49 499 297 1058 49 813 b 614 -60 49 186 297 -60 z m 614 72 b 196 499 379 72 196 260 b 614 925 196 738 379 925 b 1033 499 849 925 1033 738 b 614 72 1033 260 849 72 z m 639 185 b 826 250 754 185 817 240 l 826 460 b 658 351 794 408 749 351 b 508 499 568 351 508 411 b 658 646 508 588 568 646 b 826 539 749 646 794 592 l 826 747 b 639 814 819 754 757 814 b 332 499 467 814 332 678 b 639 185 332 322 467 185 z "},"®":{"ha":800,"x_min":0,"x_max":0,"o":"m 397 1000 b 49 656 199 1000 49 853 b 397 314 49 461 199 314 b 751 656 600 314 751 461 b 397 1000 751 853 600 1000 z m 397 407 b 147 656 257 407 147 514 b 397 907 147 810 257 907 b 651 656 542 907 651 799 b 397 407 651 503 542 407 z m 560 726 b 425 844 560 803 507 844 l 260 844 l 260 481 l 357 481 l 357 610 l 451 481 l 568 481 l 464 613 b 560 726 507 622 560 650 z m 419 756 b 463 718 444 756 463 747 b 419 676 463 690 446 676 l 357 676 l 357 756 z "},"™":{"ha":1182,"x_min":0,"x_max":0,"o":"m 175 842 l 175 464 l 335 464 l 335 842 l 463 842 l 463 986 l 47 986 l 47 842 z m 796 839 l 665 986 l 515 986 l 515 464 l 675 464 b 661 785 675 647 674 731 b 796 619 685 749 721 704 b 931 779 868 701 907 746 b 918 464 919 726 918 643 l 1078 464 l 1078 986 l 928 986 z "},"°":{"ha":608,"x_min":0,"x_max":0,"o":"m 304 528 b 544 764 439 528 544 632 b 304 1000 544 896 439 1000 b 64 764 169 1000 64 896 b 304 528 64 632 169 528 z m 304 683 b 228 764 261 683 228 719 b 304 844 228 808 261 844 b 381 764 347 844 381 808 b 304 683 381 719 347 683 z "},"|":{"ha":389,"x_min":0,"x_max":0,"o":"m 285 -111 l 285 1097 l 104 1097 l 104 -111 z "},"¦":{"ha":389,"x_min":0,"x_max":0,"o":"m 285 694 l 285 1097 l 104 1097 l 104 694 z m 285 -111 l 285 292 l 104 292 l 104 -111 z "},"†":{"ha":697,"x_min":0,"x_max":0,"o":"m 460 778 l 460 1097 l 238 1097 l 238 778 l 36 778 l 36 583 l 238 583 l 238 -111 l 460 -111 l 460 583 l 661 583 l 661 778 z "},"‡":{"ha":739,"x_min":0,"x_max":0,"o":"m 682 778 l 481 778 l 481 1097 l 258 1097 l 258 778 l 57 778 l 57 583 l 258 583 l 258 389 l 57 389 l 57 194 l 258 194 l 258 -111 l 481 -111 l 481 194 l 682 194 l 682 389 l 481 389 l 481 583 l 682 583 z "},"№":{"ha":1663,"x_min":0,"x_max":0,"o":"m 1356 463 b 1635 729 1519 463 1635 572 b 1356 997 1635 886 1519 997 b 1076 729 1192 997 1076 886 b 1356 463 1076 572 1192 463 z m 306 986 l 86 986 l 86 0 l 317 0 b 306 607 317 357 315 518 l 743 0 l 963 0 l 963 986 l 732 986 b 742 371 732 624 733 461 z m 1356 836 b 1464 731 1421 836 1464 793 b 1356 625 1464 667 1419 625 b 1250 731 1294 625 1250 667 b 1356 836 1250 793 1294 836 z m 1626 235 l 1626 401 l 1085 401 l 1085 235 z "},"₿":{"ha":919,"x_min":0,"x_max":0,"o":"m 876 304 b 700 538 876 424 800 519 b 821 739 757 557 821 615 b 614 972 821 865 744 943 l 614 1111 l 475 1111 l 475 986 l 400 986 l 400 1111 l 261 1111 l 261 986 l 86 986 l 86 0 l 261 0 l 261 -125 l 400 -125 l 400 0 l 475 0 l 475 -125 l 614 -125 l 614 10 b 876 304 788 42 876 160 z m 482 785 b 583 690 539 785 583 754 b 482 596 583 628 539 596 l 322 596 l 322 785 z m 322 201 l 322 418 l 510 418 b 639 310 586 418 639 378 b 510 201 639 246 586 201 z "},"¢":{"ha":710,"x_min":0,"x_max":0,"o":"m 650 267 b 460 193 599 219 533 193 b 271 364 350 193 271 265 b 460 538 271 464 350 538 b 650 464 533 538 599 511 l 651 683 b 529 736 615 708 575 726 l 529 886 l 335 886 l 335 736 b 40 365 150 699 40 556 b 335 -6 40 175 150 32 l 335 -149 l 529 -149 l 529 -6 b 651 47 575 4 615 22 z "},"¤":{"ha":897,"x_min":0,"x_max":0,"o":"m 772 493 b 743 626 772 542 763 586 l 850 736 l 707 878 l 606 775 b 450 815 560 801 507 815 b 292 775 392 815 338 801 l 190 878 l 47 736 l 154 626 b 125 493 135 586 125 540 b 154 360 125 446 135 400 l 47 250 l 190 108 l 292 211 b 450 171 338 185 392 171 b 606 211 507 171 560 185 l 707 108 l 850 250 l 743 360 b 772 493 763 400 772 444 z m 450 367 b 321 493 376 367 321 419 b 450 621 321 567 376 621 b 576 493 524 621 576 567 b 450 367 576 419 524 367 z "},"$":{"ha":800,"x_min":0,"x_max":0,"o":"m 765 281 b 306 722 765 608 306 543 b 397 800 306 769 343 800 b 506 667 461 800 504 754 l 743 674 b 499 988 742 833 649 951 l 499 1111 l 304 1111 l 304 992 b 63 713 156 960 63 853 b 517 265 63 389 517 417 b 411 186 517 219 479 186 b 272 326 328 186 272 238 l 29 326 b 304 -3 29 186 117 38 l 304 -125 l 499 -125 l 499 -7 b 765 281 654 21 765 124 z "},"€":{"ha":1004,"x_min":0,"x_max":0,"o":"m 676 785 b 933 693 826 785 917 714 l 933 922 b 646 1000 906 942 810 1000 b 182 674 433 1000 251 868 l 67 674 l 67 535 l 153 535 b 151 493 151 521 151 507 l 151 465 l 67 465 l 67 326 l 178 326 b 646 -14 243 124 428 -14 b 933 64 810 -14 906 44 l 933 293 b 676 201 917 272 826 201 b 436 326 578 201 489 247 l 763 326 l 800 465 l 389 465 b 388 493 388 475 388 483 b 390 535 388 507 389 521 l 815 535 l 853 674 l 446 674 b 676 785 499 744 583 785 z "},"₴":{"ha":1017,"x_min":0,"x_max":0,"o":"m 804 672 b 840 779 824 696 840 728 b 524 1000 840 879 735 1000 b 163 706 310 1000 163 872 l 406 706 b 511 796 406 761 451 796 b 604 728 568 796 604 765 b 515 672 604 697 581 672 l 61 672 l 61 526 l 956 526 l 956 672 z m 183 311 b 154 219 164 283 154 253 b 504 -14 154 94 272 -14 b 886 258 767 -14 886 128 l 638 258 b 513 190 638 215 585 190 b 403 253 438 190 403 215 b 519 311 403 289 438 311 l 956 311 l 956 457 l 61 457 l 61 311 z "},"₽":{"ha":1038,"x_min":0,"x_max":0,"o":"m 614 346 b 986 669 846 346 986 471 b 628 986 986 872 846 986 l 225 986 l 225 499 l 61 499 l 61 346 l 225 346 l 225 281 l 63 281 l 63 128 l 225 128 l 225 0 l 461 0 l 461 128 l 632 128 l 632 281 l 461 281 l 461 346 z m 628 771 b 750 663 697 771 750 731 b 628 554 750 594 697 554 l 461 554 l 461 771 z "},"£":{"ha":829,"x_min":0,"x_max":0,"o":"m 399 229 b 451 326 426 260 443 294 l 679 326 l 679 479 l 436 479 b 325 689 397 557 325 607 b 422 792 325 750 364 792 b 528 653 486 792 528 746 l 764 653 b 429 1000 764 858 621 1000 b 89 707 238 1000 89 892 b 182 479 89 604 138 536 l 89 479 l 89 326 l 254 326 b 89 192 244 281 197 240 l 89 -14 b 278 42 126 15 196 42 b 575 -10 392 42 458 -10 b 764 39 657 -10 721 8 l 764 244 b 575 189 726 215 657 189 b 399 229 507 189 454 214 z "},"₸":{"ha":856,"x_min":0,"x_max":0,"o":"m 796 833 l 796 986 l 60 986 l 60 833 z m 546 0 l 546 611 l 796 611 l 796 764 l 60 764 l 60 611 l 310 611 l 310 0 z "},"¥":{"ha":936,"x_min":0,"x_max":0,"o":"m 667 986 b 471 593 553 781 496 669 b 275 986 447 669 390 781 l 6 986 l 265 539 l 111 539 l 111 386 l 350 386 l 350 317 l 111 317 l 111 164 l 350 164 l 350 0 l 586 0 l 586 164 l 826 164 l 826 317 l 586 317 l 586 386 l 826 386 l 826 539 l 671 539 l 931 986 z "},"+":{"ha":739,"x_min":0,"x_max":0,"o":"m 482 472 l 482 681 l 260 681 l 260 472 l 57 472 l 57 264 l 260 264 l 260 56 l 482 56 l 482 264 l 682 264 l 682 472 z "},"−":{"ha":833,"x_min":0,"x_max":0,"o":"m 89 264 l 714 264 l 714 472 l 89 472 z "},"×":{"ha":683,"x_min":0,"x_max":0,"o":"m 494 367 l 638 510 l 490 658 l 347 514 l 200 661 l 42 504 l 190 357 l 49 215 l 196 68 l 338 210 l 485 63 l 642 219 z "},"÷":{"ha":731,"x_min":0,"x_max":0,"o":"m 365 507 b 476 618 428 507 476 556 b 365 729 476 681 428 729 b 254 618 303 729 254 681 b 365 507 254 556 303 507 z m 678 265 l 678 474 l 53 474 l 53 265 z m 365 8 b 476 119 428 8 476 57 b 365 231 476 182 428 231 b 254 119 303 231 254 182 b 365 8 254 57 303 8 z "},"=":{"ha":833,"x_min":0,"x_max":0,"o":"m 104 415 l 729 415 l 729 610 l 104 610 z m 104 124 l 729 124 l 729 318 l 104 318 z "},"≠":{"ha":833,"x_min":0,"x_max":0,"o":"m 729 610 l 604 610 l 643 714 l 458 714 l 419 610 l 104 610 l 104 415 l 347 415 l 311 318 l 104 318 l 104 124 l 238 124 l 196 11 l 381 11 l 422 124 l 729 124 l 729 318 l 496 318 l 532 415 l 729 415 z "},">":{"ha":763,"x_min":0,"x_max":0,"o":"m 82 536 b 464 414 340 444 401 425 b 82 293 404 406 342 385 l 82 93 l 707 313 l 707 517 l 82 736 z "},"<":{"ha":763,"x_min":0,"x_max":0,"o":"m 56 514 l 56 310 l 681 90 l 681 290 b 299 413 422 382 361 401 b 681 533 358 421 421 442 l 681 733 z "},"≥":{"ha":763,"x_min":0,"x_max":0,"o":"m 82 668 b 464 546 340 576 401 557 b 82 425 404 538 342 517 l 82 225 l 707 444 l 707 649 l 82 868 z m 707 0 l 707 208 l 82 208 l 82 0 z "},"≤":{"ha":763,"x_min":0,"x_max":0,"o":"m 56 649 l 56 444 l 681 225 l 681 425 b 299 547 422 517 361 536 b 681 668 358 556 421 576 l 681 868 z m 681 0 l 681 208 l 56 208 l 56 0 z "},"±":{"ha":739,"x_min":0,"x_max":0,"o":"m 482 881 l 260 881 l 260 672 l 57 672 l 57 464 l 260 464 l 260 256 l 482 256 l 482 464 l 682 464 l 682 672 l 482 672 z m 682 0 l 682 208 l 57 208 l 57 0 z "},"≈":{"ha":839,"x_min":0,"x_max":0,"o":"m 219 449 b 285 518 232 492 247 518 b 569 440 338 518 467 440 b 775 636 668 440 750 513 l 611 689 b 547 619 600 646 585 619 b 271 697 493 619 375 697 b 64 501 151 697 81 600 z m 219 151 b 285 221 232 194 247 221 b 569 143 338 221 467 143 b 775 339 668 143 750 215 l 611 392 b 547 322 600 349 585 322 b 271 400 493 322 375 400 b 64 204 151 400 81 303 z "},"~":{"ha":839,"x_min":0,"x_max":0,"o":"m 219 283 b 285 353 232 326 247 353 b 569 275 338 353 467 275 b 775 471 668 275 750 347 l 611 524 b 547 454 600 481 585 454 b 271 532 493 454 375 532 b 64 336 151 532 81 435 z "},"¬":{"ha":796,"x_min":0,"x_max":0,"o":"m 67 313 l 476 313 l 476 99 l 692 99 l 692 507 l 67 507 z "},"^":{"ha":776,"x_min":0,"x_max":0,"o":"m 490 986 l 286 986 l 31 431 l 235 431 b 389 799 328 639 369 738 b 542 431 407 738 450 639 l 746 431 z "},"∞":{"ha":1083,"x_min":0,"x_max":0,"o":"m 750 729 b 557 633 675 729 611 706 b 335 729 510 696 429 729 b 63 456 183 729 63 614 b 335 185 63 299 183 185 b 533 283 411 185 476 207 b 750 185 582 222 663 185 b 1022 456 901 185 1022 299 b 750 729 1022 614 901 729 z m 339 365 b 243 456 283 365 243 403 b 339 549 243 510 283 549 b 449 463 382 549 421 526 l 453 453 l 444 439 b 339 365 417 383 376 365 z m 746 365 b 642 449 708 365 669 385 l 636 460 l 640 467 b 746 549 671 528 708 549 b 842 456 801 549 842 508 b 746 365 842 404 801 365 z "},"∅":{"ha":1124,"x_min":0,"x_max":0,"o":"m 825 1014 l 782 957 b 565 1000 718 985 644 1000 b 58 493 271 1000 58 788 b 182 150 58 357 104 239 l 49 -28 l 299 -28 l 343 32 b 565 -14 410 3 485 -14 b 1072 493 860 -14 1072 199 b 946 840 1072 631 1025 751 l 1075 1014 z m 294 493 b 565 778 294 649 403 778 b 642 768 592 778 618 774 l 329 349 b 294 493 307 392 294 440 z m 836 493 b 565 208 836 338 728 208 b 483 221 536 208 508 213 l 799 643 b 836 493 822 599 836 547 z "},"∫":{"ha":586,"x_min":0,"x_max":0,"o":"m 136 -329 b 408 -31 261 -329 408 -258 l 408 749 b 507 861 408 831 438 861 b 554 849 521 861 538 857 l 554 1033 b 450 1054 529 1044 497 1054 b 178 756 325 1054 178 983 l 178 -24 b 79 -136 178 -106 149 -136 b 32 -124 65 -136 49 -132 l 32 -308 b 136 -329 57 -319 89 -329 z "},"∏":{"ha":906,"x_min":0,"x_max":0,"o":"m 36 986 l 36 800 l 161 800 l 161 0 l 383 0 l 383 800 l 522 800 l 522 0 l 744 0 l 744 800 l 869 800 l 869 986 z "},"∑":{"ha":768,"x_min":0,"x_max":0,"o":"m 57 986 l 57 811 l 311 492 l 57 174 l 57 0 l 710 0 l 710 200 l 315 200 b 571 492 371 253 443 338 b 315 786 443 647 372 733 l 710 786 l 710 986 z "},"√":{"ha":956,"x_min":0,"x_max":0,"o":"m 539 1042 b 365 254 414 518 375 353 b 267 731 356 340 326 483 l 33 731 l 239 0 l 494 0 l 715 856 l 921 856 l 921 1042 z "},"∂":{"ha":833,"x_min":0,"x_max":0,"o":"m 485 986 l 226 986 l 407 661 b 347 667 389 665 368 667 b 44 344 182 667 44 532 b 415 -14 44 149 193 -14 b 789 331 640 -14 789 149 b 726 549 789 389 775 460 z m 415 208 b 281 344 340 208 281 268 b 415 481 281 421 340 481 b 553 344 492 481 553 421 b 415 208 553 268 492 208 z "},"µ":{"ha":922,"x_min":0,"x_max":0,"o":"m 608 344 b 469 182 608 229 547 182 b 335 343 406 182 335 214 l 335 731 l 104 731 l 104 -319 l 335 -319 l 335 21 b 450 -15 368 -8 417 -15 b 613 76 522 -15 575 18 l 647 0 l 842 0 l 842 731 l 608 731 z "},"%":{"ha":1394,"x_min":0,"x_max":0,"o":"m 319 463 b 599 729 483 463 599 572 b 319 997 599 886 483 997 b 40 729 156 997 40 886 b 319 463 40 572 156 463 z m 815 986 l 390 0 l 579 0 l 1004 986 z m 319 625 b 214 731 258 625 214 667 b 319 836 214 793 258 836 b 428 731 385 836 428 793 b 319 625 428 667 383 625 z m 1075 -17 b 1354 250 1239 -17 1354 93 b 1075 518 1354 407 1239 518 b 796 250 911 518 796 407 b 1075 -17 796 93 911 -17 z m 1075 146 b 969 251 1014 146 969 188 b 1075 357 969 314 1014 357 b 1183 251 1140 357 1183 314 b 1075 146 1183 188 1139 146 z "},"‰":{"ha":2008,"x_min":0,"x_max":0,"o":"m 319 463 b 599 729 483 463 599 572 b 319 997 599 886 483 997 b 40 729 156 997 40 886 b 319 463 40 572 156 463 z m 815 986 l 390 0 l 579 0 l 1004 986 z m 319 625 b 214 731 258 625 214 667 b 319 836 214 793 258 836 b 428 731 385 836 428 793 b 319 625 428 667 383 625 z m 1075 -17 b 1354 250 1239 -17 1354 93 b 1075 518 1354 407 1239 518 b 796 250 911 518 796 407 b 1075 -17 796 93 911 -17 z m 1689 -17 b 1968 250 1853 -17 1968 93 b 1689 518 1968 407 1853 518 b 1410 250 1525 518 1410 407 b 1689 -17 1410 93 1525 -17 z m 1075 146 b 969 251 1014 146 969 188 b 1075 357 969 314 1014 357 b 1183 251 1140 357 1183 314 b 1075 146 1183 188 1139 146 z m 1689 146 b 1583 251 1628 146 1583 188 b 1689 357 1583 314 1628 357 b 1797 251 1754 357 1797 314 b 1689 146 1797 188 1753 146 z "},"↑":{"ha":904,"x_min":0,"x_max":0,"o":"m 451 1001 l 46 594 l 49 335 l 361 650 b 349 0 349 560 349 411 l 557 0 b 544 650 557 414 557 561 l 857 333 l 858 594 z "},"↗":{"ha":897,"x_min":0,"x_max":0,"o":"m 57 664 l 500 665 b 32 215 428 611 321 504 l 179 68 b 631 538 472 361 576 465 l 628 92 l 813 275 l 813 850 l 239 850 z "},"→":{"ha":1061,"x_min":0,"x_max":0,"o":"m 368 810 l 683 496 b 47 508 594 508 447 508 l 47 300 b 683 313 450 300 596 300 l 367 0 l 628 -1 l 1035 406 l 628 810 z "},"↘":{"ha":897,"x_min":0,"x_max":0,"o":"m 631 475 b 179 944 576 547 472 651 l 32 797 b 500 347 321 508 428 401 l 57 349 l 239 163 l 813 163 l 813 738 l 628 921 z "},"↓":{"ha":904,"x_min":0,"x_max":0,"o":"m 543 338 b 556 988 556 428 556 576 l 347 988 b 360 338 347 574 347 426 l 47 654 l 46 393 l 453 -14 l 858 393 l 856 653 z "},"↙":{"ha":897,"x_min":0,"x_max":0,"o":"m 718 943 b 267 474 425 650 321 546 l 269 919 l 85 736 l 85 161 l 658 161 l 840 347 l 397 346 b 865 796 469 400 576 507 z "},"←":{"ha":1061,"x_min":0,"x_max":0,"o":"m 1014 508 b 378 496 611 508 465 508 l 694 808 l 433 810 l 26 403 l 433 -1 l 693 -1 l 378 313 b 1014 300 467 300 614 300 z "},"↖":{"ha":897,"x_min":0,"x_max":0,"o":"m 840 664 l 658 850 l 85 850 l 85 275 l 269 92 l 267 538 b 718 68 321 465 425 361 l 865 215 b 397 665 576 504 469 611 z "},"↔":{"ha":1471,"x_min":0,"x_max":0,"o":"m 776 810 l 1089 500 b 381 500 957 513 513 513 l 693 810 l 432 810 l 25 403 l 432 0 l 692 0 l 381 308 b 1089 308 514 296 956 296 l 778 0 l 1038 0 l 1444 403 l 1038 810 z "},"↕":{"ha":786,"x_min":0,"x_max":0,"o":"m 394 1008 l 392 1008 l 67 761 l 67 536 b 296 711 206 639 263 683 b 296 281 289 585 289 407 b 67 456 263 308 206 353 l 67 231 l 392 -17 l 394 -17 l 719 231 l 719 456 b 492 282 585 356 525 308 b 492 708 500 406 500 582 b 719 536 525 682 585 635 l 719 761 z "},"●":{"ha":1161,"x_min":0,"x_max":0,"o":"m 579 -32 b 1113 499 878 -32 1113 201 b 579 1031 1113 796 878 1031 b 49 499 282 1031 49 796 b 579 -32 49 201 282 -32 z "},"○":{"ha":1228,"x_min":0,"x_max":0,"o":"m 614 -64 b 1179 494 931 -64 1179 182 b 614 1054 1179 808 931 1054 b 49 494 297 1054 49 808 b 614 -64 49 182 297 -64 z m 614 68 b 196 494 379 68 196 256 b 614 921 196 733 379 921 b 1033 494 849 921 1033 733 b 614 68 1033 256 849 68 z "},"◊":{"ha":776,"x_min":0,"x_max":0,"o":"m 286 1042 l 31 486 l 286 -69 l 490 -69 l 746 486 l 490 1042 z m 388 108 b 235 486 369 181 328 281 b 389 854 328 690 369 789 b 542 486 407 789 449 690 b 388 108 447 281 406 181 z "},"■":{"ha":1163,"x_min":0,"x_max":0,"o":"m 861 0 b 1075 214 981 0 1075 94 l 1075 772 b 861 986 1075 892 981 986 l 303 986 b 88 772 182 986 88 892 l 88 214 b 303 0 88 94 182 0 z "},"□":{"ha":1235,"x_min":0,"x_max":0,"o":"m 897 -26 b 1149 225 1050 -26 1149 72 l 1149 783 b 897 1035 1149 936 1050 1035 l 339 1035 b 86 783 185 1035 86 936 l 86 225 b 339 -26 86 72 185 -26 z m 339 107 b 233 225 269 107 233 147 l 233 783 b 339 901 233 861 269 901 l 897 901 b 1001 783 967 901 1001 861 l 1001 225 b 897 107 1001 147 967 107 z "},"̈":{"ha":0,"x_min":0,"x_max":0,"o":"m -458 808 b -347 919 -396 808 -347 857 b -458 1031 -347 982 -396 1031 b -569 919 -521 1031 -569 982 b -458 808 -569 857 -521 808 z m -160 808 b -49 919 -97 808 -49 857 b -160 1031 -49 982 -97 1031 b -271 919 -222 1031 -271 982 b -160 808 -271 857 -222 808 z "},"̇":{"ha":0,"x_min":0,"x_max":0,"o":"m -167 789 b -40 914 -97 789 -40 844 b -167 1040 -40 985 -97 1040 b -293 914 -236 1040 -293 985 b -167 789 -293 844 -236 789 z "},"̀":{"ha":0,"x_min":0,"x_max":0,"o":"m -122 1042 l -358 1042 l -200 806 l -19 806 z "},"́":{"ha":0,"x_min":0,"x_max":0,"o":"m -164 806 l -6 1042 l -242 1042 l -344 806 z "},"̋":{"ha":0,"x_min":0,"x_max":0,"o":"m -419 806 l -261 1042 l -497 1042 l -600 806 z m -164 806 l -6 1042 l -242 1042 l -344 806 z "},"̂":{"ha":0,"x_min":0,"x_max":0,"o":"m -182 1028 l -354 1028 l -533 792 l -328 792 b -267 892 -301 829 -282 863 b -208 792 -253 864 -233 832 l -3 792 z "},"̌":{"ha":0,"x_min":0,"x_max":0,"o":"m -208 1032 b -268 911 -242 982 -260 949 b -328 1032 -276 944 -294 979 l -533 1032 l -354 796 l -182 796 l -3 1032 z "},"̆":{"ha":0,"x_min":0,"x_max":0,"o":"m -296 786 b -31 1022 -181 786 -31 843 l -207 1022 b -296 935 -207 985 -228 935 b -385 1022 -364 935 -385 985 l -561 1022 b -296 786 -561 843 -411 786 z "},"̊":{"ha":0,"x_min":0,"x_max":0,"o":"m -206 814 b -37 982 -112 814 -37 889 b -206 1150 -37 1075 -112 1150 b -374 982 -299 1150 -374 1075 b -206 814 -374 889 -299 814 z m -206 929 b -258 982 -236 929 -258 951 b -206 1035 -258 1013 -236 1035 b -153 982 -175 1035 -153 1013 b -206 929 -153 951 -175 929 z "},"̃":{"ha":0,"x_min":0,"x_max":0,"o":"m -451 803 b -401 856 -442 836 -429 856 b -219 807 -353 856 -306 807 b -33 985 -125 807 -58 864 l -193 1035 b -242 982 -201 1001 -212 982 b -415 1031 -290 982 -339 1031 b -603 853 -531 1031 -586 936 z "},"̄":{"ha":0,"x_min":0,"x_max":0,"o":"m -590 806 l -69 806 l -69 986 l -590 986 z "},"̒":{"ha":0,"x_min":0,"x_max":0,"o":"m -26 1349 l -207 1349 l -354 1121 l -118 1121 z "},"̦":{"ha":0,"x_min":0,"x_max":0,"o":"m -326 -321 l -146 -321 l -10 -50 l -246 -50 z "},"̧":{"ha":0,"x_min":0,"x_max":0,"o":"m -99 0 l -258 0 l -317 -149 b -194 -183 -240 -149 -194 -158 b -240 -207 -194 -196 -208 -207 b -332 -189 -262 -207 -292 -201 l -335 -310 b -226 -332 -296 -325 -260 -332 b -32 -192 -110 -332 -32 -279 b -129 -75 -32 -128 -74 -87 z "},"̨":{"ha":0,"x_min":0,"x_max":0,"o":"m -43 -133 b -137 -175 -82 -167 -108 -175 b -199 -118 -174 -175 -199 -153 b -107 0 -199 -92 -178 -44 l -294 0 b -372 -168 -344 -46 -372 -111 b -194 -331 -372 -265 -307 -331 b -43 -282 -119 -331 -74 -307 z "},"¨":{"ha":618,"x_min":0,"x_max":0,"o":"m 160 808 b 271 919 222 808 271 857 b 160 1031 271 982 222 1031 b 49 919 97 1031 49 982 b 160 808 49 857 97 808 z m 458 808 b 569 919 521 808 569 857 b 458 1031 569 982 521 1031 b 347 919 396 1031 347 982 b 458 808 347 857 396 808 z "},"˙":{"ha":333,"x_min":0,"x_max":0,"o":"m 167 789 b 293 914 236 789 293 844 b 167 1040 293 985 236 1040 b 40 914 97 1040 40 985 b 167 789 40 844 97 789 z "},"`":{"ha":364,"x_min":0,"x_max":0,"o":"m 242 1042 l 6 1042 l 164 806 l 344 806 z "},"´":{"ha":364,"x_min":0,"x_max":0,"o":"m 200 806 l 358 1042 l 122 1042 l 19 806 z "},"˝":{"ha":619,"x_min":0,"x_max":0,"o":"m 200 806 l 358 1042 l 122 1042 l 19 806 z m 456 806 l 614 1042 l 378 1042 l 275 806 z "},"ˆ":{"ha":536,"x_min":0,"x_max":0,"o":"m 354 1028 l 182 1028 l 3 792 l 208 792 b 269 892 235 829 254 863 b 328 792 283 864 303 832 l 533 792 z "},"ˇ":{"ha":536,"x_min":0,"x_max":0,"o":"m 328 1032 b 268 911 294 982 276 949 b 208 1032 260 944 242 979 l 3 1032 l 182 796 l 354 796 l 533 1032 z "},"˘":{"ha":592,"x_min":0,"x_max":0,"o":"m 296 786 b 561 1022 411 786 561 843 l 385 1022 b 296 935 385 985 364 935 b 207 1022 228 935 207 985 l 31 1022 b 296 786 31 843 181 786 z "},"˚":{"ha":411,"x_min":0,"x_max":0,"o":"m 206 814 b 374 982 299 814 374 889 b 206 1150 374 1075 299 1150 b 38 982 113 1150 38 1075 b 206 814 38 889 113 814 z m 206 929 b 153 982 175 929 153 951 b 206 1035 153 1013 175 1035 b 258 982 236 1035 258 1013 b 206 929 258 951 236 929 z "},"˜":{"ha":635,"x_min":0,"x_max":0,"o":"m 183 803 b 233 856 193 836 206 856 b 415 807 282 856 329 807 b 601 985 510 807 576 864 l 442 1035 b 393 982 433 1001 422 982 b 219 1031 344 982 296 1031 b 32 853 104 1031 49 936 z "},"¯":{"ha":660,"x_min":0,"x_max":0,"o":"m 69 806 l 590 806 l 590 986 l 69 986 z "},"¸":{"ha":379,"x_min":0,"x_max":0,"o":"m 281 0 l 121 0 l 63 -149 b 185 -183 139 -149 185 -158 b 139 -207 185 -196 171 -207 b 47 -189 117 -207 88 -201 l 44 -310 b 153 -332 83 -325 119 -332 b 347 -192 269 -332 347 -279 b 250 -75 347 -128 306 -87 z "},"˛":{"ha":415,"x_min":0,"x_max":0,"o":"m 372 -133 b 278 -175 333 -167 307 -175 b 217 -118 242 -175 217 -153 b 308 0 217 -92 238 -44 l 121 0 b 43 -168 71 -46 43 -111 b 221 -331 43 -265 108 -331 b 372 -282 296 -331 342 -307 z "}}}
